<svg version="1.1" xmlns="http://www.w3.org/2000/svg" viewBox="0 0 1948.7012082054498 995.7575225830078" width="1948.7012082054498" height="995.7575225830078">
  <!-- svg-source:excalidraw -->
  
  <defs>
    <style>
      @font-face {
        font-family: "Virgil";
        src: url("https://excalidraw.com/Virgil.woff2");
      }
      @font-face {
        font-family: "Cascadia";
        src: url("https://excalidraw.com/Cascadia.woff2");
      }
    </style>
  </defs>
  <g stroke-linecap="round" transform="translate(969.0912373860681 10) rotate(0 250.75754801432288 487.8787612915039)"><path d="M-0.39 1.38 L503.1 -1.2 L502.05 976.99 L0.37 975" stroke="none" stroke-width="0" fill="#228be6"></path><path d="M0.12 0.47 C170.68 -1.79, 342.53 -1.81, 501.8 0.74 M-0.33 0.27 C133.81 1.46, 267.28 1.13, 501.62 -0.15 M501.57 0.38 C501.47 246.54, 501.27 491.95, 500.72 975.23 M501.54 -0.26 C504.3 344.49, 504.26 689.04, 501.89 976.09 M502.04 975.81 C372.7 974.73, 245.91 975.48, 0.54 976.48 M501.37 976.06 C305.65 974.04, 108.72 974.45, 0.27 975.79 M-0.17 975.04 C4.23 594.61, 3.01 214.38, -0.1 0.8 M-0.22 975.68 C2.39 668.28, 1.82 361.01, 0 0.22" stroke="#000000" stroke-width="1" fill="none"></path></g><g stroke-linecap="round" transform="translate(691.8181864420576 229.69704945882148) rotate(0 125.75754801432277 261.36365254720045)"><path d="M1.58 -1.2 L252.05 1.23 L251.88 521.97 L1.35 523.65" stroke="none" stroke-width="0" fill="#e64980"></path><path d="M-1.26 -0.39 C95.34 -1.64, 191.55 0.31, 250.97 0.59 M0.18 0.22 C58.19 -1.81, 117.23 -1.67, 251.12 -0.15 M252.21 0.65 C252.15 191.49, 250.86 382.13, 251.94 523.29 M251.57 0.16 C251.68 150.37, 252.04 300.33, 251.34 522.48 M249.98 521.7 C183.69 523.36, 114.82 524.35, 1.49 523.03 M252.21 522.57 C195.88 524.96, 142.32 524.35, 0.73 521.94 M0.44 522.2 C-0.34 405.47, 0.34 289.28, 0.12 -0.44 M0.23 522.81 C0.81 327.36, 1.14 131.47, -0.08 0.28" stroke="#000000" stroke-width="1" fill="none"></path></g><g stroke-linecap="round" transform="translate(287.4947211855931 230.29234749930208) rotate(0 176.70452117919922 256.8181610107422)"><path d="M0.54 1.23 L353.77 -0.75 L354.76 514.56 L-0.69 512.4" stroke="none" stroke-width="0" fill="#fd7e14"></path><path d="M-0.11 -0.35 C127.33 1.74, 253.31 1.01, 352.54 -1.06 M-0.26 -0.36 C129.64 -0.86, 258.63 -0.73, 353.83 0.04 M353.9 0.16 C354.41 177.71, 355.63 357.03, 353.3 513.69 M353.43 0.37 C354.08 121.45, 353.52 241.98, 353.3 513.9 M354.26 514.03 C245.83 513.38, 137.68 512.44, -1.05 513.17 M352.8 514.17 C221 513.25, 88.31 512.58, -0.49 513.5 M-0.78 513.5 C-1.24 406.46, -1.02 297.24, 0.6 -0.44 M-0.33 514 C-1.16 369.69, -1.24 225.58, 0.32 -0.24" stroke="#364fc7" stroke-width="1" fill="none"></path></g><g stroke-opacity="0.6" fill-opacity="0.6" stroke-linecap="round" transform="translate(982.8570919945125 162.94391632080044) rotate(0 477.92205810546864 316.23377118791853)"><path d="M0.37 -0.75 L957.19 0.92 L955.15 631.23 L0.7 633.02" stroke="none" stroke-width="0" fill="#fab005"></path><path d="M0.29 0.74 C263.79 1.31, 527.57 0.37, 956.37 0.17 M0.1 -0.15 C312.29 2.07, 625.22 2.17, 956.03 0.35 M955.05 -0.53 C957.82 241.95, 957.3 482.84, 955.33 632.58 M956.22 0.33 C955.79 215.02, 955.87 430.82, 955.87 632.09 M956.39 633.19 C729.91 633.77, 501.85 633.34, 0.61 633.15 M956.12 632.5 C687.69 635.25, 418.52 635.55, -0.36 632.69 M-0.1 633.27 C2.58 483.99, 3.05 335.97, -0.15 0.45 M0 632.69 C2.04 430.51, 2.43 227.77, 0.11 0.25" stroke="#364fc7" stroke-width="1" fill="none"></path></g><g stroke-linecap="round" transform="translate(1038.4848531087237 262.72739410400357) rotate(0 181.8181937081473 207.79220581054682)"><path d="M1.35 0.92 L362.94 -1.24 L364.34 416.14 L1.79 415.82" stroke="none" stroke-width="0" fill="#82c91e"></path><path d="M-0.42 0.45 C98.5 -3.15, 199.52 -1.85, 363.97 -0.5 M-0.3 -0.12 C89.12 0.92, 177.72 1.43, 364.15 0.39 M364.21 0.76 C361.26 133.28, 360.71 266.56, 364.07 415.64 M363.4 -0.34 C365.62 163.85, 365.8 326.48, 363.3 415.94 M364.78 415.81 C242.49 417.2, 124.36 418.73, -0.24 414.4 M364.2 414.98 C223.96 415.63, 84.66 416.11, -0.41 414.97 M0.16 414.99 C1.09 297.62, 0.07 181.44, 0.21 -0.9 M-0.11 415.96 C0.42 252.43, 0.14 90.26, 0.1 -0.2" stroke="#364fc7" stroke-width="1" fill="none"></path></g><g stroke-linecap="round" transform="translate(1544.978383382161 357.53256116594554) rotate(0 105.19478934151789 108.44155447823655)"><path d="M54.46 -0.67 L170.84 -0.53 L179.16 4.61 L190.28 7.93 L196.44 12.03 L203.51 19.77 L206.14 29.21 L211.5 46.36 L211.12 172.4 L206.89 193.25 L200.73 198.25 L188.53 210.54 L182.2 213.33 L164.3 215.39 L46.51 217.49 L34.82 216.9 L22.44 211.15 L12.26 202.47 L6.88 197.65 L1.99 180.28 L-1.05 171.98 L0.61 53.95 L3.67 36.55 L7.76 18.91 L12.42 14.67 L22.25 7.01 L32.84 3.51 L53.95 0.16" stroke="none" stroke-width="0" fill="#ced4da"></path><path d="M52.6 0 M52.6 0 C93.21 -1, 135.77 -0.52, 157.79 0 M52.6 0 C74.93 0.28, 94.72 0.88, 157.79 0 M157.79 0 C191.76 -0.39, 211.52 17.93, 210.39 52.6 M157.79 0 C190.93 2.11, 210.4 18.8, 210.39 52.6 M210.39 52.6 C209.96 84.45, 212.4 115.58, 210.39 164.29 M210.39 52.6 C210.8 81.28, 211.5 111.47, 210.39 164.29 M210.39 164.29 C212.18 199.58, 192.56 217.67, 157.79 216.88 M210.39 164.29 C209.97 200.61, 195.04 215.56, 157.79 216.88 M157.79 216.88 C120.99 216.42, 82.74 215.72, 52.6 216.88 M157.79 216.88 C125.11 217.73, 93.08 217.92, 52.6 216.88 M52.6 216.88 C16.16 218.46, -0.35 197.63, 0 164.29 M52.6 216.88 C16.57 215.56, -1.83 200.91, 0 164.29 M0 164.29 C1.05 134.31, 0.93 103.32, 0 52.6 M0 164.29 C-0.31 124.28, 0.22 84.01, 0 52.6 M0 52.6 C0.47 15.98, 18.19 -0.15, 52.6 0 M0 52.6 C0.72 18.53, 18.3 -0.23, 52.6 0" stroke="#364fc7" stroke-width="1" fill="none"></path></g><g transform="translate(325.4978652227493 413.3139913649782) rotate(0 149 55.5)"><text x="0" y="39.5" font-family="Virgil, Segoe UI Emoji" font-size="44.391602903932025px" fill="#000000" text-anchor="start" style="white-space: pre;" direction="ltr">Frontend</text><text x="0" y="95" font-family="Virgil, Segoe UI Emoji" font-size="44.391602903932025px" fill="#000000" text-anchor="start" style="white-space: pre;" direction="ltr">(html, css, js)</text></g><g transform="translate(1149.0044657389321 433.65382348923407) rotate(0 68.47977927879049 33.86362711588541)"><text x="0" y="47.727254231770786" font-family="Virgil, Segoe UI Emoji" font-size="54.18180338541665px" fill="#ffffff" text-anchor="start" style="white-space: pre;" direction="ltr">Java</text></g><g transform="translate(1611.255500430152 444.1733198620021) rotate(0 41.89402262369799 34.27692760120746)"><text x="0" y="47.55385520241491" font-family="Virgil, Segoe UI Emoji" font-size="54.84308416193193px" fill="#000000" text-anchor="start" style="white-space: pre;" direction="ltr">DB</text></g><g transform="translate(1649.4372921898248 204.99581945510099) rotate(0 125.33333333333326 39.16666666666664)"><text x="0" y="54.3333333333333" font-family="Virgil, Segoe UI Emoji" font-size="62.66666666666665px" fill="#000000" text-anchor="start" style="white-space: pre;" direction="ltr">Backend</text></g><g stroke-linecap="round" transform="translate(47.87877400716138 394.84856923421194) rotate(0 43.18181355794269 43.18181355794269)"><path d="M38.34 0.48 C45.63 -0.95, 56.5 1.31, 63.47 4.92 C70.43 8.53, 76.25 15.51, 80.13 22.15 C84.02 28.79, 87.17 37.04, 86.78 44.76 C86.4 52.48, 82.34 61.91, 77.82 68.47 C73.29 75.03, 66.72 81.28, 59.63 84.11 C52.54 86.95, 42.88 87.09, 35.26 85.46 C27.63 83.83, 19.45 79.51, 13.87 74.34 C8.3 69.17, 3.82 61.87, 1.8 54.44 C-0.22 47, -0.79 37.15, 1.75 29.73 C4.3 22.32, 9.66 14.98, 17.07 9.94 C24.47 4.91, 40.28 1.01, 46.18 -0.47 C52.07 -1.96, 52.5 0.36, 52.42 1.02 M53.58 2.02 C60.79 3.27, 68.07 9.25, 73.36 14.52 C78.65 19.79, 83.76 26.36, 85.31 33.66 C86.86 40.96, 85.7 50.7, 82.66 58.31 C79.63 65.93, 73.4 74.53, 67.09 79.33 C60.78 84.14, 52.41 86.73, 44.78 87.15 C37.15 87.58, 28 85.7, 21.3 81.87 C14.6 78.04, 8.31 71.16, 4.59 64.19 C0.86 57.22, -1.74 47.75, -1.05 40.04 C-0.37 32.33, 3.84 24.16, 8.67 17.94 C13.51 11.72, 20.55 5.47, 27.94 2.72 C35.34 -0.02, 48.79 1.77, 53.04 1.46 C57.3 1.16, 53.5 0.24, 53.45 0.88" stroke="none" stroke-width="0" fill="#000000"></path><path d="M58.05 3.15 C65.33 4.93, 73.14 10.73, 77.66 16.59 C82.17 22.44, 84.41 30.46, 85.16 38.29 C85.91 46.11, 85.55 56.5, 82.15 63.55 C78.75 70.6, 71.68 76.76, 64.76 80.58 C57.84 84.4, 48.31 86.81, 40.62 86.46 C32.93 86.11, 24.74 82.85, 18.65 78.48 C12.56 74.12, 6.92 67.6, 4.08 60.3 C1.23 53, 0.4 42.54, 1.59 34.7 C2.77 26.85, 5.88 18.78, 11.21 13.22 C16.53 7.66, 25.47 3.03, 33.53 1.32 C41.58 -0.39, 54.45 2.16, 59.51 2.97 C64.57 3.79, 63.88 5.28, 63.86 6.2 M61.66 5.55 C68.73 8.42, 77.54 13.89, 81.42 20.57 C85.3 27.25, 85.2 37.78, 84.94 45.62 C84.68 53.47, 83.79 61.67, 79.86 67.65 C75.94 73.62, 68.9 78.53, 61.37 81.49 C53.85 84.45, 42.83 86.36, 34.71 85.42 C26.59 84.48, 18.37 81.3, 12.66 75.85 C6.95 70.4, 2.24 60.43, 0.44 52.74 C-1.37 45.04, -0.97 36.81, 1.84 29.68 C4.65 22.56, 11.39 14.72, 17.32 10 C23.24 5.29, 30.05 2.38, 37.4 1.4 C44.74 0.42, 57.17 3.44, 61.38 4.13 C65.6 4.81, 63.06 4.56, 62.67 5.49" stroke="#000000" stroke-width="1" fill="none"></path></g><g stroke-linecap="round" transform="translate(10 517.5758234659827) rotate(0 82.57575988769531 42.42424011230469)"><path d="M20.25 -0.38 L145.26 0.13 L157.81 4.73 L163.8 9.52 L165.23 14.25 L163.84 64.69 L163.57 76.3 L157.01 80.58 L144.22 85.66 L21.31 86.72 L10.18 83.53 L2.09 75.3 L-0.19 69.92 L0.47 14.36 L1.73 9.61 L8.89 4.34 L23.03 1.82" stroke="none" stroke-width="0" fill="#000000"></path><path d="M21.21 0 M21.21 0 C61.8 2.15, 98.96 -1.43, 143.94 0 M21.21 0 C69.09 -1.07, 114.42 -0.31, 143.94 0 M143.94 0 C156.29 1.11, 163.83 5.13, 165.15 21.21 M143.94 0 C157.68 -0.29, 167.45 7.42, 165.15 21.21 M165.15 21.21 C165.08 32.73, 165.86 40.3, 165.15 63.64 M165.15 21.21 C164.96 38.53, 165.94 53.85, 165.15 63.64 M165.15 63.64 C165.69 79.01, 158.45 84.09, 143.94 84.85 M165.15 63.64 C166.7 78.84, 157.28 83.43, 143.94 84.85 M143.94 84.85 C103.03 85.65, 62.44 85.58, 21.21 84.85 M143.94 84.85 C100.93 84.82, 57.46 84.4, 21.21 84.85 M21.21 84.85 C5.95 84.45, -1.82 77.95, 0 63.64 M21.21 84.85 C4.9 85.94, -0.53 78.58, 0 63.64 M0 63.64 C1.35 49.79, -1.95 35.79, 0 21.21 M0 63.64 C-0.01 53.9, 0.1 43.89, 0 21.21 M0 21.21 C-0.32 8.62, 5.41 1.2, 21.21 0 M0 21.21 C-0.81 9.22, 5.45 0.5, 21.21 0" stroke="#000000" stroke-width="1" fill="none"></path></g><g stroke-linecap="round"><g transform="translate(714.5455423990886 385.75763702392544) rotate(0 105.96849320728558 2.027616889181701)"><path d="M0.56 1.05 C35.85 1.62, 177.33 3.42, 212.54 3.5 M-0.6 0.55 C34.55 0.77, 176.81 1.48, 212.1 1.77" stroke="#1864ab" stroke-width="4" fill="none"></path></g><g transform="translate(714.5455423990886 385.75763702392544) rotate(0 105.96849320728558 2.027616889181701)"><path d="M185.59 13.48 C195.41 8.44, 202.54 3.02, 213.16 3.16 M183.99 12.25 C192 10.07, 201 7.08, 211.66 1.14" stroke="#1864ab" stroke-width="4" fill="none"></path></g><g transform="translate(714.5455423990886 385.75763702392544) rotate(0 105.96849320728558 2.027616889181701)"><path d="M185.72 -7.04 C195.51 -4.57, 202.59 -2.48, 213.16 3.16 M184.12 -8.27 C192.11 -4.56, 201.07 -1.67, 211.66 1.14" stroke="#1864ab" stroke-width="4" fill="none"></path></g></g><g stroke-linecap="round"><g transform="translate(904.8760041553307 590.5638531183115) rotate(0 -98.3739026496309 -1.6872091883208782)"><path d="M0.98 0.74 C-31.93 -0.12, -163.75 -3.61, -196.91 -4.11 M0.04 0.08 C-33.06 -0.16, -165.14 -2.47, -197.73 -3.2" stroke="#1864ab" stroke-width="4" fill="none"></path></g><g transform="translate(904.8760041553307 590.5638531183115) rotate(0 -98.3739026496309 -1.6872091883208782)"><path d="M-168.11 -12.5 C-181.1 -10.63, -187.9 -4.54, -197.99 -3.06 M-169.29 -11.98 C-175.08 -9.68, -183.16 -8.85, -197.99 -2.55" stroke="#1864ab" stroke-width="4" fill="none"></path></g><g transform="translate(904.8760041553307 590.5638531183115) rotate(0 -98.3739026496309 -1.6872091883208782)"><path d="M-168.51 8.01 C-181.53 2.77, -188.2 1.73, -197.99 -3.06 M-169.69 8.54 C-175.41 6, -183.4 1.99, -197.99 -2.55" stroke="#1864ab" stroke-width="4" fill="none"></path></g></g><g stroke-linecap="round"><g transform="translate(1435.7574971516929 406.96974436442014) rotate(0 46.4245696018171 1.236271882305573)"><path d="M0.25 -1.19 C15.36 -0.7, 76.13 2.99, 91.64 3.66 M-1.08 0.8 C14.32 0.87, 78.26 1.32, 93.93 1.88" stroke="#1864ab" stroke-width="4" fill="none"></path></g><g transform="translate(1435.7574971516929 406.96974436442014) rotate(0 46.4245696018171 1.236271882305573)"><path d="M63.57 10.29 C77.38 9.23, 86.9 4.26, 92.65 2.16 M66.5 12.43 C74.76 7.4, 84.61 5.37, 94 0.93" stroke="#1864ab" stroke-width="4" fill="none"></path></g><g transform="translate(1435.7574971516929 406.96974436442014) rotate(0 46.4245696018171 1.236271882305573)"><path d="M63.95 -10.23 C77.75 -3.46, 87.11 -0.6, 92.65 2.16 M66.89 -8.08 C75.03 -6.13, 84.74 -1.18, 94 0.93" stroke="#1864ab" stroke-width="4" fill="none"></path></g></g><g stroke-linecap="round"><g transform="translate(1519.091033935547 511.51518503824826) rotate(0 -41.76053275028562 -0.5185135362048641)"><path d="M-0.79 0.63 C-14.83 0.55, -70.01 -1.18, -84.01 -1.67 M1 -0.08 C-13.15 0.14, -70.1 0, -84.52 -0.22" stroke="#1864ab" stroke-width="4" fill="none"></path></g><g transform="translate(1519.091033935547 511.51518503824826) rotate(0 -41.76053275028562 -0.5185135362048641)"><path d="M-55.19 -8.87 C-65.67 -7.09, -75.76 -3.73, -83.71 -0.12 M-56.7 -10.9 C-67.54 -5.42, -78.33 -3.06, -85.15 0.44" stroke="#1864ab" stroke-width="4" fill="none"></path></g><g transform="translate(1519.091033935547 511.51518503824826) rotate(0 -41.76053275028562 -0.5185135362048641)"><path d="M-55.35 11.65 C-65.57 6.85, -75.61 3.64, -83.71 -0.12 M-56.85 9.62 C-67.82 7.02, -78.56 1.31, -85.15 0.44" stroke="#1864ab" stroke-width="4" fill="none"></path></g></g><g transform="translate(733.1820170084636 400.3637161254879) rotate(0 77.38213998300063 24.01514689127606)"><text x="0" y="34.0302937825521" font-family="Virgil, Segoe UI Emoji" font-size="38.42423502604167px" fill="#000000" text-anchor="start" style="white-space: pre;" direction="ltr">Request</text></g><g transform="translate(24.545644124349167 614.3032302856438) rotate(0 67.14814814814801 30.833333333333258)"><text x="0" y="43.66666666666652" font-family="Virgil, Segoe UI Emoji" font-size="49.33333333333322px" fill="#000000" text-anchor="start" style="white-space: pre;" direction="ltr">Client</text></g><g transform="translate(725.4381315078674 605.3457820367639) rotate(0 86.74507794867003 24.705876630950343)"><text x="0" y="34.41175326190065" font-family="Virgil, Segoe UI Emoji" font-size="39.52940260952052px" fill="#000000" text-anchor="start" style="white-space: pre;" direction="ltr">Response</text></g><g transform="translate(737.2730000813806 240.9697697957352) rotate(0 80.97814093695746 35.37879943847656)"><text x="0" y="49.757598876953125" font-family="Virgil, Segoe UI Emoji" font-size="56.6060791015625px" fill="#000000" text-anchor="start" style="white-space: pre;" direction="ltr">HTTP</text></g><g transform="translate(984.0913391113286 46.878850301106496) rotate(0 239.5 22)"><text x="0" y="31" font-family="Virgil, Segoe UI Emoji" font-size="34.78788248697924px" fill="#ffffff" text-anchor="start" style="white-space: pre;" direction="ltr">WAS(Web Application Server)</text></g></svg>