<svg version="1.1" xmlns="http://www.w3.org/2000/svg" viewBox="0 0 2546.2648092602926 1791.0680338541656" width="2546.2648092602926" height="1791.0680338541656">
  <!-- svg-source:excalidraw -->
  
  <defs>
    <style>
      @font-face {
        font-family: "Virgil";
        src: url("https://excalidraw.com/Virgil.woff2");
      }
      @font-face {
        font-family: "Cascadia";
        src: url("https://excalidraw.com/Cascadia.woff2");
      }
    </style>
  </defs>
  <g stroke-opacity="0.8" fill-opacity="0.8" stroke-linecap="round" transform="translate(104.5980408683672 510.99235026041515) rotate(0 1006.0604858398438 599.9999999999998)"><path d="M1.4 -1.09 L2013.11 0.27 L2010.34 1198.69 L0.86 1198.76" stroke="none" stroke-width="0" fill="#40c057"></path><path d="M-0.75 -0.74 C760.25 -4.76, 1521.04 -4.31, 2012.02 -0.37 M0.12 -0.29 C665.01 6.85, 1330.26 6.62, 2011.9 0.32 M2012.16 0.64 C2011.83 257.81, 2012.51 514.89, 2011.57 1200.14 M2011.8 -0.01 C2010.31 281.32, 2010.47 562.5, 2012.46 1199.87 M2011.42 1200.28 C1500.35 1203.73, 987.6 1203.84, 0.47 1199.63 M2012.1 1199.6 C1468.2 1203.17, 923.32 1203.4, -0.05 1200.18 M-0.14 1200.7 C3.61 788.23, 4.32 375.22, -0.19 -0.4 M0.02 1200.33 C-0.95 885.61, -1.55 571.14, 0.01 -0.09" stroke="#000000" stroke-width="4" fill="none"></path></g><g stroke-linecap="round" transform="translate(370.4038447171604 10) rotate(0 94.22876664217824 183.33332061767578)"><path d="M-1.14 0.93 L188.88 -0.29 L187.17 367.5 L-1.26 367.7" stroke="none" stroke-width="0" fill="#228be6"></path><path d="M-1.26 -1.84 C42.6 -0.18, 84.94 -0.08, 188.94 -0.11 M-0.45 0.25 C50.36 -0.52, 100.41 -1.62, 188.64 0.34 M188.65 0.36 C186.86 132.97, 187.93 267.18, 188.06 367.74 M188.02 -0.33 C186.63 109.84, 186.4 219.48, 188.87 366.68 M189.94 365.37 C148.24 366.38, 107.45 364.41, 0.31 367.03 M187.76 366.25 C134.88 364.4, 80.84 365.52, -0.76 366.46 M0.83 367.71 C-0.73 275.27, -0.4 185.87, -0.29 -1.14 M-0.16 366.97 C2.1 224.12, 2.74 81.52, 0.24 0.31" stroke="#000000" stroke-width="1" fill="none"></path></g><g stroke-linecap="round" transform="translate(266.2111780538387 92.55696456343071) rotate(0 47.25671765085727 98.21429033598145)"><path d="M0.03 -0.19 L95.72 0.18 L93.25 195.13 L-0.45 195.72" stroke="none" stroke-width="0" fill="#e64980"></path><path d="M-0.91 0.45 C27.96 -0.32, 59.64 1.66, 94.37 1.07 M0.73 0.35 C20.31 0.15, 40.26 -0.95, 95.4 -0.51 M93.86 0.67 C95.77 62.51, 97.4 124.98, 95.56 197.49 M95.27 -0.26 C94.27 61.71, 92.92 121.87, 94.27 197.01 M92.74 198.34 C68.26 195.39, 45.46 195.39, -1.89 195.01 M93.61 197.38 C67.46 196.83, 40.55 196.88, 0.58 197.41 M1.33 196.9 C3.5 123.64, -0.01 50.33, -1.23 -1.64 M0.69 197.16 C1.22 142.49, 0.91 87.33, -0.17 0.09" stroke="#000000" stroke-width="1" fill="none"></path></g><g stroke-linecap="round" transform="translate(114.27596510690137 92.78066351320012) rotate(0 66.40138740653794 96.50620192686006)"><path d="M-0.77 -0.53 L134.14 -0.01 L134.19 191.38 L0.61 192.21" stroke="none" stroke-width="0" fill="#fd7e14"></path><path d="M0.42 -0.94 C41.49 0.65, 79.69 0.62, 134.69 -0.14 M0.2 0.42 C33.72 -0.41, 66.56 1.27, 132.68 -0.07 M134.59 1.43 C134.13 63.5, 134.77 132.47, 134.23 191.14 M133.7 -0.27 C131.86 47.9, 131 94.48, 132.36 192.86 M133.4 194.71 C80.67 193.08, 31.63 195.03, -1.27 194.85 M132.49 192.28 C102.73 192.52, 73.24 192.39, 0.44 192.25 M0.22 193.51 C0.38 154.2, -1.95 114.37, -1.55 -1.27 M0.05 192.23 C0.83 147.59, 0.59 101.06, -0.76 -0.69" stroke="#364fc7" stroke-width="1" fill="none"></path></g><g stroke-opacity="0.6" fill-opacity="0.6" stroke-linecap="round" transform="translate(375.5767278937624 67.47271304276273) rotate(0 179.59182661890372 118.83318554359255)"><path d="M1.34 -0.01 L360.57 -1.64 L359.8 236.87 L-0.2 238.29" stroke="none" stroke-width="0" fill="#fab005"></path><path d="M0.87 0.94 C129.6 1.98, 261.07 0.98, 358.52 0.25 M0.55 -0.57 C95.12 -0.46, 189.11 -1.01, 359.43 -0.01 M360.32 -1.5 C362.63 89.88, 362.16 175.02, 358.28 236.81 M359.21 0.33 C360.28 51.52, 360.6 103.8, 359.84 238.13 M358.01 237.45 C239.86 240.62, 120.5 240.77, -0.98 238.1 M358.85 237.4 C253.06 235.66, 147.82 235.52, -0.6 238.05 M1.29 238.36 C-0.87 171.37, -1.51 102.94, -1.07 -0.38 M0.33 237.82 C0.03 154.82, -0.73 72.65, -0.32 -0.22" stroke="#364fc7" stroke-width="1" fill="none"></path></g><g stroke-linecap="round" transform="translate(396.4803272564361 104.96898829841712) rotate(0 68.32298481898056 78.08340537078107)"><path d="M1.39 -1.64 L137.26 -0.8 L136.44 156.79 L-1.88 157.58" stroke="none" stroke-width="0" fill="#82c91e"></path><path d="M-0.53 1.44 C36.49 -1.15, 68.16 -0.61, 135.91 0.39 M0.83 0.78 C46.64 1.15, 93.91 1.21, 137.36 0.89 M138.64 1.89 C139.13 56.11, 136.63 114.94, 135.02 157.96 M135.83 -0.53 C136.26 42.51, 137.49 85.88, 136.96 156.47 M136.04 157.77 C82.75 157.77, 29.86 156.62, -0.11 155.55 M136.16 155.62 C106.05 154.83, 73.63 156.19, -0.19 156.28 M-0.78 156.81 C-2.75 104.16, -2.48 54.26, 0.92 0.1 M0.15 155.42 C-1.37 120.79, -1 86.53, 0.67 -0.01" stroke="#364fc7" stroke-width="1" fill="none"></path></g><g stroke-linecap="round" transform="translate(586.8086385987647 140.59453191333023) rotate(0 39.529718388651645 40.749776077173806)"><path d="M21.24 -0.53 L65.37 2.19 L71.2 1.73 L76.68 6.99 L79.45 20.61 L80.47 64.58 L77.93 75.35 L71.1 78.59 L60.06 81.48 L16.56 82.98 L9.15 80.07 L0.99 75.77 L1.89 63.17 L-1.56 14.06 L3.92 3.31 L12.91 0.7 L19.84 0.78" stroke="none" stroke-width="0" fill="#ced4da"></path><path d="M19.76 0 M19.76 0 C28.09 1.75, 38.13 0.8, 59.29 0 M19.76 0 C32.63 0.06, 46.64 -0.27, 59.29 0 M59.29 0 C74.31 -1.55, 79.75 6.48, 79.06 19.76 M59.29 0 C71.76 -1.68, 77.83 5.62, 79.06 19.76 M79.06 19.76 C77.3 28.43, 80.03 40.5, 79.06 61.73 M79.06 19.76 C79.58 32.42, 79.48 45.09, 79.06 61.73 M79.06 61.73 C77.79 73.64, 72.02 82.42, 59.29 81.5 M79.06 61.73 C79.17 73.12, 73.37 81.91, 59.29 81.5 M59.29 81.5 C45.47 80.43, 33.88 82.54, 19.76 81.5 M59.29 81.5 C47.77 80.78, 35.52 81.49, 19.76 81.5 M19.76 81.5 C4.71 82.92, 0.06 75.05, 0 61.73 M19.76 81.5 C4.56 79.48, 0.39 74.01, 0 61.73 M0 61.73 C0.7 49.98, -1.63 37.3, 0 19.76 M0 61.73 C-0.44 49.87, -1.01 38.8, 0 19.76 M0 19.76 C0.57 7.61, 5.4 -1.81, 19.76 0 M0 19.76 C1.23 6.71, 4.46 -1.37, 19.76 0" stroke="#364fc7" stroke-width="1" fill="none"></path></g><g transform="translate(128.5566494552013 161.55587649024733) rotate(0 55.99068239765447 20.855589752146443)"><text x="0" y="13.85558975214646" font-family="Virgil, Segoe UI Emoji" font-size="16.681316371254063px" fill="#000000" text-anchor="start" style="white-space: pre;" direction="ltr">Frontend</text><text x="0" y="34.71117950429292" font-family="Virgil, Segoe UI Emoji" font-size="16.681316371254063px" fill="#000000" text-anchor="start" style="white-space: pre;" direction="ltr">(html, css, js)</text></g><g transform="translate(438.01098852817654 169.19910521837346) rotate(0 25.7330843775855 12.72515161528952)"><text x="0" y="18.450303230579063" font-family="Virgil, Segoe UI Emoji" font-size="20.36024258446325px" fill="#ffffff" text-anchor="start" style="white-space: pre;" direction="ltr">Java</text></g><g transform="translate(611.7140145106182 173.15208361025748) rotate(0 15.74278466499078 12.880460180447017)"><text x="0" y="18.76092036089402" font-family="Virgil, Segoe UI Emoji" font-size="20.608736288715214px" fill="#000000" text-anchor="start" style="white-space: pre;" direction="ltr">DB</text></g><g transform="translate(626.0618304555107 83.27482547638147) rotate(0 47.09730778863104 14.717908683947257)"><text x="0" y="20.43581736789441" font-family="Virgil, Segoe UI Emoji" font-size="23.548653894315525px" fill="#000000" text-anchor="start" style="white-space: pre;" direction="ltr">Backend</text></g><g stroke-linecap="round" transform="translate(24.233949027164385 154.61700678647412) rotate(0 16.226706095822152 16.226706095822124)"><path d="M11.61 0.86 C14.65 -0.26, 18.28 0.24, 21.46 1.55 C24.64 2.85, 29.05 5.82, 30.7 8.7 C32.35 11.57, 32.22 15.46, 31.36 18.78 C30.51 22.09, 28.23 26.2, 25.58 28.59 C22.93 30.98, 18.83 33.04, 15.46 33.12 C12.1 33.19, 8.1 31.4, 5.41 29.03 C2.73 26.65, -0.09 22.43, -0.65 18.86 C-1.21 15.29, -0.15 10.8, 2.03 7.58 C4.21 4.37, 10.45 0.74, 12.43 -0.41 C14.4 -1.57, 13.85 0.38, 13.87 0.65 M9.26 1.33 C12.04 -0.09, 16.44 0.3, 19.89 1.02 C23.34 1.73, 27.85 2.9, 29.99 5.61 C32.12 8.31, 33.01 13.48, 32.7 17.27 C32.4 21.06, 30.74 25.89, 28.15 28.37 C25.57 30.85, 20.96 31.83, 17.2 32.15 C13.45 32.47, 8.32 32.1, 5.62 30.28 C2.92 28.47, 1.83 24.95, 1 21.25 C0.16 17.55, -0.91 11.33, 0.61 8.06 C2.13 4.79, 8.88 2.81, 10.12 1.62 C11.36 0.44, 8.29 0.48, 8.07 0.95" stroke="none" stroke-width="0" fill="#000000"></path><path d="M15.24 0.74 C18.69 0.39, 23.88 2.1, 26.79 3.91 C29.69 5.71, 31.86 8.14, 32.69 11.56 C33.51 14.98, 33.29 21.32, 31.74 24.43 C30.19 27.53, 26.84 29.04, 23.4 30.18 C19.95 31.32, 14.65 31.96, 11.06 31.27 C7.48 30.58, 3.74 28.88, 1.87 26.07 C0 23.26, -0.76 18.15, -0.16 14.41 C0.44 10.67, 2.18 6.03, 5.46 3.63 C8.74 1.23, 16.41 0.07, 19.54 0.02 C22.66 -0.02, 24.11 2.97, 24.22 3.36 M18.38 -0.27 C21.66 0.09, 27.02 2.04, 29.59 4.53 C32.17 7.02, 33.85 11.03, 33.83 14.65 C33.8 18.27, 31.91 23.53, 29.43 26.26 C26.96 28.99, 22.61 30.44, 18.98 31.04 C15.35 31.64, 10.77 31.47, 7.67 29.85 C4.57 28.23, 1.42 24.66, 0.4 21.34 C-0.63 18.02, 0.51 12.93, 1.5 9.92 C2.49 6.91, 3.53 4.88, 6.34 3.29 C9.15 1.69, 16.25 0.62, 18.36 0.34 C20.46 0.07, 18.85 1.51, 18.96 1.66" stroke="#000000" stroke-width="1" fill="none"></path></g><g stroke-linecap="round" transform="translate(10 200.7350115732345) rotate(0 31.03002111152297 15.942027879797934)"><path d="M9.62 1.57 L57.34 0.36 L62.33 4.46 L62.99 29.19 L61.49 31.24 L52.3 33.88 L6.37 32.82 L-1.37 26.32 L-1.02 6.34 L3.79 1.46 L8.05 0.78" stroke="none" stroke-width="0" fill="#000000"></path><path d="M7.97 0 M7.97 0 C17.74 1.78, 29.21 0.83, 54.09 0 M7.97 0 C23.01 0.12, 39.2 -0.21, 54.09 0 M54.09 0 C61.24 -1.55, 62.75 2.55, 62.06 7.97 M54.09 0 C58.69 -1.68, 60.83 1.69, 62.06 7.97 M62.06 7.97 C60.76 10.47, 62.93 15.69, 62.06 23.91 M62.06 7.97 C62.43 12.61, 62.36 17.27, 62.06 23.91 M62.06 23.91 C60.79 27.95, 58.95 32.8, 54.09 31.88 M62.06 23.91 C62.17 27.44, 60.3 32.29, 54.09 31.88 M54.09 31.88 C38.19 30.77, 24.52 32.88, 7.97 31.88 M54.09 31.88 C40.59 31.11, 26.37 31.82, 7.97 31.88 M7.97 31.88 C0.78 33.3, 0.06 29.36, 0 23.91 M7.97 31.88 C0.63 29.86, 0.39 28.33, 0 23.91 M0 23.91 C0.53 19.73, -1.32 14.8, 0 7.97 M0 23.91 C-0.31 19.34, -0.76 15.41, 0 7.97 M0 7.97 C0.57 3.68, 1.47 -1.81, 7.97 0 M0 7.97 C1.23 2.78, 0.52 -1.37, 7.97 0" stroke="#000000" stroke-width="1" fill="none"></path></g><g stroke-linecap="round"><g transform="translate(275.6764034236591 151.1355711101669) rotate(0 39.544795162095966 1.0360124565927435)"><path d="M-0.01 0.86 C13.43 1.1, 67.18 2.04, 80.57 1.89 M-1.48 0.26 C11.9 0.13, 66.61 0.15, 80.19 0.22" stroke="#1864ab" stroke-width="4" fill="none"></path></g><g transform="translate(275.6764034236591 151.1355711101669) rotate(0 39.544795162095966 1.0360124565927435)"><path d="M53.4 12.2 C61.63 8.78, 66.69 6.43, 82.08 1.65 M51.16 11.31 C57.58 8.49, 64.06 5.53, 79.66 -0.22" stroke="#1864ab" stroke-width="4" fill="none"></path></g><g transform="translate(275.6764034236591 151.1355711101669) rotate(0 39.544795162095966 1.0360124565927435)"><path d="M53.45 -8.32 C61.75 -5.72, 66.79 -2.05, 82.08 1.65 M51.21 -9.21 C57.51 -7.79, 63.98 -6.52, 79.66 -0.22" stroke="#1864ab" stroke-width="4" fill="none"></path></g></g><g stroke-linecap="round"><g transform="translate(346.7503086110395 228.6396817167372) rotate(0 -37.232965328826026 -0.3323810956521811)"><path d="M0.38 -0.93 C-12.17 -1.16, -62.39 -1.93, -74.85 -1.86 M-0.87 1.2 C-13.09 1.14, -60.14 -0.09, -72.54 -0.73" stroke="#1864ab" stroke-width="4" fill="none"></path></g><g transform="translate(346.7503086110395 228.6396817167372) rotate(0 -37.232965328826026 -0.3323810956521811)"><path d="M-45.54 -11.22 C-55.05 -7.16, -62.61 -3.46, -74.1 0.06 M-44.75 -10.64 C-53.43 -7.49, -61.45 -4.31, -71.85 -1.54" stroke="#1864ab" stroke-width="4" fill="none"></path></g><g transform="translate(346.7503086110395 228.6396817167372) rotate(0 -37.232965328826026 -0.3323810956521811)"><path d="M-46.29 9.29 C-55.47 6.34, -62.77 3.04, -74.1 0.06 M-45.5 9.87 C-53.98 6.5, -61.76 3.17, -71.85 -1.54" stroke="#1864ab" stroke-width="4" fill="none"></path></g></g><g stroke-linecap="round"><g transform="translate(545.7229248803364 159.82992305101948) rotate(0 18.200420065540072 0.1889343487601991)"><path d="M1 -1.05 C6.86 -0.66, 28.58 1.05, 34 1.43 M0.07 1.01 C6.42 1.1, 30.37 -0.81, 36.33 -0.54" stroke="#1864ab" stroke-width="4" fill="none"></path></g><g transform="translate(545.7229248803364 159.82992305101948) rotate(0 18.200420065540072 0.1889343487601991)"><path d="M18.63 4.76 C23.92 2.68, 26.96 4.01, 35.72 0.9 M19.4 5.87 C25.63 2.98, 32.22 0.58, 36.1 -0.67" stroke="#1864ab" stroke-width="4" fill="none"></path></g><g transform="translate(545.7229248803364 159.82992305101948) rotate(0 18.200420065540072 0.1889343487601991)"><path d="M18.34 -7.12 C23.59 -6.79, 26.69 -3.04, 35.72 0.9 M19.1 -6.02 C25.49 -4.45, 32.2 -2.41, 36.1 -0.67" stroke="#1864ab" stroke-width="4" fill="none"></path></g></g><g stroke-linecap="round"><g transform="translate(577.8556662332533 199.03521303369985) rotate(0 -15.963549599365649 -0.5867041220208193)"><path d="M1.2 0.32 C-4.27 0.17, -26.5 -1.34, -32.08 -1.49 M0.37 -0.56 C-5.34 -0.54, -27.52 -0.66, -33.13 -0.44" stroke="#1864ab" stroke-width="4" fill="none"></path></g><g transform="translate(577.8556662332533 199.03521303369985) rotate(0 -15.963549599365649 -0.5867041220208193)"><path d="M-17.79 -6.35 C-24.84 -4.43, -29.01 -1.98, -34.4 0.36 M-18.4 -5.65 C-22.36 -4.34, -26.58 -2.77, -32.69 -0.98" stroke="#1864ab" stroke-width="4" fill="none"></path></g><g transform="translate(577.8556662332533 199.03521303369985) rotate(0 -15.963549599365649 -0.5867041220208193)"><path d="M-17.64 4.56 C-24.7 2.55, -28.92 1.07, -34.4 0.36 M-18.26 5.26 C-22.18 3.24, -26.45 1.49, -32.69 -0.98" stroke="#1864ab" stroke-width="4" fill="none"></path></g></g><g transform="translate(281.7547290605088 156.6894687862432) rotate(0 29.078381362678044 9.0243252504863)"><text x="0" y="13.048650500972578" font-family="Virgil, Segoe UI Emoji" font-size="14.438920400778064px" fill="#000000" text-anchor="start" style="white-space: pre;" direction="ltr">Request</text></g><g transform="translate(15.465909667353742 237.08288750872885) rotate(0 25.23268883593026 11.586438751192418)"><text x="0" y="15.172877502384903" font-family="Virgil, Segoe UI Emoji" font-size="18.538302001907937px" fill="#000000" text-anchor="start" style="white-space: pre;" direction="ltr">Client</text></g><g transform="translate(278.8447597075733 233.7168899248577) rotate(0 32.59675240928698 9.283885179860249)"><text x="0" y="13.567770359720452" font-family="Virgil, Segoe UI Emoji" font-size="14.854216287776344px" fill="#000000" text-anchor="start" style="white-space: pre;" direction="ltr">Response</text></g><g transform="translate(283.2920239191013 96.79298673887592) rotate(0 30.42967362653482 13.294517603825852)"><text x="0" y="18.589035207651794" font-family="Virgil, Segoe UI Emoji" font-size="21.271228166121432px" fill="#000000" text-anchor="start" style="white-space: pre;" direction="ltr">HTTP</text></g><g transform="translate(376.0405288220686 23.858201304700287) rotate(0 89.99844586737083 8.267080622472463)"><text x="0" y="12.534161244944954" font-family="Virgil, Segoe UI Emoji" font-size="13.072464963861616px" fill="#ffffff" text-anchor="start" style="white-space: pre;" direction="ltr">WAS(Web Application Server)</text></g><g stroke-opacity="0.3" fill-opacity="0.3" stroke-linecap="round" transform="translate(61.26496184818416 474.24994913736896) rotate(0 1237.4999237060542 653.4090423583983)"><path d="M-0.21 1.07 L2475.23 -1.2 L2475.81 1307.77 L0.04 1305.07" stroke="none" stroke-width="0" fill="#fab005"></path><path d="M0.62 -0.21 C966.78 7.05, 1934.08 7.25, 2474.27 -0.54 M0.16 0.05 C586.66 -0.56, 1172.85 -0.46, 2475.1 0.22 M2474.42 0.05 C2469.93 516.97, 2470.08 1034.54, 2474.83 1306.54 M2474.76 0.4 C2472.22 295.82, 2472.5 592.04, 2474.64 1306.64 M2474.71 1306.02 C1612.1 1298.55, 747.63 1297.77, -0.05 1306.3 M2474.85 1307.01 C1878.99 1308.87, 1283.46 1309.18, 0.25 1307.06 M0.51 1307.38 C-2.79 991.84, -3.38 676.49, 0.27 0.61 M0.3 1307.05 C-0.77 917.15, -0.29 527.63, 0.17 0.05" stroke="#000000" stroke-width="2" fill="none"></path></g><g stroke-linecap="round" transform="translate(131.7193685864654 605.3106129964185) rotate(0 176.13639831542957 537.4999618530271)"><path d="M-1.37 0.78 L351.56 -1.83 L353.85 1075.37 L-0.45 1073.17" stroke="none" stroke-width="0" fill="#4c6ef5"></path><path d="M0.34 -0.85 C116.59 0.52, 236.61 0.34, 352.54 -0.23 M0.57 -0.17 C87.91 -1.65, 174.74 -1.07, 352.74 0.2 M352.39 -0.46 C351.86 297.6, 352.73 596.09, 351.68 1075.49 M352.35 0.24 C351.43 333.98, 351.52 667.78, 352.08 1075.08 M352.72 1074.08 C257.05 1075.35, 163.95 1073.4, -1.2 1075.82 M352.54 1074.94 C239.23 1075.95, 124.92 1075.22, 0.03 1074.9 M0.77 1075.63 C-3.61 734.01, -4.03 394.43, 0.64 -0.05 M0.06 1074.89 C2.91 684.14, 3.27 293.83, 0.19 -0.02" stroke="#000000" stroke-width="2" fill="none"></path></g><g stroke-linecap="round" transform="translate(2172.628639826699 1014.4014943440748) rotate(0 173.863525390625 154.54540252685547)"><path d="M1.18 -0.82 L347.64 -1.78 L349.28 308.18 L-1.72 309.64" stroke="none" stroke-width="0" fill="#ced4da"></path><path d="M-0.45 0.43 C106.89 1.4, 212.02 1.9, 348.32 -1.22 M-0.19 0.07 C109.21 -1.14, 219 -0.93, 347.33 0.09 M346.52 0.83 C348.36 88.74, 348.82 179.02, 347.63 308.52 M347.23 -0.21 C346.5 112.8, 346.77 226.19, 348.26 308.85 M348.82 308.73 C230.15 307.01, 115.13 307.93, -0.46 309.13 M348.27 308.72 C238.92 310.73, 129.46 310.52, 0.29 308.66 M0.23 307.9 C-2.17 202.49, -2.05 96.28, 0.25 1.27 M0.04 309.66 C-2.6 231.17, -2.66 153.61, 0.53 -0.41" stroke="#000000" stroke-width="2" fill="none"></path></g><g transform="translate(2263.992165217324 1114.0833333333326) rotate(0 84.44441053602418 69.09088134765625)"><text x="0" y="96.1817626953123" font-family="Virgil, Segoe UI Emoji" font-size="110.5454101562498px" fill="#000000" text-anchor="start" style="white-space: pre;" direction="ltr">DB</text></g><g transform="translate(149.44672454349666 1044.992604573567) rotate(0 158.22740173339844 56.509786333356715)"><text x="0" y="79.01957266671323" font-family="Virgil, Segoe UI Emoji" font-size="90.41565813337063px" fill="#ffff" text-anchor="start" style="white-space: pre;" direction="ltr">Servlet</text></g><g stroke-linecap="round"><g transform="translate(453.18025346175864 288.3351855883477) rotate(0 5.019589164926344 108.69517768805486)"><path d="M-0.82 -0.43 C0.97 35.91, 9.17 181.65, 10.86 218.17 M0.95 -1.7 C2.65 34.73, 9.15 182.21, 10.37 219.09" stroke="#000000" stroke-width="4" fill="none"></path></g><g transform="translate(453.18025346175864 288.3351855883477) rotate(0 5.019589164926344 108.69517768805486)"><path d="M-1.71 192.77 C0.61 198.93, 4.93 207.99, 9.37 219.16 M-0.59 191.26 C4.7 202.68, 7.59 212.53, 10.3 219.92" stroke="#000000" stroke-width="4" fill="none"></path></g><g transform="translate(453.18025346175864 288.3351855883477) rotate(0 5.019589164926344 108.69517768805486)"><path d="M18.79 191.97 C14.77 198.23, 12.73 207.54, 9.37 219.16 M19.92 190.45 C17.04 202.25, 11.75 212.42, 10.3 219.92" stroke="#000000" stroke-width="4" fill="none"></path></g></g><g stroke-linecap="round" transform="translate(524.9011312817781 614.4014943440748) rotate(0 157.95463562011707 537.4999618530271)"><path d="M-0.12 1.91 L316.07 -1.15 L315.24 1074.57 L1.35 1076.77" stroke="none" stroke-width="0" fill="#fa5252"></path><path d="M-0.74 1.07 C125.54 -1.53, 250.82 -1.56, 314.79 -0.48 M-0.47 -0.05 C89.96 0.24, 181.17 0.78, 316.2 -0.7 M316.02 -0.1 C320.12 396.97, 319.79 794.67, 316.08 1074.85 M315.76 0.24 C318.5 412.67, 317.79 826.05, 315.88 1074.63 M316.81 1075.18 C235.11 1075.76, 153.44 1075.65, -1.28 1076.38 M315.3 1074.84 C202.44 1076.77, 89.13 1076.84, 0.53 1074.4 M0.57 1075.4 C-0.67 671.06, 0.13 268.8, -0.42 0.41 M-0.01 1075.3 C3.25 825.37, 3.1 575.38, 0.26 0.03" stroke="#000000" stroke-width="2" fill="none"></path></g><g transform="translate(515.3558431958404 1056.3559773763013) rotate(0 163.97057233537907 43.97678185240056)"><text x="0" y="61.95356370480107" font-family="Virgil, Segoe UI Emoji" font-size="69.44909650692937px" fill="#ffff" text-anchor="start" style="white-space: pre;" direction="ltr">Controller</text></g><g stroke-linecap="round" transform="translate(893.0831991528714 614.4015706380201) rotate(0 163.63632202148426 537.4999618530271)"><path d="M0.55 -0.74 L326.25 -1.42 L325.62 1074.22 L-1.46 1074.19" stroke="none" stroke-width="0" fill="#fa5252"></path><path d="M0.43 0.07 C70.5 1.22, 138.72 1.22, 327.42 -0.2 M-0.46 0.52 C122.03 0.21, 243.38 0.11, 326.74 0.52 M327.5 -0.45 C330.27 319.05, 330.6 637.01, 328.04 1075.06 M327.54 0.35 C325.84 260.8, 325.51 522.02, 327.16 1075.08 M326.61 1075.52 C207 1075.75, 84.32 1075.8, 0.04 1073.99 M327.94 1075.33 C230.78 1073.07, 133.97 1074.1, 0.65 1075.62 M-0.48 1074.94 C0.27 674.68, 0.9 273.66, 0.62 -0.25 M-0.38 1075.35 C-4.37 713.35, -4.27 351.74, 0.12 -0.04" stroke="#000000" stroke-width="2" fill="none"></path></g><g stroke-linecap="round" transform="translate(1279.4470297192777 609.856129964192) rotate(0 139.77264404296864 537.4999618530271)"><path d="M-0.75 1.36 L279.53 1.77 L279.31 1075.87 L1.24 1074.8" stroke="none" stroke-width="0" fill="#fa5252"></path><path d="M-0.1 -1 C94.51 1.34, 191.22 0.65, 280.28 -0.72 M0.49 0.46 C60.22 0.54, 121.77 0.58, 280.08 0.24 M279.81 0.61 C277.73 396.24, 276.96 792.88, 280.02 1074.8 M279.72 0.05 C283.61 323.6, 283.7 646.53, 279.71 1075.19 M279.29 1075.99 C194.83 1075.52, 111.45 1073.82, -1.4 1074.89 M280.07 1074.95 C184.23 1075.32, 89.77 1074.61, -0.53 1075.15 M-0.39 1074.2 C-0.19 691.84, -0.28 309.71, -0.28 0.54 M0.39 1074.81 C-1.28 801.25, -1.28 526.82, -0.26 -0.04" stroke="#000000" stroke-width="2" fill="none"></path></g><g transform="translate(903.9918600415433 1056.356129964192) rotate(0 141.5982959105238 52.772796630859375)"><text x="0" y="75.54559326171884" font-family="Virgil, Segoe UI Emoji" font-size="83.63991785691506px" fill="#ffff" text-anchor="start" style="white-space: pre;" direction="ltr">Service</text></g><g transform="translate(1301.7192159985746 1090.4470113118482) rotate(0 125.22735595703125 31.229538152247187)"><text x="0" y="44.4590763044946" font-family="Virgil, Segoe UI Emoji" font-size="49.49587993288089px" fill="#ffff" text-anchor="start" style="white-space: pre;" direction="ltr">Repository</text></g><g stroke-linecap="round"><g transform="translate(1992.5359436236217 1058.1064636866586) rotate(0 78.21064519695938 -0.4138694042294446)"><path d="M0.6 -0.77 C26.59 -0.76, 130.75 -0.23, 156.97 -0.28 M-0.55 1.45 C25.16 1.09, 129.49 -2.03, 155.81 -2.27" stroke="#000000" stroke-width="4" fill="none"></path></g><g transform="translate(1992.5359436236217 1058.1064636866586) rotate(0 78.21064519695938 -0.4138694042294446)"><path d="M126.56 7.91 C139.04 5.12, 148.49 0.68, 157.25 -2.87 M127.68 9.14 C139.07 5.29, 149.27 -0.31, 155.58 -1.84" stroke="#000000" stroke-width="4" fill="none"></path></g><g transform="translate(1992.5359436236217 1058.1064636866586) rotate(0 78.21064519695938 -0.4138694042294446)"><path d="M126.14 -12.61 C138.73 -7.5, 148.35 -4.04, 157.25 -2.87 M127.25 -11.38 C138.68 -7.62, 149.03 -5.61, 155.58 -1.84" stroke="#000000" stroke-width="4" fill="none"></path></g></g><g stroke-linecap="round"><g transform="translate(2152.1739279126364 1214.1254848413573) rotate(0 -83.94603173097084 -3.188407945246581)"><path d="M-1.08 -1.15 C-28.79 -2.45, -139.63 -6.41, -167.21 -7.23 M0.56 0.86 C-27.28 -0.31, -140.47 -4.33, -168.45 -5.79" stroke="#000000" stroke-width="4" fill="none"></path></g><g transform="translate(2152.1739279126364 1214.1254848413573) rotate(0 -83.94603173097084 -3.188407945246581)"><path d="M-141.77 -15.75 C-146.45 -12.92, -150.88 -13.06, -169.26 -4.16 M-139.11 -14.23 C-146.24 -13.91, -151.66 -10.18, -168.33 -4.8" stroke="#000000" stroke-width="4" fill="none"></path></g><g transform="translate(2152.1739279126364 1214.1254848413573) rotate(0 -83.94603173097084 -3.188407945246581)"><path d="M-142.64 4.75 C-147.23 3.03, -151.46 -1.67, -169.26 -4.16 M-139.98 6.27 C-146.85 2.16, -152.08 1.47, -168.33 -4.8" stroke="#000000" stroke-width="4" fill="none"></path></g></g><g stroke-linecap="round"><g transform="translate(458.99216521732455 962.1287740071607) rotate(0 45.98006881873124 1.4618839732045217)"><path d="M0.5 0.75 C15.36 1.29, 75.18 2.54, 90.27 2.82 M-0.69 0.1 C14.46 0.31, 77.47 0.37, 92.65 0.99" stroke="#000000" stroke-width="4" fill="none"></path></g><g transform="translate(458.99216521732455 962.1287740071607) rotate(0 45.98006881873124 1.4618839732045217)"><path d="M65.54 9.69 C76.41 7.05, 86.93 2.1, 91.52 0.37 M64.59 10.44 C74.07 7.51, 84.06 4.19, 92.58 1.71" stroke="#000000" stroke-width="4" fill="none"></path></g><g transform="translate(458.99216521732455 962.1287740071607) rotate(0 45.98006881873124 1.4618839732045217)"><path d="M65.9 -10.83 C76.56 -5.39, 86.93 -2.26, 91.52 0.37 M64.95 -10.08 C74.44 -5.97, 84.3 -2.26, 92.58 1.71" stroke="#000000" stroke-width="4" fill="none"></path></g></g><g stroke-linecap="round"><g transform="translate(545.3558431958402 1362.1287740071607) rotate(0 -58.90538127210459 -1.8394663260457946)"><path d="M0.4 0.35 C-19.09 -0.01, -97.86 -1.56, -117.58 -2.03 M-0.85 -0.51 C-20.38 -1.26, -98.59 -3.91, -118.21 -4.03" stroke="#000000" stroke-width="4" fill="none"></path></g><g transform="translate(545.3558431958402 1362.1287740071607) rotate(0 -58.90538127210459 -1.8394663260457946)"><path d="M-89.21 -12.65 C-96.31 -10.78, -103.95 -7.33, -116.72 -4.23 M-90.05 -13.64 C-97.93 -10.98, -104.9 -9.81, -118.12 -4.39" stroke="#000000" stroke-width="4" fill="none"></path></g><g transform="translate(545.3558431958402 1362.1287740071607) rotate(0 -58.90538127210459 -1.8394663260457946)"><path d="M-89.67 7.86 C-96.67 4.74, -104.2 3.2, -116.72 -4.23 M-90.51 6.88 C-98.12 4.32, -104.97 0.29, -118.12 -4.39" stroke="#000000" stroke-width="4" fill="none"></path></g></g><g stroke-linecap="round"><g transform="translate(804.4467245434962 957.5832570393873) rotate(0 67.44142030245627 3.236491016298487)"><path d="M0.7 -1.1 C23.03 0.06, 110.73 6.1, 133.09 7.57 M-0.4 0.94 C22.37 1.7, 112.8 5.03, 135.28 5.85" stroke="#ffff" stroke-width="4" fill="none"></path></g><g transform="translate(804.4467245434962 957.5832570393873) rotate(0 67.44142030245627 3.236491016298487)"><path d="M104.9 13.41 C114.39 14.12, 121.09 11.44, 136.98 7.33 M106.55 14.37 C114.52 13.4, 121.32 11.27, 135.9 5.47" stroke="#ffff" stroke-width="4" fill="none"></path></g><g transform="translate(804.4467245434962 957.5832570393873) rotate(0 67.44142030245627 3.236491016298487)"><path d="M105.65 -7.1 C115.09 -1.75, 121.61 0.21, 136.98 7.33 M107.3 -6.14 C115.25 -1.53, 121.84 1.93, 135.9 5.47" stroke="#ffff" stroke-width="4" fill="none"></path></g></g><g stroke-linecap="round"><g transform="translate(961.2648092602931 1350.765096028645) rotate(0 -76.97042423029427 -1.0696099181241152)"><path d="M-0.32 0.65 C-26.05 0.31, -129.14 -0.65, -154.65 -1.22 M1.72 -0.05 C-24.16 -0.78, -129.77 -2.52, -155.66 -2.79" stroke="#ffff" stroke-width="4" fill="none"></path></g><g transform="translate(961.2648092602931 1350.765096028645) rotate(0 -76.97042423029427 -1.0696099181241152)"><path d="M-126.24 -12.83 C-133.42 -8.12, -143.87 -7.24, -157.58 -1.94 M-126.49 -11.96 C-133.72 -10.27, -139.53 -8.08, -155.16 -3.54" stroke="#ffff" stroke-width="4" fill="none"></path></g><g transform="translate(961.2648092602931 1350.765096028645) rotate(0 -76.97042423029427 -1.0696099181241152)"><path d="M-126.53 7.69 C-133.77 6.67, -144.14 1.82, -157.58 -1.94 M-126.79 8.56 C-133.79 5.52, -139.53 2.96, -155.16 -3.54" stroke="#ffff" stroke-width="4" fill="none"></path></g></g><g stroke-linecap="round"><g transform="translate(1179.4467245434962 962.1287740071607) rotate(0 70.14248569627762 -0.504022704316867)"><path d="M0.1 -0.46 C23.6 -0.44, 118.24 0.73, 141.58 0.85 M-1.3 -1.75 C22.04 -2.12, 116.99 -1.4, 140.99 -0.83" stroke="#ffff" stroke-width="4" fill="none"></path></g><g transform="translate(1179.4467245434962 962.1287740071607) rotate(0 70.14248569627762 -0.504022704316867)"><path d="M111.89 10.16 C124.02 4.33, 133.01 2.32, 139.62 -0.97 M113.54 9.32 C120.77 6.69, 127.26 3.65, 141.89 -1.16" stroke="#ffff" stroke-width="4" fill="none"></path></g><g transform="translate(1179.4467245434962 962.1287740071607) rotate(0 70.14248569627762 -0.504022704316867)"><path d="M112.18 -10.36 C124.33 -8.94, 133.21 -3.7, 139.62 -0.97 M113.83 -11.2 C120.81 -8.47, 127.22 -6.14, 141.89 -1.16" stroke="#ffff" stroke-width="4" fill="none"></path></g></g><g stroke-linecap="round"><g transform="translate(1363.5374533032618 1316.6742146809888) rotate(0 -96.97365004534367 0.47926387553093264)"><path d="M0.74 0.43 C-31.69 0.35, -161.41 0.01, -193.55 -0.12 M-0.33 -0.39 C-33.04 -0.31, -162.69 1.16, -194.69 1.35" stroke="#ffff" stroke-width="4" fill="none"></path></g><g transform="translate(1363.5374533032618 1316.6742146809888) rotate(0 -96.97365004534367 0.47926387553093264)"><path d="M-165.87 -9.77 C-177.66 -3.11, -189 -0.76, -195.85 0.34 M-167.44 -8.94 C-173.88 -6.54, -179.44 -4.67, -194.55 1.76" stroke="#ffff" stroke-width="4" fill="none"></path></g><g transform="translate(1363.5374533032618 1316.6742146809888) rotate(0 -96.97365004534367 0.47926387553093264)"><path d="M-165.69 10.75 C-177.61 9.45, -189.02 3.85, -195.85 0.34 M-167.26 11.58 C-173.7 9.36, -179.3 6.62, -194.55 1.76" stroke="#ffff" stroke-width="4" fill="none"></path></g></g><g stroke-linecap="round" transform="translate(1670.3556906079493 957.5832570393873) rotate(0 162.49999999999977 222.72731781005837)"><path d="M1.41 -0.71 L323.73 -0.52 L325.94 444.98 L0.63 443.63" stroke="none" stroke-width="0" fill="#be4bdb"></path><path d="M-0.26 0.02 C104.87 -0.56, 210.29 -0.66, 324.41 1.29 M-0.39 -0.18 C101.41 0.24, 202.12 -0.01, 324.85 0.48 M324.31 -0.06 C325.55 149.3, 325.54 299.74, 324.19 445.87 M324.94 0.31 C325.1 102.86, 324.43 206.33, 324.84 445.55 M324.66 444.46 C230.08 443.45, 136.48 445.01, -1.02 444.76 M324.54 445.62 C247.6 446.94, 171.13 446.21, -0.28 445.45 M-0.15 444.58 C1.15 291.34, 1.85 136.79, 0.65 -0.72 M-0.21 445.8 C1.22 319.19, 1.19 192.48, -0.47 0.39" stroke="#000000" stroke-width="4" fill="none"></path></g><g transform="translate(1692.8559957837306 1137.719655354817) rotate(0 139 47)"><text x="0" y="65" font-family="Virgil, Segoe UI Emoji" font-size="74.18176269531249px" fill="#ffff" text-anchor="start" style="white-space: pre;" direction="ltr">Mybatis</text></g><g stroke-linecap="round"><g transform="translate(1552.1739279126368 1084.8559773763013) rotate(0 68.47543896064167 -3.0257166348396822)"><path d="M-0.25 -0.42 C22.7 -1.25, 114.53 -4.82, 137.2 -5.63 M1.82 -1.69 C24.73 -2.36, 114.55 -4.22, 136.69 -4.66" stroke="#ffff" stroke-width="4" fill="none"></path></g><g transform="translate(1552.1739279126368 1084.8559773763013) rotate(0 68.47543896064167 -3.0257166348396822)"><path d="M108.02 7.57 C114.19 2.43, 121.99 2.53, 136.8 -2.99 M109.53 5.8 C118.02 3.61, 126.96 -0.69, 136.51 -3.72" stroke="#ffff" stroke-width="4" fill="none"></path></g><g transform="translate(1552.1739279126368 1084.8559773763013) rotate(0 68.47543896064167 -3.0257166348396822)"><path d="M107.6 -12.94 C113.77 -12.8, 121.68 -7.4, 136.8 -2.99 M109.11 -14.72 C117.61 -10.48, 126.68 -8.37, 136.51 -3.72" stroke="#ffff" stroke-width="4" fill="none"></path></g></g><g stroke-linecap="round"><g transform="translate(1727.1739279126368 1309.8559773763013) rotate(0 -94.99650971185883 1.4093308210790383)"><path d="M-0.27 0.71 C-32.29 1.34, -159.91 2.44, -191.79 2.78 M1.79 0.04 C-29.89 0.4, -157.13 0.82, -189.53 0.93" stroke="#ffff" stroke-width="4" fill="none"></path></g><g transform="translate(1727.1739279126368 1309.8559773763013) rotate(0 -94.99650971185883 1.4093308210790383)"><path d="M-160.2 -10.89 C-169.92 -7.11, -179.25 -2.03, -188.31 1.57 M-161.5 -10.37 C-166.34 -7.47, -172.65 -6.11, -190.31 0.7" stroke="#ffff" stroke-width="4" fill="none"></path></g><g transform="translate(1727.1739279126368 1309.8559773763013) rotate(0 -94.99650971185883 1.4093308210790383)"><path d="M-160.13 9.63 C-169.7 6.63, -179.06 4.94, -188.31 1.57 M-161.43 10.15 C-166.31 8.93, -172.63 6.18, -190.31 0.7" stroke="#ffff" stroke-width="4" fill="none"></path></g></g><g transform="translate(2236.416278173053 500.74999999999955) rotate(0 130.1818033854163 40.68181355794263)"><text x="0" y="56.36362711588524" font-family="Virgil, Segoe UI Emoji" font-size="65.09090169270819px" fill="#000000" text-anchor="start" style="white-space: pre;" direction="ltr">Backend</text></g><g stroke-opacity="0.8" fill-opacity="0.8" transform="translate(1857.0225607251368 550.1439208984368) rotate(0 106.16671752929688 48.257598876953125)"><text x="0" y="67.51519775390626" font-family="Virgil, Segoe UI Emoji" font-size="77.21215820312499px" fill="#000000" text-anchor="start" style="white-space: pre;" direction="ltr">Spring</text></g></svg>