<svg version="1.1" xmlns="http://www.w3.org/2000/svg" viewBox="0 0 2749.932471439949 2171.335010952933" width="8249.797414319848" height="6514.005032858799">
  <!-- svg-source:excalidraw -->
  <!-- payload-type:application/vnd.excalidraw+json --><!-- payload-version:2 --><!-- payload-start -->eyJ2ZXJzaW9uIjoiMSIsImVuY29kaW5nIjoiYnN0cmluZyIsImNvbXByZXNzZWQiOnRydWUsImVuY29kZWQiOiJ4nOV9WW8jWXbme/5cbiH9Ylx1MDAwM6Xre+5+XHUwMDFixlx1MDAxOFJq37dcdTAwMTQlTVx1MDAxOVx1MDAwMkVRXHUwMDEyXHUwMDE3kUwu2lx1MDAxYVx1MDAwNdRg6qExU3BcdTAwMWJcdTAwMWWXXcZUXHUwMDFiZaBcctuAXHJcdTAwMTfcXuqh/YdKyv/gc1wilWJwiVCIXHUwMDE0lSE1USUpyWDwMuJ853xnvT9/NTb2unlZy7/+2djr/EUuWy5cdTAwMWPWs+evP6Pnz/L1RqFawZdE8O9GtVXPXHUwMDA1R540m7XGz/7wXHUwMDBm2+9guerph3fly/nTfKXZwOP+J/57bOznwc/Q59TzuWa2clxczlx1MDAwN29cYl5qf1x1MDAxNEjR/exKtVx1MDAxMnwsWOm1XHUwMDEyUtq7I1xujSn8vGb+XHUwMDEwXz7Kllx1MDAxYvn2K/TU69WTpcNcdTAwMDOZy+VW3OLVTul8RlxcwU77Y49cbuXyZvOy/OFLZXMnrXpoUY1mvVrKZ1xuh81cdTAwMTP69K7n797XqOIlaL+rXm1cdTAwMWSfVPKNRsd7qrVsrtC8pOc4v3v2w1X42Vj7mVx1MDAwYvyX4Z5cdMWNllx1MDAwMELg9717ld4vwDOPXHUwMDBmp6xcdTAwMDJcdTAwMDHcq66FvamWq3Va2O/x4NFe2kE2VzrG9VVcdTAwMGXvjmnWs5VGLVvHO9Y+7vz2K2thmDRSO6OEtlx1MDAwZdp35iRfOD5p0iHOMXBgrcVbXHUwMDAzXHUwMDFjTHsx+eCuOC1cdTAwMTR+XHUwMDBm6+9eoFx1MDAxNdTmXHUwMDBmXHUwMDAzXHUwMDAx+ZPui3qSrdduL97rXHUwMDA2/SO0elr4dEi62m9u1Vx1MDAwZbNcdTAwMWaEXHUwMDAwjNbGOa5cdTAwMDVA+8KUXHUwMDBilVx1MDAxMr5YaZXL7eequVJbboJnv/isv8A281x1MDAxN82+sspdlKxcdTAwMWHPuXAu9LXvXHUwMDEz1am9Wmm6OXNZaFZKO5vi0kyr/WzaRVx1MDAxNW97IIzSeaOckq5TVIVjkqTDXGLjUZqFXHUwMDFlmajip/RcbqdU3dJcYtpcdTAwMTinuVA63eLYvu3VSnOzcEVXXriOZ2eyp4UyXeW2elxi5Fx1MDAxNFday17SqlixXHUwMDExXm+2kcdcdTAwMGZcdTAwMGXOZDveMlEuXHUwMDFjkzi/LuePOuW8WUD9fvdys1x1MDAxYTpdXHUwMDBll5DF09XnXHUwMDBmu79KtV44LlSy5a0+y1x1MDAxOVxiZ3jxonDmQVx1MDAxOGmtSI6zwnlmx1x1MDAxZlx1MDAxNFx1MDAxNiabXHUwMDE3XCIzV3V7mbPGYtpxZpRhnnuurVx1MDAwMVx1MDAwYs7qTpx5zrjSXG5thpVOuO51PVx1MDAxZcyEMr0wXHUwMDBireZcdTAwMTZmXHUwMDAyrTjdXHUwMDE0XHUwMDBlj1x1MDAwZrPbXHUwMDE32uJcdTAwMTO6t1x1MDAwYqbVnGqenlx1MDAxN1b4xf5C8SpzVarKu3N1yFq2Xq+ev7575Yvbv9JcdTAwMDPim//47qd//+exozJd5amt1c8rv49PXf/w3ftvvr/+5uux99/880+/+ff3f/rjXHUwMDFm9MW4cVx1MDAxZGdcdTAwMWM1xlx1MDAxZrDawVRcdTAwMDC33c9+VFx1MDAwMUqjeVx1MDAwMeWSs8KViclGsVRd3Lw8L1x1MDAxZE3PbparXHUwMDEz2Xr6VVx1MDAwMDItaYRcdTAwMDfNpeemTcZcdTAwMDL5scBcdTAwMTT3XHUwMDAwzmghlbSjM7VcdHVcdTAwMDBcdTAwMTJcdTAwMDIk7FJ9XHUwMDAy4qefXGakP/3nl91if/3Lr2+++erm239KXHUwMDFmSFx1MDAxZrDaXHUwMDAx7TSPXHUwMDAyKVgtlXD2XHUwMDAxvtvm1vnk4ltcdTAwMDPL+mD8Yreaw09d2k47Sr1cdTAwMDamOXgnyVx1MDAwMkLo61x1MDAwNlx1MDAwMqQsU1x1MDAxZSz5blp7K0dcdTAwMDZSgD4g7eXDwqA7qXRIuT6Jna5vrL2pXHUwMDFjz25cdTAwMTVa58ZuXU1sXHUwMDFjrExcdTAwMTRcdTAwMWbVTj+dXG44qFZLiKU0XHUwMDEw7Y9LiVx1MDAwNW9s9MWp7ifviLbTWmng7Vx1MDAwYnBcdTAwMWZ+XHUwMDE3jmu5RmNqTV2NbzSn+MXbd1x1MDAxM2fHqcev1Fxmv6VcdTAwMTfCa6FVl5GVimkj0f7iTy65N13rekT8Ks3w/M5cdTAwMGJpNPrO7ct+h2YjmPbccZD48EqELtItuFx1MDAxZGiQyrXf+yTgrk3nSo1cdTAwMDNfOFB7S8fj88vVyc3dq09cdTAwMDbuWCx8+Pw+OIBcdTAwMTDH6aabQoGwJrnDXHUwMDE5r+xSilx1MDAwM+DWMmuE1ZrCjE51XHUwMDA2IaWRXGZcdTAwMDXPWWSlaM1GRzalUVxmiaT2XHUwMDBlKb7mfWAgmFx1MDAwMIe01yirvfBWyG5cdTAwMWNcdTAwMDC5zMpbM0DQJ1jqU1PRRjNbb05cdTAwMTYqh4XKMb7YxtjH4Pp8XHUwMDAyglx1MDAxNFiuXFyLVjnOXHUwMDE5qjSOV1x1MDAwMFx1MDAxZHOPasF6XHUwMDE3Ouw4W1x1MDAwYu44XHUwMDEzXHUwMDA27zqKt9SWK6Nuj/jibl35ymF7VZ1fJNtovqmenlx1MDAxNpp4XHTWqoVKs/uI4DtNXHUwMDEw3k7y2Vx1MDAxZUuGZ1x1MDAwZb/WXHLMXHUwMDFhnbFT8bT/XHUwMDFha4tu8I+7v//ks75HR4lcdTAwMTQ9eoWpfbZX4d+PXHUwMDE4KrZaoW3F/1x1MDAxMmuU4/L+gZ1drjbczkpptZI5182DXFzqNYryilnpNFxun7d43TtjxZIr5lx1MDAwMMi0oueo+Vxi/VfXXlhcZjWWgcNiYFx1MDAwNNYzPeT1MI9XqYnyMVx1MDAxM/iE84dpoLG9i1x1MDAxYVxmcqF0Q7c3Kjx49FZdcite3bu43HyXmVxcn92pVfGNeWhcdTAwMTQuUo85XHKeoWpcdTAwMDFcdTAwMDPOWlx1MDAwZapcdTAwMGJzxjPlXHUwMDFjeMutwktcIkaHOZksPWM1mihl+Fx1MDAxM1PWidPdknizXZ6Y02uFyalyvnqoW8/UXHUwMDFmredcdTAwMTE6lTThuWtFsWCO905l95N3gEbfVEikqcnDS8WVhepW6yw/f1qsXCJvqU4vXqyn3j1F55M5KS0gS1NSu87wkkDOboizU+RJ8VBSrFx1MDAxYs85L7JcIjtcdTAwMDSeLTAhXGbKtrWO41raXHUwMDBiuYO3XHUwMDA3hpZcdTAwMWV1j5POSe17ebkmtYT2flx1MDAwNFmiJ3MhY1x1MDAwNdZHhlPQd1xulqGTx1OyxerewczFuVvN8vmT5ZU1+66Yelx1MDAwYmSEY0JcdTAwMTkvvUeJXGZcdTAwMTerfMhaXHUwMDE4Jjw3Vlx1MDAxODBGiuh4XG6S9qOcXHUwMDFkhvRcdTAwMTmGny/BeS7Roe3jSFr0kixiRzqQVoVcdTAwMTNcdTAwMTe38ooqxljr/Vxialx1MDAwN+KM03kzXzibe3v89mByzbdcdTAwMTY3T2bE/OUzi6dcYlx1MDAxZc3FlDdcdTAwMWO4lcn9n/grklIkeDBcZoVKOi7Aa99cdTAwMTVaVMKij6443Vx1MDAxNGuRXHUwMDAxRVd1XHJcdTAwMGJcdTAwMDXpPDNcdTAwMTIhR4U7oHmIJt9hXHUwMDAxXHUwMDE4R+OCi5XOIHRFyNB8XGYucsKCXHUwMDExg1C1NFx1MDAwN1XitexYO6jCmdJK4mVwyIw9d0KEXHUwMDBlulxyqTCLN1ugrlx1MDAxN2CFwst4e0RESCVqTcXSTnZzkVx1MDAxZuZ2TutT5f3D9UzTXfVb0zjVgSh0rVxyrkpyXHLQJ9Djglx1MDAwNFx1MDAxNd179MhRXHUwMDFm9i7qWUVzXCKlmVx1MDAxZeO9gtw+4avw7yiVdlRHef9YXHUwMDEyXHUwMDFivNLWaiaSj+JcdTAwMTXW2rpcdTAwMDf4l+et8+ONwuq0KW5cdTAwMWVlKitz81ene1tp12koQYJJqfDaKiG8ha58XHRwvDd4d1x1MDAxMFwi6NeFgfv4RVx0TGpcXFx1MDAwMt5ocJJC9H1cYikqYI1cdTAwMWHWXHUwMDBirijx2eN+em+sRzBcdTAwMGbARz+JSntUII1rpGLSS2k0506HUtf0XGJw5Oj6oo+u8I6ae89cdTAwMDfAjDJcdTAwMTbNhHGg0fR1INMyhd/aXHUwMDA30Wa6a/b+81kqNVXaU1rdoE7tXFygYV5R+FqjXHUwMDA2NFbLe88nXHUwMDAw+Vx1MDAxZSpcdTAwMDdcXKCwPlTdTFx1MDAwZqFpfaDJP7FcdTAwMWPEnZaMOZ+kXHUwMDBiqCVyeiM56qPw+aRgaCEsujz4w3GTYHmRXHUwMDEyTVx1MDAwZqVcdTAwMTiyaoW+ICVcdTAwMDfxxSHPp1x1MDAwNcOb7yj2St/Y+SHPZ1x1MDAwNK2PK490Wim8jsNdPuPw8lx1MDAwMd4ji1x1MDAxNtVxn2B5yObBXHUwMDAyOEW3XHUwMDE3zUOHtKCjLDzyMM+F0KBcdTAwMWNcZil9XHUwMDBl2YBxXHUwMDFhsYxfVyp1/9dcdTAwMDV05Fx1MDAxZHglgcRCtrO3welcdTAwMTQyXHUwMDA3adFCS1x1MDAwM9xcdTAwMTl9/+kks0ZRni5Qb+3QWnA6i5/FkYJ4LfDyJcFaLHY9aVx1MDAwM1ReXHUwMDA0NJ/o4nGGSHLGSo7L4LydXVxyTifwVmlKVHNDxjrBxYs/n0RgK1Co4VFA7f2y4plcdTAwMTaeMmSU9VJGdFxcPK+YkCSZnjiEtfevzjGFd09zS/V4eDc6gNFjhO49XaApXHUwMDE1XHUwMDE1rVx1MDAwM2XmtNSf6Hyvus6bhCdcdTAwMTZOW2U0d2t1tJNEWX421qy3Qlx1MDAxNuz2+Vx1MDAwZjYylohFhfltJFx0Q7NqXHI5l8k9y5nGanb/6PDNeHVxo3KRqfmjq2Yh9SxMXG7k9NSCgdpcdTAwMWJFz3VWhytOXVx1MDAxOGjD0FezxkRcdTAwMTeHXHUwMDBm7Vi2XHRVXFyMXHUwMDFm1TiXgHB7OMt6Pom1QipcIu+Fe6Lt+XK5UGv0j7VHXHUwMDA2bFBcdTAwMTXipTSQPNR+Xjy5ens1J/Nrk5NHXHUwMDFiam55anr6KvWoQi3IKFwiI1GC0Dq4Lt9GK3zVckMpK49HjS5gg7aJgfFIXHUwMDE2XHUwMDEwwWi9oU/AxkoyyVx1MDAxZSmFUE7xnnCNQlNEXHUwMDAxiE/Q9/Ro0cVcdTAwMThpXHKXu/ZE2pVBoqd9cl88Pt6SVnmVgD6Btlx1MDAxNI1cdTAwMTKWolx1MDAxZJ3ySkKEfFxcO6JtSms7Mnm1nHxcdGKiXHUwMDE02tehNFS7dtEgwVXIvbknXG5cdTAwMDeuW16FlZLqXHUwMDFln7iBaIhY+2dx501XgjlcdTAwMTZlkTF87SMhZrxcdTAwMDRJJXaJIVx1MDAxNn9BUlx1MDAwYrEg2Ii2XHUwMDBm3VxuyX1X+lWhS4wuNDqCXHUwMDFjkWZMdDnFsFxiXHUwMDAzXHUwMDA1XGb9XHUwMDFmZ8E75PCh2rJ2XHUwMDA0P3BcYiU5aVpJdGB6O7OFQM344qpcIlx1MDAxM1x1MDAwN8s5XHUwMDAzSVxyk+hke+ohUzrkg9/Gysn3Q8tcdNZcdTAwMWItuTRcdTAwMWajXlx1MDAwZlxm4MdcdTAwMTdcdTAwMGaNdVx1MDAwNPA1ZVa4JyUtUHn2xu8tQ93oQSvP0ctFut+zpudcdTAwMTS/j1x1MDAxNGV6jPdKcft8r8K/XHUwMDA34Fxm0cl5jdZcdTAwMTHN6Vx1MDAwM3pcdTAwMWRap++abzP+vFQ62Z14l989ni9drqRenSmnUWFcdLCgrJUhz/BDQaZkqCHwZYpcdTAwMTJIVFx1MDAxNJHqbNhqXHUwMDEyVKVIcFx1MDAxZELM48fwPqViylDAh1vgVCogfVx1MDAwZl9cdTAwMDAhkaE77Z6YMLwpbCydvs1PzKn13ZP5i8NcdTAwMGKtT+wzM+wmsmvPoK5C0VDJXHUwMDAzKPFcdTAwMWTYKVx1MDAwNVx1MDAwMtJU5lx1MDAwNFx1MDAxN8hEhbOofzuAQKUjXHUwMDAyfSrKcoEwKtqsXHUwMDBmjVx1MDAwM2/Rp3TOXHUwMDA0LSZKQZ+ASmdCk9RmXHUwMDFmV49cdTAwMGKjXHUwMDA36b1Ps12Pn9tcdTAwMTC2oXiJXHUwMDFj2mxwQGlJ5SBU4v8xMy9cdTAwMTmZdSU0RZ4l1/dk5p9vs0OkSNFjvFeaXHUwMDFlaF+jorIyst1cdTAwMDGQtnjeIbj31l6b2nptYedwr36+Z3d3aqW1lcvVtCtcdTAwMTWQwqDHjZfW24Bqd41xMpop66RVxjtvuIzOjVx1MDAwZq1WXHUwMDEyxWXR8OJNsTrlXHUwMDExovZd/51cZsvq6IpSJ3TgoyTHlVx1MDAxMkfLpYo4aS5cdTAwMWZcdTAwMTRPXHUwMDBmssdLy7NH6WetXHUwMDFm2FwiuW7C4qO7XHUwMDA2Wlx1MDAwYqa40DZIhCBcdTAwMWZ0I8PVbZZWcKlQdXrTp6ZUO3QgpePouaCjLXxPXFxcdTAwMTZpr+JcdTAwMDZcZk857Fx1MDAwNmOWOtJcbqAvp1x1MDAwNNXbJFx1MDAxNtZ4pp1aYXWOaYuOXHRaXHUwMDAxqi3uTFwiXGLjiFpqQENcdTAwMDBUXHUwMDA2XHUwMDEwPVx1MDAxMGJYYVx1MDAwNS9QWoNcdTAwMWVQabgx/ao+KY3orOaKKlx1MDAwNbhcdJusu6pPj1x1MDAwNFjaQdysNJDLblx1MDAxZXY/7Yz37MfC4SQqdNNKXHUwMDA2uVx1MDAwNid5qEDkrvKS5vNYRWNQUCh6XHUwMDFibJ9cdTAwMTOzjFx1MDAxNih69IrSI1x1MDAxMUtcdTAwMWaZ6MFPXG7KLdqieZ9KqeUnXG7Ft7x5NHu0dXAhXHUwMDE39rd211Kf7TeGWoAslS5cdTAwMTmD8tTZ0ocyyNBcdTAwMTJcdTAwMDE67ZzytKNr6Vx1MDAwYpVcdTAwMTbHpvuN4EhxNYzAwN2JVOqnUFxmx1pr2UYjXznO11MyZ6ZjPVx1MDAwMzKDyHFuRKdcdTAwMTRp0eQwjr3VKYWxk6Q+lUSaiu4wdMZejZRMXHUwMDFir6htymnno2t2hkaxpMiqQqskaFx1MDAxNoIxfcZGXHSpXHUwMDE5SrxXkiviuj2ZJKSvSjo/0Ky3NLCCKNtcdTAwMWZvXHUwMDFmOmy/5j5cdTAwMTgmoT3VNqlQ8epdJkl6aZxUXHUwMDFj76rg5mPB7lx1MDAwMzNJ8UOVOpZE9bI0WVx1MDAwMnBN4LVRPWtcdTAwMDImXHJFJtBcdTAwMDHBQ2W/kVx1MDAxZs+KkUTKMj3Ge8T4kVx1MDAxOImKVmXI9sgtT6zJrmTWTWXe1Fx1MDAwYsuoWVx1MDAxN7Lr4248U029JvOOXHUwMDFh29BcdTAwMTOnQVRWdLo4NEPceS01oFx1MDAwZiRccoxOlSVcdTAwMGJzXHQuhNFcdTAwMTCevZdKh3s4xnBUSlx1MDAwM0/AVcRcIip+I4BoXFw5KkuX4Sq3+4C1OzmzVlx1MDAxMov18W1/MDm3UJO10503g1x1MDAwMau7zm90wNLAyKhI9GlcdTAwMWNlaTtcdTAwMGK6vPBcZimCMTR5X1g1Qo6AaGFcdTAwMDZ9XHT8LIRPeNJcXLu3ilx1MDAwNlR7651Auo8r6uVcYtQ5XHUwMDA06Fx1MDAxMPJ0424gXHUwMDEzICA63cFpXHUwMDE26INcdTAwMWH9y7lcdTAwMWF/e3Z4Nr5xvLkul7NbdnpcdTAwMDfSblx1MDAwNahI1XqD1s6BUaarvdk5xVx1MDAxY1xujpXUkGNigrLDXG6rVYpRm1x1MDAwZVx1MDAxYVx1MDAxYyNduEo5VFx1MDAxYWVcdTAwMTnKqPA03U6H2j3a48tRir01KVx1MDAxN9V+Jlx1MDAwMs/AUOK8ovnr+Eeo4HfITVx1MDAwM1x1MDAwMHjEVXtcdTAwMTZ7XGJcdTAwMDCP3FdcdTAwMDZcdTAwMTkjlaHK5Fx1MDAxZadu7pmzXSGbs++mzounuXy9eCDSjlCgjWNcdTAwMTR3NNhcdTAwMGW0M7qzTYRcdTAwMTLhXGa5M6C1QT3uZHSB8PBDXHUwMDFk+0xgU32CzeAowVx1MDAxMqo8ejY4lCYp7pKNYFx1MDAwYqWHn9NcYrbosnxL1YtWi+TR2vnljb3CZrn4Zl9M8b2dXFxjY6s2IId7QtDRsEmvqfmSupOl6MxWUtlcdTAwMWFcdTAwMWFG1NZCa6FcXHRcdTAwMTHA0Fxy8r5PZKdcdTAwMTdzoCR60Mr5XHUwMDE3jblcdTAwMDQz0p5cdTAwMThwXHUwMDBmmZFcdTAwMTaJtnZcdTAwMDFzL9o8ur3mXHUwMDAxJm5qbm9mszG1Kzdm52Rpob5Q3Er/eDSk2YyKnJw21FmiO1x1MDAwYvmAXHUwMDFi6llHaVPeoSsywvHdksaIXHUwMDFiSVOU0YPz/YbxXHUwMDFix7hcdGbWaVxiypu7oejIb5BcXD9DJGpDdcVcbiizra2AxMCkXHT2+83sQTgkXHUwMDEwXHUwMDAyJd7ezmv2tCBccq1uIIC6SHxcbm6Fe1hcdTAwMDfNXHUwMDFins00d1rGZVx1MDAwZcs6v5XZWtGNt2lcdTAwMDcofk9mtOc8KPj3wnRmL1HcXHUwMDA1U4hMoUUwu2F05rDfgJh+XHUwMDE0lKrNqer3+YEwuTls5LPNldbpQb6eXHUwMDA2U1x1MDAxOFrNYGZQRDaqXHRHnVx1MDAwZUokj8VcdTAwMWPA0Vx1MDAxMpzu7rvmrjrL8vrS+ZvcbtpRZlxmTbRcdTAwMDBPw1x1MDAwZW3H/INcdTAwMGbv15yhW6XQUpJz5UdcdTAwMTeM0Y5TMEZpKn9cdTAwMDXgfWqOrGOOSylcZo1cdTAwMDGi8Xg9jFRSXHUwMDEzgnL8XHUwMDE5RmOMZp7KfaxcdTAwMGIqgEMhiKRcdTAwMTn/XHUwMDE4Y2hk15V76ohM51x1MDAxMlx1MDAwN8Nq9M6OxtIwi1x1MDAwN+xcdTAwMTeVrbiy3z7JZU5LMNmcyPqJy1Yz7VB1XHUwMDEwIIQjUoTlPe4hKOqlVlx1MDAwMv8ntJro+sChXHKi7Vx1MDAwM85eg4jaU1xubT6FPTRDgjG5PbxcdTAwMTPtLVx1MDAxMt9cdTAwMTSYxM5cdTAwMDVccmhcdTAwMTWjU1x1MDAxNMBpY237gGLchcbE3OV0vr5uXHUwMDE3Vs/ra2fbXHUwMDBiy83U76CIaphZgZROUZk82C7uKTg6jzSSS1x1MDAwMVx1MDAxZuWu2lx0o5/AafJcdTAwMTdXoZn9L1x1MDAxOWpL2UZzJXuaLrjdLWogyPnIyVQgXHUwMDE1SMpPJS9ccsnqRd86VfmNk6v9TEFZuHSQ+t1cdTAwMTCRXaL5Qlx1MDAxYWp9XHUwMDEwkulcIqJU/k5I5FxiPVx1MDAwZWKE2yHKftuD94t+OtRcdTAwMGXgtfidwNxMoZ5C0LVXNZih45GUUoOgkFpy0PGTKt88WHFL2fqpv9o+qcqLxfSDXHUwMDBlXHUwMDE0XHUwMDEz6PZZ42iSZ1d/XHUwMDE0oMfAlFx1MDAxM+RUeeO1XHUwMDE5XVx1MDAxMFS5ZClcdTAwMDePXozGn79cdTAwMWKcclxy/6hV6ylcbrhELW0w+MWUwkiqSOBcdTAwMGbx6VbGT5dO4fzdyeXsYX1iOjPzRq7up1x1MDAxZIBcdTAwMWWJpFx1MDAxM9JZQa3VvLNsXHUwMDBiPTrPVDD4XHUwMDE4XHUwMDEwftqOLvpcdTAwMTKm/HH4QzxcYiPNyyaaXHUwMDE0u09Hqu92JVx1MDAwM6Ireodtb6lcdTAwMTZQQvKM+lvbfLey4N9tN482yvXL4vnG3HI27ehcdTAwMTJaM9pMhoYxW1x1MDAxYeHQuaVcZkjLXHUwMDE5t1pTxaRcdTAwMTJ2hGUsifGFVN8q6160fXte+IqvPI5cdTAwMDFcdTAwMTlcdTAwMDVcdTAwMDe08T55XHUwMDA2QW9cdTAwMTQqczvly/X1/XnQhf3SeuZCpb30XHUwMDE4XTL0zDx4XHUwMDAzXHUwMDAwNDq0O4VgXHUwMDA0XHUwMDAzYzztXUpTsUc3XHUwMDEzh4bqXHTjXHUwMDE1WImQ9qLfzk2KXHUwMDFiJo3FxYClks+e4mOJLlx1MDAxZMVPR+DW3b7Qt1x1MDAwN1x1MDAxMVx1MDAxNjeW54r1pao+WXq30FpcdTAwMTNcdTAwMDfbJ5m7c3VcYuSAPYhcdTAwMGbB9zCAiM6oUcst2p1cdTAwMDc4VdXZs7fz2Uxxx03UNuuN+r6tTkVNc+lcdTAwMTLsT1x1MDAwNVx1MDAwN7ziTHDaXHUwMDAxQ1x1MDAwNkXFXZSOU11cdTAwMDKnclx1MDAwZrpcdTAwMWPeRldxXHI7+FFcdTAwMWLJPFx1MDAxN9Jz0Pg5uk/Li0L7XHUwMDE37GBcdTAwMDZG0KhX3VxyXHUwMDA2XHUwMDA1XHUwMDA0Iz+Kqso4MFxcTtrDg5VMK7+wslx1MDAwN7WZ4tlpa6+ZXGZcZp/FnXdtbtnWl9b3yrOt3bP98atcdTAwMDVxXFycTifI4lx1MDAwNlx1MDAxOPPo6apUzM7RqUjuNq3DVF2sZJvzlcO92dU8ZObPtyvphlx1MDAxOF5nmrUpXHUwMDE1aG6pxryzgVx1MDAwMGQwKkPTVlwimoa/REJM57zih0OwOi+ZlLS1XHUwMDE59Wo62690XHUwMDBiXHUwMDExZrRB20dbXGLTrlx1MDAxYj1cdTAwMDaHW4tK8Vx1MDAxM5RuPYWw+mhZtZxcdTAwMTSkdMn50fRKa30t41x1MDAxNlx1MDAxN3dW9mbn3ug3xVa1lG5ZdVYzJEdcXGllyVx1MDAxY3Qlklx1MDAxNKd+YIeOvra+Y5zgY8uqQJomXHUwMDFjRVx1MDAxOah/Qag+/ojxjFx1MDAxYXKcwVXRXHUwMDE0T9ErqoZcXMdPUV7xaLJcdTAwMWE4XHUwMDFhfbVqZFx1MDAwZqGnXHKvw1x1MDAxNSn3yelJdbVxVtncXFz3XHUwMDEzm8XN1bXpwuzueLrlVKF4WEdcdTAwMWJcdTAwMTZpyZWypltOUXq801Y7XHUwMDE0XHUwMDAw57p9+MeTU2VcdTAwMDUz6E+gZldSdfjs7SlcdTAwMDPRtZ13M16dR6dDXGbSQjjsmIGBXHUwMDFj6cTDh0Y5XrLjtUftt4++q/TovZ/t871cbv9cdTAwMWXMJVx0adWejkvucElSJbdBxSPYXl3PNN9ljndOttZzq1x1MDAwYs5MpFx1MDAxYtvAQVx1MDAwNrPlNPm2UtuuNFx1MDAwZuKegVNSKmG48Xp0YWZ0yZm13KJcdTAwMTKhvkvVr8jPMG8taKCdnnnvxougnENnRZpcdTAwMTGEoON8XHUwMDA3Z5ZcdTAwMTZcdTAwMTey+7uTmcrB7FxunFf3V2bkI/gkQzj+L8XXiSyKiOaOtM9cdTAwMGV1JyZcdTAwMGZgb0NmPbtU3t+uzG2Mr/rL3W2YjJo2nVx1MDAxYdwqy1x1MDAwNDrpXHUwMDE0KXBW+i7cOlx1MDAwZejhU6OYd1xuRjguXHUwMDAz+lx1MDAwMVX1lN9cdTAwMWGhJULTvuiKiJ/+9Yeb7797/823P/34Q/9cdTAwMTC273jPqEPYXHUwMDFk64mFWeSALVx1MDAxOSpe7mk20cor7Vx1MDAxZTA/I15Rplx1MDAxM2jIXHUwMDEzaVx1MDAxY1x1MDAxMFolKb1cYldcdTAwMTd9XHUwMDAwXHUwMDFhIPtVxtCGrFx1MDAwMo+NNpDDXHUwMDA27ZRcdTAwMDRmlaE5XspcIlx1MDAxNeqzXHUwMDFmkpTopdG4WlxuYfuOrWNuvTQ8XHUwMDAxenuDNIOlgfpGbtZcdTAwMTJLvMY6dzb3gtRcIu1cdTAwMWWoXHUwMDFjqsfeXHUwMDE5W1x1MDAxMu/3XUW85nfbpr60oe6RXHUwMDAyRY/xXHUwMDFlWXog747MPbvI2dOCXHUwMDAzXHUwMDEyP1x1MDAxNyah9+aey9V8ZrN8UCzNzI9fmjkpikdT6dYoKFdcZl1cdTAwMTkwaFxyXHUwMDFkWeeuzDNcdTAwMDKGWaFpxKulXfg+efea4U7SXHUwMDBl0S/adlx1MDAxZlx1MDAwNT3TM9l6KqpcdTAwMThDq4lcdTAwMDVZTHTVRo94N15Qx5ZKXHUwMDBls7PSRa3ot2dcdTAwMTdn/fzU+ULhcme+wdNccjOQjoZcdTAwMTdarywodF15l+G2jqKvXGJDS1NuQs1+3ShzRuR9blxihsxoMqehabqetpruw5ejXHUwMDBm+ejZokPjXGaolNd+XGZkXHUwMDEwRPRcdTAwMGVatHkjXHUwMDA1XHUwMDFjXHUwMDFmMMRVL7bM5klmunQ87a9y55mLcuky5YIqUFx1MDAxMGl3LCeUVs6prviqttSGqbmiXHUwMDFk45WJXHUwMDE21KHbLIPJPqhcdTAwMTlsUMrXb+ZcdTAwMTWaJi7AXHUwMDEze6LqXHUwMDE16CGYYISTtJFtynNW/YyFlVxmNSOSXHUwMDFlR110oSH6iUxHTIulhair9nS2JEl7ZXyoNHrPXHUwMDEwq7hcdTAwMDcndfKIy/FcZtLKVlb606nxbbO4ND69XFxJe6SUWiw9R8mwXHUwMDFjLE3E7YKp18xIoyXV7II10bRtWIOiNTBJ3ia6J9I72YfE4UtMW6pcclx1MDAwNoSGU6LHolxiIaVcdTAwMTEjsSh3jkKf0KOd3MstNqZna+VTU96eNTtufWcznaHHyJhcYqjIwj6k7FxcoXuZ3GDF17OkXHUwMDEzXHRCXHUwMDE4XHUwMDE2lHpLXHUwMDFhXHUwMDFh2t1cdTAwMTmCXlx1MDAwNdOoXHUwMDExaL9sapNcdTAwMTldROS2htc6iWZRKlx1MDAwZn1cdTAwMTLXt6NCXHUwMDA0KnaEgbA9SVx1MDAwM5o1KkG9tJBIfHncWHjCt5RWXHUwMDBiyT2qLmShbf9vrL1VLNDWXHUwMDFjNEzFXHUwMDE5JKgvNSBcdTAwMTItT/RcdTAwMTjvXHUwMDExpfb5XoV/P2IuQ1wiI0RG5ZPXXHUwMDE3zO/PzFxcLezZ7eyU21TV1tXF3kLK61x1MDAwYmiGXHUwMDE2XHUwMDAzTrPFuFTh8f/BgGKJtMxcdTAwMWF0jmjGSMwsn6G1SbLRXHUwMDA1KCTaKfk70ts5tbVcbn057adqLlx1MDAwYlx1MDAxNjRcdTAwMTDMwlx1MDAxYjF3j271NLCQu+RcdTAwMDR24V12tlx1MDAwMHJ7KbNy0pqZ2Jp/O1Uxz1x1MDAwMGZcbpW4cLRTmJJd9WacK+bIqnugTcxddL3ZXHUwMDEzIVxyrPamoyvghSNNpFxyaWLQISGRvdM0JERIXHUwMDAxXHUwMDBmqKrZKV9MNq9yXHUwMDEzXHUwMDEzuVx1MDAwYqnnLlx1MDAxYierXHUwMDA3M2mPPWrq3bRCeu1cdTAwMWN46J5YwK1hynLJqbRGQEzfy1x1MDAxM0HNcY+OrXEpr958PKjJtEFNXHUwMDBlOFx1MDAwYjIyKINyh3zdqOSuqFx1MDAxOXeHUzOuKneuMqK5YqqZQiWqxSwtQDOgmFx1MDAxNd5KZb1SXSF+UMAohKzRd6FcIpjRcUfTp1x1MDAxMrVPXCJNo/p76dSRMZZcdTAwMDZs0TJcdTAwMDYzXiamtExTnarXyTG1uHCoi9XjKdG4mF5vzc/BmpZRXHUwMDEzrtKCKeE9M4arIJRcdTAwMWZcdTAwMGX7XHUwMDA2W3CgO0b90Mp79MjCcf7HxlQ4ilx1MDAxNlNZJr1cdTAwMDMrxcs2Xdli9uL6b79cdTAwMWL76Yfvrn/z1djN91/e/M3f/XFcdTAwMWFqzFwiVlx1MDAxNlx1MDAwYr3IyGq4LbfbnDm8z+BcdTAwMWbQaVx1MDAxMV89m0roaeFo21x1MDAxNWu9dbTPUac5U8YxLWkrXFzqXnB6dN3Smlx1MDAxYmaoXHSLqkdtv5H/kjaIMcQwvFx1MDAxMUgyfY+xk6hHyHl7pl1cdTAwMTZRcdX4Pvyxjp1cdTAwMTNpO1x1MDAxOLqTklx1MDAwYkn1gaGjPu6c2JX3vz3ggbs5PqT8jfa9N/jQxlx1MDAwM96htnsw1rf8TVx1MDAxOehZ03NcbulGSTI9emW4fbZX4d9cdTAwMDNkiFwip1x1MDAxN1x0SiFcbvOAotn4lFkq9ZgxioFG+u29lsb7LkWWvGZ22FSp1Jz8cE1ZUmpk77eNl0ClijpDXHR82fYmSiWqXHUwMDE1zVx1MDAwN1x1MDAxYbuSZj1cdTAwMTafge/QY1pz2oXB6uBn24uKUGNcbpyL12PPNkFcdTAwMTQpTvToXHUwMDE2pEdTJtH5ISE17YX6gPmf8a0/qVQmZKaYpi0qXHUwMDA1XnJcdTAwMTFcdTAwMWW/8qHwQtCcNM41OGmVUtGTmoZcdTAwMWWbwdDjUZ72ofVcdTAwMWOloI82iUlJf8w30y6bg41JS7M+SZxvRlx1MDAwZWK01Ghu0Vx1MDAxZaN+5z6Eoo9cbmXEPIi6XHUwMDAwNFJpiUjleDNDnVx1MDAxMndr6LjZ4KGXmz0nzVx1MDAxNSm69OhcdTAwMTXaXHUwMDA36q7oWv/I9loqgzNcdTAwMTReSKy6XHUwMDE2c/XS8tz2TmN8Nze5697yRnVtLeWqS1jPKIdFW1orXHLQVSpjvGHCWY06XGZpUPTc4qFbh/p1yvdcdKVYLaj59kXHJ++a4q7/8d9uvvpu7P03313/6y9u/urP0lx1MDAxNFW5f5FcdTAwMDPhUbjI+FxuOOuoXFzrXHUwMDAxpWubmz5b3LxcdTAwMWPnp++Wi/NurVg99ucpXHUwMDA3pJXAaFxiUlBXg1x1MDAwZWBcdTAwMGYgXHUwMDA1s9xcdTAwMDLtP+yoXCIqXHUwMDEyksNcdTAwMTZbO9NnXHUwMDAyXHUwMDFkhGrp7pLgNthcXMe96LGqa1x1MDAxZjNhaFx1MDAxMLOXU1ur13/327Hrv//6+v/9+uYvXHRcdTAwMDGfVz5cdTAwMDZcdTAwMWHLhUZz7P3XX1//6rfX//Lj+69+6D50rJg9y9KR119R4+tPv/n+88pP//ljz3uy9FF0tuDYXHUwMDFm/v/Nr77+vNJcdTAwMTf84T3Tn1x1MDAwMv3puVx1MDAxYVx1MDAwM3osXHUwMDEwrWa48TbYly2xmjmbPZtdOXuzX1x1MDAwMr+WmT3kp6XTg6WUq1x1MDAxOS9cdTAwMDSj8VVcbmhcdTAwMTdU2d2cb1xydVx1MDAxYVx1MDAxOE3j91DbjE7LdNI+2S/8oSRcdTAwMTMgJapEaaV3vb1Hzlx0Y2Cg1v00OCyfZlxczlx1MDAxM5J52Vx1MDAxOYXouZ+PxeVtzGhBZPKWtrtJXGbqnbM9LnOmuDG+zye2rF2ptmbSXj9njWPGIU93gC4jYrtcdTAwMDPV6MhcdTAwMDLzgN49KD/Stl3Tb0OE8C60t3tsXHR0vz7NhndtPTNq4kDWXHJpMVx1MDAxObrAaH05toQ27I/WQpU1/1x1MDAwM83b55Wjav36n368+e63gX375dfX3//6/Z9/eWsjpybb1Jqo9v/9NVx1MDAxYuvLXHUwMDA0QvzsKYjAXGK/3WD+g4xcdTAwMGVFXG50Zp18wOZfbytLJ3vzKyc2n7lwJ621XHUwMDFkPXlcYilXXHUwMDAx2jvmaOpcdTAwMGU3tFx1MDAxZiPvNOxCXG5cdTAwMWH6qbzXNGp6hCpcdTAwMDDA9XFcdTAwMWZ6PXpU2t47LT7FplxmT6dcdTAwMDSIXGaPNVq5XHUwMDFjrpxcdTAwMDCAXHUwMDE2Pn/Bio3a2PW3f3b9f/5i7ObbX9x88183//t/3XyFzPdPv7351b/d/P2XdCj+df3LvyZHXHUwMDFiXHUwMDBme//NP9z84ts0+P+P/I1cdTAwMDaj8U5EgVx1MDAxZIzVXuuHXHUwMDE4/KlNkT+/XFw9cafLMy1Ynm+IjfOddKNdcO6YddRcdTAwMTBtwTjRWS8vhNBMXHUwMDE4mkdnwChcdTAwMTXT8Dks2vts9GdcdTAwMTWjeZyc0+xcdTAwMDIuQlx1MDAwNdd3yFx1MDAwN1xyXHUwMDAyV/VcdOovXHUwMDA2Qv7Lp+1cdTAwMWRH99zAKJr+6vZ8r7O12mZcdTAwMTOv9uuPXHSQ12eF/Plkryz93lHwINRcdTAwMDeYJ3Dl6Uv8/ItXX/w3M+QoXHUwMDAyIn0=<!-- payload-end -->
  <defs>
    <style>
      @font-face {
        font-family: "Virgil";
        src: url("https://excalidraw.com/Virgil.woff2");
      }
      @font-face {
        font-family: "Cascadia";
        src: url("https://excalidraw.com/Cascadia.woff2");
      }
    </style>
  </defs>
  <g stroke-linecap="round" transform="translate(567.3261139034015 10) rotate(0 263.1817932128906 294.0908889770508)"><path d="M-0.22 0.26 C198.93 1.57, 398.24 1.84, 526.08 -0.44 M-0.33 0.08 C180.19 -0.58, 360.7 -0.69, 526.64 0.2 M525.79 -0.5 C524.36 118.97, 525.2 237.99, 527.01 587.97 M525.99 -0.03 C524.66 171.93, 524.23 344.28, 526.25 588.02 M525.74 588.05 C411.25 586.91, 297.55 587.73, -0.15 587.75 M526.63 588.55 C368.76 587.39, 210.52 586.8, -0.3 587.91 M0.22 587.67 C2.26 462.69, 2.45 337.39, 0.15 -0.67 M-0.14 588.47 C1.36 410.57, 1.93 232.5, -0.29 -0.24" stroke="#000000" stroke-width="1" fill="none"></path></g><g transform="translate(738.085399756022 18.318191528320312) rotate(0 90.5 17)"><text x="0" y="27" font-family="Cascadia, Segoe UI Emoji" font-size="28px" fill="#000000" text-anchor="start" style="white-space: pre;" direction="ltr">payment.jsp</text></g><g transform="translate(604.9945184083657 80.04545593261719) rotate(0 123 37.5)"><text x="0" y="30.5" font-family="Cascadia, Segoe UI Emoji" font-size="28px" fill="#000000" text-anchor="start" style="white-space: pre;" direction="ltr">출국 flightDTO</text><text x="0" y="68" font-family="Cascadia, Segoe UI Emoji" font-size="28px" fill="#000000" text-anchor="start" style="white-space: pre;" direction="ltr">(출발할때 항공편)</text></g><g transform="translate(606.2217522950845 161.4091339111328) rotate(0 123 37.5)"><text x="0" y="30.5" font-family="Cascadia, Segoe UI Emoji" font-size="28px" fill="#000000" text-anchor="start" style="white-space: pre;" direction="ltr">귀국 flightDTO</text><text x="0" y="68" font-family="Cascadia, Segoe UI Emoji" font-size="28px" fill="#000000" text-anchor="start" style="white-space: pre;" direction="ltr">(돌아올때 항공편)</text></g><g transform="translate(909.5874441188919 137.49180000438633) rotate(0 58.00000000000006 17)"><text x="0" y="27" font-family="Cascadia, Segoe UI Emoji" font-size="28px" fill="#000000" text-anchor="start" style="white-space: pre;" direction="ltr">bookDTO</text></g><g stroke-linecap="round" transform="translate(893.5963837437203 124.56351882182003) rotate(0 72.54844618297665 31.295400666697105)"><path d="M-0.98 -1.86 C52.81 0.58, 106.8 -0.84, 145.25 1.79 M0 0 C35.25 -1.16, 71.49 -0.99, 144.26 0.57 M145.19 1.87 C143.58 13.72, 144.62 28.22, 146.67 62.77 M145.97 0.56 C146.03 21.74, 146.18 43.43, 145.23 61.75 M145.49 62.02 C107.74 59.49, 74.46 61.02, 1.48 63.17 M144.75 61.73 C95.78 61.59, 48.37 63.13, -0.48 62.24 M0.36 60.69 C-1.71 40.66, -0.22 16.97, 1.25 -1.33 M0.16 62.68 C1.51 43.55, 1.03 25.07, 0.82 0.27" stroke="#000000" stroke-width="1" fill="none"></path></g><g stroke-linecap="round"><g transform="translate(1035.8482165324626 153.01389174663404) rotate(0 182.1842287747712 1.6029199694185081)"><path d="M0.34 1.05 C61.12 1.31, 304.67 2.35, 365.32 2.65 M-0.95 0.56 C59.68 0.96, 304.02 0.71, 364.72 0.75" stroke="#000000" stroke-width="1" fill="none"></path></g><g transform="translate(1035.8482165324626 153.01389174663404) rotate(0 182.1842287747712 1.6029199694185081)"><path d="M338.28 12.14 C347.11 6.64, 357.36 2.23, 364.98 -0.92 M336.73 10.73 C342.53 7.88, 350.64 6.12, 365.46 1.04" stroke="#000000" stroke-width="1" fill="none"></path></g><g transform="translate(1035.8482165324626 153.01389174663404) rotate(0 182.1842287747712 1.6029199694185081)"><path d="M338.28 -8.38 C347.29 -6.64, 357.55 -3.81, 364.98 -0.92 M336.73 -9.79 C342.7 -7.6, 350.82 -4.31, 365.46 1.04" stroke="#000000" stroke-width="1" fill="none"></path></g></g><g transform="translate(1452.824040688682 94.81105095523958) rotate(0 140 17)"><text x="0" y="27" font-family="Cascadia, Segoe UI Emoji" font-size="28px" fill="#000000" text-anchor="start" style="white-space: pre;" direction="ltr">departureFlightId</text></g><g transform="translate(1477.6706226681931 159.48821233308024) rotate(0 115.5 17)"><text x="0" y="27" font-family="Cascadia, Segoe UI Emoji" font-size="28px" fill="#000000" text-anchor="start" style="white-space: pre;" direction="ltr">returnFlightId</text></g><g stroke-linecap="round" transform="translate(593.9191732055369 67.66277297219199) rotate(0 135.61340288902073 45.99475841941796)"><path d="M-0.18 -0.71 C94.09 -2.61, 188.98 -0.76, 272.39 -0.03 M-0.59 -0.63 C64.15 2.13, 127.89 2.01, 271.4 0.32 M270.33 0.8 C273.39 32.01, 273.6 66.97, 269.75 91.6 M271.79 -0.85 C271.32 33.56, 270.17 67.99, 270.56 91.34 M270.85 91.43 C199.8 94.24, 132.86 93.39, -0.7 91.09 M270.81 92.74 C195.58 91.74, 120.72 91.41, -0.13 92.04 M-1.59 92.95 C2.16 69.93, 1.7 48.94, -0.51 1.59 M0.55 92.39 C0.62 57.27, -0.97 22.21, -0.47 -0.82" stroke="#c92a2a" stroke-width="1" fill="none"></path></g><g stroke-linecap="round" transform="translate(586.3324007251877 166.29068787542167) rotate(0 143.20015945170616 35.088786906871746)"><path d="M-0.98 -0.64 C72.69 2.7, 144.78 0.9, 284.92 0.46 M-0.44 -0.17 C112.22 0.83, 223.99 1.69, 286.12 0.12 M286.52 -1.44 C284.44 24.93, 284.64 46.95, 287.74 69.09 M287.19 0.78 C286.39 24.45, 286.57 48.68, 287.36 70.19 M285.16 70.17 C218.71 69.14, 150.25 69.51, -0.75 71.38 M286.4 69.97 C185.41 71.96, 84.41 71.82, -0.14 69.82 M-0.15 68.61 C-0.47 51.52, -0.81 30.16, 0.6 0.86 M-0.92 69.34 C-0.87 53.18, 0.41 35.85, -0.69 0.24" stroke="#364fc7" stroke-width="1" fill="none"></path></g><g stroke-linecap="round"><g transform="translate(874.4348410107724 217.1040709465351) rotate(0 194.7023428059128 -0.5546436910057366)"><path d="M0.86 -1.1 C65.67 -1.13, 324.93 -0.41, 389.55 -0.31 M-0.15 0.93 C64.44 0.58, 323.38 -1.46, 388.56 -2.04" stroke="#364fc7" stroke-width="1" fill="none"></path></g><g transform="translate(874.4348410107724 217.1040709465351) rotate(0 194.7023428059128 -0.5546436910057366)"><path d="M358.61 8.31 C371.78 2.71, 381.56 -0.84, 387.1 -3.81 M359.85 9.36 C368.29 4.73, 377.03 2.78, 388.6 -1.54" stroke="#364fc7" stroke-width="1" fill="none"></path></g><g transform="translate(874.4348410107724 217.1040709465351) rotate(0 194.7023428059128 -0.5546436910057366)"><path d="M358.44 -12.21 C371.64 -10.46, 381.48 -6.66, 387.1 -3.81 M359.68 -11.16 C368.26 -9.79, 377.05 -5.73, 388.6 -1.54" stroke="#364fc7" stroke-width="1" fill="none"></path></g></g><g transform="translate(1450.4203242141493 100.63639326500021) rotate(0 -12.176146915916206 48.17527960213107)" stroke="none"><path fill="#000000" d="M 0.83,1.31 Q 0.83,1.31 -2.52,3.41 -5.88,5.51 -8.99,9.01 -12.11,12.50 -14.33,16.36 -16.56,20.22 -18.11,23.95 -19.67,27.69 -20.62,32.53 -21.56,37.37 -21.98,41.85 -22.39,46.33 -22.57,50.97 -22.75,55.61 -22.52,59.35 -22.30,63.10 -21.31,67.03 -20.32,70.97 -19.31,73.53 -18.30,76.08 -17.26,78.39 -16.22,80.70 -15.19,82.56 -14.17,84.42 -13.10,86.10 -12.04,87.79 -11.22,88.72 -10.40,89.64 -9.47,90.90 -8.55,92.16 -7.53,93.29 -6.51,94.43 -6.28,94.67 -6.04,94.91 -5.89,95.21 -5.74,95.51 -5.70,95.84 -5.65,96.17 -5.72,96.50 -5.78,96.83 -5.95,97.13 -6.11,97.42 -6.37,97.64 -6.62,97.86 -6.92,98.00 -7.23,98.13 -7.57,98.15 -7.90,98.18 -8.23,98.10 -8.55,98.02 -8.84,97.84 -9.12,97.65 -9.33,97.39 -9.54,97.13 -9.65,96.81 -9.77,96.50 -9.78,96.16 -9.78,95.83 -9.69,95.51 -9.59,95.18 -9.39,94.91 -9.19,94.64 -8.92,94.45 -8.65,94.25 -8.32,94.15 -8.00,94.05 -7.67,94.07 -7.33,94.08 -7.02,94.19 -6.70,94.31 -6.44,94.52 -6.18,94.73 -6.00,95.01 -5.82,95.30 -5.74,95.62 -5.66,95.95 -5.69,96.28 -5.72,96.62 -5.85,96.93 -5.98,97.24 -6.21,97.49 -6.43,97.73 -6.73,97.90 -7.02,98.06 -7.35,98.13 -7.68,98.19 -8.01,98.14 -8.34,98.09 -8.64,97.94 -8.95,97.79 -8.94,97.79 -8.94,97.80 -10.37,96.13 -11.80,94.46 -12.40,92.99 -13.00,91.51 -13.68,90.37 -14.37,89.22 -15.42,87.46 -16.47,85.69 -17.55,83.74 -18.63,81.78 -19.70,79.42 -20.76,77.05 -21.83,74.33 -22.89,71.61 -23.93,67.44 -24.96,63.27 -25.19,59.39 -25.43,55.51 -25.25,50.80 -25.08,46.09 -24.66,41.47 -24.24,36.85 -23.23,31.75 -22.23,26.64 -20.61,22.73 -19.00,18.81 -16.64,14.70 -14.27,10.59 -10.89,6.80 -7.51,3.01 -4.17,0.84 -0.83,-1.31 -0.66,-1.39 -0.49,-1.48 -0.31,-1.51 -0.13,-1.55 0.05,-1.54 0.24,-1.54 0.42,-1.49 0.60,-1.43 0.77,-1.34 0.93,-1.25 1.07,-1.12 1.20,-0.99 1.30,-0.83 1.40,-0.67 1.46,-0.49 1.52,-0.31 1.54,-0.12 1.56,0.05 1.53,0.24 1.50,0.43 1.42,0.60 1.35,0.77 1.24,0.92 1.12,1.07 0.98,1.19 0.83,1.31 0.83,1.31 L 0.83,1.31 Z"></path></g><g transform="translate(1286.6244304358866 198.31013729645008) rotate(0 17 17)"><text x="0" y="27" font-family="Cascadia, Segoe UI Emoji" font-size="28px" fill="#364fc7" text-anchor="start" style="white-space: pre;" direction="ltr">id</text></g><g stroke-linecap="round" transform="translate(1463.1259924502865 144.0470828216944) rotate(0 145.58459710191858 36.52849406242035)"><path d="M162.61 0.62 C179.57 0.65, 198.68 2.88, 214.08 5.05 C229.49 7.22, 243.67 10.37, 255.06 13.65 C266.45 16.93, 276.5 20.71, 282.44 24.73 C288.38 28.76, 291.23 33.53, 290.71 37.81 C290.19 42.09, 285.99 46.39, 279.32 50.42 C272.65 54.46, 262.77 58.95, 250.66 62.04 C238.56 65.13, 222.76 67.28, 206.69 68.97 C190.63 70.66, 171.85 71.66, 154.27 72.21 C136.68 72.75, 117.71 73.48, 101.16 72.24 C84.61 71, 68.67 67.58, 54.99 64.76 C41.3 61.94, 28 58.97, 19.07 55.3 C10.14 51.63, 4.1 47.33, 1.41 42.76 C-1.29 38.19, -1.01 32.24, 2.91 27.89 C6.82 23.55, 15.05 20.21, 24.89 16.72 C34.73 13.22, 47.73 9.49, 61.95 6.93 C76.17 4.36, 91.03 2.33, 110.2 1.34 C129.37 0.35, 163.54 0.91, 176.95 0.98 C190.36 1.05, 191.12 1.28, 190.67 1.79 M90.8 1.25 C105.78 -0.72, 126.23 0.77, 143.78 1.05 C161.33 1.33, 179.72 1.35, 196.11 2.91 C212.5 4.48, 229.28 7.7, 242.11 10.45 C254.95 13.2, 265.17 15.97, 273.11 19.39 C281.04 22.81, 287.66 26.56, 289.72 30.97 C291.78 35.39, 289.66 41.59, 285.47 45.89 C281.28 50.2, 274.69 53.39, 264.57 56.81 C254.46 60.22, 239.8 63.55, 224.8 66.35 C209.8 69.16, 191.84 72.83, 174.59 73.63 C157.34 74.42, 138.26 72.22, 121.3 71.13 C104.33 70.03, 87.77 69.23, 72.8 67.09 C57.83 64.94, 42.32 61.76, 31.49 58.28 C20.66 54.79, 13.14 50.29, 7.83 46.18 C2.53 42.06, -1.56 38, -0.35 33.56 C0.86 29.13, 7.28 23.3, 15.11 19.58 C22.94 15.87, 33.89 13.94, 46.64 11.26 C59.4 8.58, 84.29 4.87, 91.64 3.53 C98.99 2.18, 89.87 2.96, 90.75 3.2" stroke="#364fc7" stroke-width="1" fill="none"></path></g><g stroke-linecap="round" transform="translate(1272.542461719042 181.10497380343463) rotate(0 35.469717995337646 33.35211254650059)"><path d="M38.41 0.76 C45.04 0.94, 53.19 3.9, 58.5 8.1 C63.8 12.3, 68.74 19.73, 70.23 25.96 C71.73 32.19, 70.16 39.7, 67.48 45.46 C64.8 51.23, 59.95 56.99, 54.15 60.52 C48.35 64.06, 39.43 67.06, 32.67 66.69 C25.92 66.32, 18.85 62.57, 13.6 58.31 C8.36 54.05, 3.12 47.17, 1.2 41.12 C-0.73 35.07, -0.43 28.14, 2.07 22 C4.56 15.85, 9.89 7.99, 16.16 4.25 C22.43 0.51, 35.71 0.21, 39.69 -0.44 C43.66 -1.09, 40.06 -0.17, 40.01 0.36 M25.59 2.26 C32.14 0.37, 43.21 1.66, 50 3.8 C56.8 5.93, 62.91 9.56, 66.35 15.06 C69.79 20.57, 71.44 30.16, 70.64 36.84 C69.83 43.52, 65.98 50.5, 61.5 55.14 C57.01 59.78, 50.25 63.27, 43.72 64.66 C37.18 66.06, 28.67 65.74, 22.3 63.51 C15.93 61.28, 9.24 56.89, 5.52 51.29 C1.81 45.69, -0.41 36.27, 0.01 29.9 C0.43 23.53, 3.36 17.98, 8.04 13.05 C12.72 8.13, 24.75 2.5, 28.07 0.36 C31.39 -1.78, 27.86 -0.35, 27.96 0.21" stroke="#364fc7" stroke-width="1" fill="none"></path></g><g stroke-linecap="round"><g transform="translate(1347.717073064277 214.98648326925525) rotate(0 70.89766180000174 -7.077200864061666)"><path d="M0.96 0.17 C24.69 -2.07, 118.39 -10.56, 141.8 -12.74 M0 -0.79 C23.62 -3.41, 117.4 -11.98, 140.81 -14.32" stroke="#364fc7" stroke-width="1" fill="none"></path></g><g transform="translate(1347.717073064277 214.98648326925525) rotate(0 70.89766180000174 -7.077200864061666)"><path d="M114 -1.57 C122.09 -5.61, 128.51 -8.61, 138.92 -12.52 M113.71 -0.5 C120.84 -4.79, 127.62 -7.95, 140.76 -14.4" stroke="#364fc7" stroke-width="1" fill="none"></path></g><g transform="translate(1347.717073064277 214.98648326925525) rotate(0 70.89766180000174 -7.077200864061666)"><path d="M112.05 -22 C120.74 -20.98, 127.65 -18.9, 138.92 -12.52 M111.76 -20.93 C119.24 -19.98, 126.52 -17.9, 140.76 -14.4" stroke="#364fc7" stroke-width="1" fill="none"></path></g></g><g stroke-linecap="round" transform="translate(1444.067632268539 93.22483639452082) rotate(0 154.5843269588005 23.29353553630699)"><path d="M222.73 2.69 C239.71 3.75, 254.54 6.34, 267.18 8.28 C279.82 10.21, 291.68 11.97, 298.56 14.31 C305.45 16.65, 308.27 19.5, 308.46 22.33 C308.66 25.16, 306.22 28.63, 299.73 31.29 C293.24 33.95, 281.98 36.1, 269.53 38.31 C257.09 40.51, 241.68 43.26, 225.04 44.51 C208.41 45.77, 188.17 45.47, 169.72 45.84 C151.27 46.22, 132.16 47.24, 114.35 46.76 C96.55 46.29, 78.07 44.93, 62.89 42.99 C47.71 41.05, 33.2 37.75, 23.27 35.14 C13.34 32.52, 6.88 30.05, 3.32 27.28 C-0.24 24.51, -1.1 21.16, 1.91 18.53 C4.92 15.9, 11.8 13.95, 21.38 11.52 C30.96 9.08, 44.6 5.68, 59.41 3.91 C74.21 2.15, 92.26 1.44, 110.18 0.92 C128.11 0.41, 145.52 0.48, 166.98 0.83 C188.44 1.19, 224.81 2.36, 238.93 3.05 C253.05 3.74, 253 4.5, 251.71 4.97 M186.9 0.62 C204.53 1.23, 222.7 3.4, 238.15 4.84 C253.59 6.28, 268.64 7.1, 279.57 9.25 C290.49 11.4, 299.06 15.07, 303.68 17.75 C308.3 20.43, 309.33 22.54, 307.28 25.33 C305.22 28.12, 299.87 32.03, 291.34 34.49 C282.82 36.96, 270.3 38.22, 256.12 40.13 C241.94 42.05, 223.75 44.92, 206.28 45.98 C188.81 47.03, 169.84 46.45, 151.29 46.47 C132.73 46.5, 112.27 47, 94.96 46.14 C77.66 45.28, 60.84 43.44, 47.47 41.34 C34.11 39.23, 22.39 36.09, 14.77 33.52 C7.16 30.95, 2.87 28.89, 1.76 25.9 C0.64 22.92, 3.06 18.56, 8.09 15.63 C13.13 12.7, 20.71 10.22, 31.98 8.34 C43.25 6.45, 59.51 5.52, 75.72 4.32 C91.93 3.11, 110.97 1.72, 129.22 1.11 C147.47 0.51, 175.9 0.82, 185.21 0.69 C194.52 0.57, 185.56 -0.22, 185.07 0.36" stroke="#c92a2a" stroke-width="1" fill="none"></path></g><g stroke-linecap="round"><g transform="translate(864.9056609198988 76.28406389005329) rotate(0 199.30337276964684 -1.1738235239347432)"><path d="M0.88 -0.5 C67.04 -0.89, 330.17 -1.86, 396.36 -1.83 M-0.11 -1.81 C66.49 -2.11, 332.39 -0.61, 398.72 -0.7" stroke="#c92a2a" stroke-width="1" fill="none"></path></g><g transform="translate(864.9056609198988 76.28406389005329) rotate(0 199.30337276964684 -1.1738235239347432)"><path d="M369.67 8.35 C376.29 8.42, 385.9 5.44, 399.32 0.28 M370.68 8.61 C380.65 6.27, 390.01 2.23, 399.54 -0.5" stroke="#c92a2a" stroke-width="1" fill="none"></path></g><g transform="translate(864.9056609198988 76.28406389005329) rotate(0 199.30337276964684 -1.1738235239347432)"><path d="M369.72 -12.17 C376.43 -6.92, 386.02 -4.72, 399.32 0.28 M370.73 -11.91 C380.84 -7.18, 390.18 -4.15, 399.54 -0.5" stroke="#c92a2a" stroke-width="1" fill="none"></path></g></g><g transform="translate(1284.1893005734246 55.478389957749414) rotate(0 17 17)"><text x="0" y="27" font-family="Cascadia, Segoe UI Emoji" font-size="28px" fill="#c92a2a" text-anchor="start" style="white-space: pre;" direction="ltr">id</text></g><g stroke-linecap="round" transform="translate(1267.248528068957 42.40258996734724) rotate(0 42.351860174939816 29.116901648826484)"><path d="M52.32 0.94 C60.35 1.94, 69.76 5.78, 75.06 10.16 C80.37 14.54, 83.64 21.41, 84.15 27.19 C84.65 32.97, 82.35 39.91, 78.1 44.84 C73.84 49.77, 66.21 54.8, 58.64 56.77 C51.07 58.74, 40.58 58.19, 32.66 56.66 C24.73 55.13, 16.54 51.88, 11.11 47.59 C5.68 43.31, 1.04 36.44, 0.1 30.94 C-0.85 25.45, 1.11 19.56, 5.42 14.62 C9.74 9.68, 16.65 3.11, 25.99 1.31 C35.32 -0.49, 54.21 2.76, 61.44 3.82 C68.67 4.89, 69.84 7.39, 69.38 7.71 M58.95 2.58 C66.36 4.36, 73.68 9.66, 77.9 14.49 C82.13 19.32, 84.8 25.77, 84.3 31.58 C83.79 37.39, 80.33 44.82, 74.87 49.37 C69.41 53.91, 60.05 57.96, 51.54 58.85 C43.04 59.74, 31.59 57.2, 23.86 54.68 C16.12 52.16, 8.99 48.41, 5.13 43.72 C1.26 39.03, -0.21 32.34, 0.66 26.56 C1.54 20.77, 5.16 13.55, 10.38 9.01 C15.61 4.47, 23.89 0.65, 32.02 -0.68 C40.14 -2.01, 54.54 0.42, 59.14 1.02 C63.74 1.61, 59.93 2.22, 59.64 2.89" stroke="#c92a2a" stroke-width="1" fill="none"></path></g><g stroke-linecap="round"><g transform="translate(1346.6583147687516 58.28453309006039) rotate(0 96.49389155911956 14.445249938019032)"><path d="M-0.56 -0.97 C31.79 3.77, 161.52 23.43, 193.55 28.42 M1.35 1.13 C33.65 6.06, 160.95 25.59, 193.05 29.87" stroke="#c92a2a" stroke-width="1" fill="none"></path></g><g transform="translate(1346.6583147687516 58.28453309006039) rotate(0 96.49389155911956 14.445249938019032)"><path d="M162.05 37.39 C170.91 32.73, 179.32 34.59, 194.66 31.29 M163.06 36.2 C170.38 34.3, 177.15 32.75, 192.93 29.5" stroke="#c92a2a" stroke-width="1" fill="none"></path></g><g transform="translate(1346.6583147687516 58.28453309006039) rotate(0 96.49389155911956 14.445249938019032)"><path d="M164.99 17.08 C173.09 17.61, 180.75 24.66, 194.66 31.29 M166 15.89 C172.63 18.93, 178.69 22.29, 192.93 29.5" stroke="#c92a2a" stroke-width="1" fill="none"></path></g></g><g transform="translate(623.923451057297 427.96319266231023) rotate(0 99 17)"><text x="0" y="27" font-family="Cascadia, Segoe UI Emoji" font-size="28px" fill="#000000" text-anchor="start" style="white-space: pre;" direction="ltr">passengerDTO</text></g><g stroke-linecap="round"><g transform="translate(790.7898078701892 423.5695092573782) rotate(0 68.1229628894867 -117.64822569001143)"><path d="M-1.09 0.48 C21.86 -38.98, 114.38 -196.67, 137.33 -235.78 M0.55 -0.31 C23.43 -39.72, 114.21 -195.33, 136.78 -234.62" stroke="#000000" stroke-width="1" fill="none"></path></g><g transform="translate(790.7898078701892 423.5695092573782) rotate(0 68.1229628894867 -117.64822569001143)"><path d="M132.32 -203.84 C131.5 -212.98, 135.57 -221.9, 138.44 -233.29 M130.85 -205.13 C132.35 -211.95, 134.09 -220.6, 137.07 -233.64" stroke="#000000" stroke-width="1" fill="none"></path></g><g transform="translate(790.7898078701892 423.5695092573782) rotate(0 68.1229628894867 -117.64822569001143)"><path d="M114.57 -214.13 C118.66 -220.3, 127.56 -226.42, 138.44 -233.29 M113.1 -215.42 C119.21 -219.39, 125.64 -225.33, 137.07 -233.64" stroke="#000000" stroke-width="1" fill="none"></path></g></g><g transform="translate(856.4352391245504 316.8953671121502) rotate(0 17 17)"><text x="0" y="27" font-family="Cascadia, Segoe UI Emoji" font-size="28px" fill="#000000" text-anchor="start" style="white-space: pre;" direction="ltr">fk</text></g><g stroke-linecap="round" transform="translate(10 719.6946832130632) rotate(0 598.8106333601211 473.4989911023978)"><path d="M0.38 -0.41 C263.44 4.84, 528.37 4.16, 1198.19 -0.63 M0.16 0.22 C360.23 -1.25, 720.06 -0.89, 1197.82 -0.17 M1197.66 0.16 C1195.52 246.78, 1195.54 495.38, 1197.57 947.28 M1197.46 0.18 C1195.51 249.23, 1195.31 497.63, 1197.96 947 M1198.39 946.2 C851.67 951.9, 505.05 951.72, 0.3 947.45 M1197.88 947.21 C944.88 945.79, 691.7 946.02, 0.14 946.87 M-0.1 946.76 C-2.21 717.12, -3.46 486.06, 0.03 -0.15 M-0.03 946.65 C1.47 639.06, 1.73 331.54, 0.24 0.12" stroke="#000000" stroke-width="4" fill="none"></path></g><g transform="translate(249.8822866076424 674.8421884435509) rotate(0 372.4729675819308 68.73964637778118)"><text x="0" y="110.4792927555624" font-family="Cascadia, Segoe UI Emoji" font-size="115.09894277209885px" fill="#000000" text-anchor="start" style="white-space: pre;" direction="ltr">payment.jsp</text></g><g transform="translate(78.02632008276476 943.8671361386728) rotate(0 180 21.5)"><text x="0" y="35" font-family="Cascadia, Segoe UI Emoji" font-size="36px" fill="#000000" text-anchor="start" style="white-space: pre;" direction="ltr">departureFlightId</text></g><g transform="translate(122.78047803195147 1020.8442878112742) rotate(0 148 21.5)"><text x="0" y="35" font-family="Cascadia, Segoe UI Emoji" font-size="36px" fill="#000000" text-anchor="start" style="white-space: pre;" direction="ltr">returnFlightId</text></g><g transform="translate(113.82964644211381 854.3588202402987) rotate(0 167.7815538572958 34.03116422577227)"><text x="0" y="55.062328451544545" font-family="Cascadia, Segoe UI Emoji" font-size="56.98241451757216px" fill="#000000" text-anchor="start" style="white-space: pre;" direction="ltr">book_table</text></g><g transform="translate(165.7444696631709 1092.450940529973) rotate(0 106 21.5)"><text x="0" y="35" font-family="Cascadia, Segoe UI Emoji" font-size="36px" fill="#000000" text-anchor="start" style="white-space: pre;" direction="ltr">seatNumber</text></g><g transform="translate(627.6073796987797 840.0374896965589) rotate(0 290.47272623155527 39.40166317967464)"><text x="0" y="63.803326359349384" font-family="Cascadia, Segoe UI Emoji" font-size="65.97487788224602px" fill="#000000" text-anchor="start" style="white-space: pre;" direction="ltr">passenger_table</text></g><g transform="translate(769.0305188182109 930.9343087332254) rotate(0 137.5 21.5)"><text x="0" y="35" font-family="Cascadia, Segoe UI Emoji" font-size="36px" fill="#000000" text-anchor="start" style="white-space: pre;" direction="ltr">passengerType</text></g><g transform="translate(736.807525094796 995.7819593597292) rotate(0 180 21.5)"><text x="0" y="35" font-family="Cascadia, Segoe UI Emoji" font-size="36px" fill="#000000" text-anchor="start" style="white-space: pre;" direction="ltr">passengerLastName</text></g><g transform="translate(735.0173587768287 1058.0361173089163) rotate(0 190.5 21.5)"><text x="0" y="35" font-family="Cascadia, Segoe UI Emoji" font-size="36px" fill="#000000" text-anchor="start" style="white-space: pre;" direction="ltr">passengerFirstName</text></g><g transform="translate(672.3615376479669 1122.4821047557457) rotate(0 243 21.5)"><text x="0" y="35" font-family="Cascadia, Segoe UI Emoji" font-size="36px" fill="#000000" text-anchor="start" style="white-space: pre;" direction="ltr">passengerPassportNumber</text></g><g transform="translate(863.9093336704872 1199.4592564283469) rotate(0 64 21.5)"><text x="0" y="35" font-family="Cascadia, Segoe UI Emoji" font-size="36px" fill="#000000" text-anchor="start" style="white-space: pre;" direction="ltr">bookId</text></g><g transform="translate(214.07896024829245 1160.0755974330627) rotate(0 64 21.5)"><text x="0" y="35" font-family="Cascadia, Segoe UI Emoji" font-size="36px" fill="#000000" text-anchor="start" style="white-space: pre;" direction="ltr">bookId</text></g><g stroke-linecap="round" transform="translate(60.12465690308966 852.1669907426563) rotate(0 212.13470867914612 203.1838770893088)"><path d="M0.73 0.02 C116.23 2.2, 232.62 2.01, 424.48 0.71 M0.04 -0.44 C131.34 2.28, 262.85 2.2, 424.29 0.07 M424.25 -0.38 C425.76 160.74, 424.26 322.65, 423.56 406.55 M424.27 0.26 C425.65 117.05, 426.27 233.77, 424.28 406.66 M423.64 405.68 C266.08 407.82, 106.83 407.98, 0.22 406.42 M424.41 406.06 C261.47 405.56, 99.28 406.46, -0.08 406.32 M0.95 405.79 C-1.07 247.67, 0.61 91.92, 0.88 -1.04 M0.1 405.93 C1.77 294.96, 2.56 184.2, 0.09 -0.2" stroke="#c92a2a" stroke-width="4" fill="none"></path></g><g stroke-linecap="round" transform="translate(613.2860491550401 845.0063254707866) rotate(0 281.9511950798777 235.40687081272324)"><path d="M0.02 0.41 C187.39 -0.01, 374 -0.54, 563.38 0.5 M0.09 0.02 C183.94 -1.11, 367.15 -0.81, 563.67 -0.08 M563.77 -0.09 C566.31 98.02, 565.3 196.45, 563.43 470.32 M564.26 -0.42 C565.8 99.77, 565.48 200.51, 563.55 470.43 M564.03 470.53 C430.52 471.25, 297.79 470.68, -0.79 470.44 M563.92 470.62 C408.66 472.36, 254.37 472.88, 0.37 470.83 M0.15 470.81 C1.03 283.06, 1.73 95.3, 0.49 -0.61 M0.36 470.97 C2.13 307.77, 2.02 144.22, 0.27 0.34" stroke="#364fc7" stroke-width="4" fill="none"></path></g><g stroke-linecap="round" transform="translate(169.32480229910573 1158.285431115095) rotate(0 96.6689811702438 30.432827405447142)"><path d="M100.05 -0.34 C113.53 -0.69, 129.82 1.65, 142.29 3.63 C154.77 5.6, 166.5 7.94, 174.88 11.51 C183.26 15.07, 189.95 20.56, 192.57 25.01 C195.18 29.46, 194.28 33.88, 190.56 38.23 C186.83 42.59, 179.31 47.67, 170.2 51.15 C161.09 54.63, 148.71 57.59, 135.9 59.14 C123.1 60.69, 107.48 60.72, 93.36 60.45 C79.25 60.18, 63.71 59.58, 51.19 57.52 C38.67 55.46, 26.61 51.66, 18.26 48.07 C9.9 44.48, 3.53 40.34, 1.06 35.98 C-1.4 31.63, -0.19 26.28, 3.47 21.93 C7.13 17.58, 13.93 13.27, 23.01 9.89 C32.1 6.52, 42.69 3.35, 57.97 1.66 C73.26 -0.03, 103.23 -0.37, 114.72 -0.23 C126.21 -0.08, 127.3 1.88, 126.9 2.52 M91.93 -1.09 C104.91 -1.59, 121.01 0.04, 133.78 1.88 C146.56 3.72, 159.27 6.43, 168.58 9.93 C177.89 13.42, 185.77 18.3, 189.64 22.86 C193.52 27.42, 194.47 33, 191.82 37.31 C189.16 41.62, 181.97 45.54, 173.73 48.7 C165.49 51.86, 154.34 54.05, 142.38 56.29 C130.42 58.53, 116.18 61.85, 101.99 62.13 C87.79 62.4, 70.03 59.84, 57.19 57.94 C44.35 56.05, 33.75 54.19, 24.95 50.75 C16.14 47.31, 8.38 41.39, 4.37 37.29 C0.35 33.19, -1.39 30.4, 0.84 26.18 C3.07 21.96, 9.24 15.82, 17.75 11.97 C26.25 8.13, 39.4 5.28, 51.87 3.12 C64.34 0.95, 86 -0.7, 92.57 -1.03 C99.14 -1.37, 91.18 0.2, 91.3 1.12" stroke="#5c940d" stroke-width="4" fill="none"></path></g><g stroke-linecap="round" transform="translate(833.47650626504 1190.5084248385097) rotate(0 101.1443969651624 34.90824320036586)"><path d="M96.34 -0.71 C110.01 -1.36, 126.92 0.38, 140.32 2.43 C153.71 4.49, 167.03 7.7, 176.72 11.62 C186.42 15.55, 194.51 20.89, 198.5 25.97 C202.5 31.05, 203.4 37.15, 200.68 42.11 C197.97 47.06, 190.82 51.86, 182.2 55.68 C173.59 59.5, 161.65 62.53, 149 65.02 C136.36 67.51, 121.1 70.37, 106.33 70.64 C91.56 70.92, 73.83 68.78, 60.39 66.69 C46.95 64.59, 35.05 61.96, 25.69 58.07 C16.33 54.18, 8.32 48.13, 4.23 43.37 C0.14 38.6, -1.28 34.35, 1.15 29.46 C3.59 24.57, 10.06 18.28, 18.85 14.01 C27.64 9.73, 39.17 6.26, 53.9 3.82 C68.62 1.38, 96.78 -0.26, 107.19 -0.65 C117.59 -1.04, 116.38 0.61, 116.31 1.46 M94.29 1.03 C107.77 0.4, 124.8 1.41, 138.36 2.92 C151.93 4.44, 165.78 6.64, 175.69 10.11 C185.6 13.58, 193.79 18.57, 197.81 23.74 C201.82 28.92, 201.82 35.96, 199.79 41.18 C197.76 46.4, 193.61 51.19, 185.62 55.04 C177.62 58.89, 164.54 61.74, 151.81 64.28 C139.08 66.83, 124.15 69.88, 109.24 70.3 C94.34 70.73, 76.07 68.62, 62.37 66.83 C48.66 65.05, 36.87 63.44, 26.99 59.59 C17.11 55.74, 7.28 48.83, 3.06 43.72 C-1.15 38.62, -0.92 33.48, 1.71 28.94 C4.34 24.39, 10.53 20.29, 18.85 16.47 C27.17 12.64, 39.01 8.81, 51.61 5.98 C64.22 3.15, 87.29 0.36, 94.47 -0.51 C101.66 -1.39, 94.38 0.24, 94.73 0.72" stroke="#5c940d" stroke-width="4" fill="none"></path></g><g stroke-linecap="round"><g transform="translate(360.8725983216258 1192.2985911564772) rotate(0 236.93070845111257 13.155088488063143)"><path d="M-0.57 0.95 C77.98 5.22, 393.03 20.66, 472.02 24.61 M1.33 0.4 C80.22 4.92, 395.81 21.68, 474.43 25.91" stroke="#5c940d" stroke-width="4" fill="none"></path></g></g><g stroke-linecap="round" transform="translate(971.3193127485359 1577.1843495194848) rotate(0 111.88539487296725 38.4885758363007)"><path d="M0.51 -0.54 C85.32 3.21, 169.18 3.18, 223.79 -0.68 M-0.7 0.46 C68.88 -2.59, 138 -1.4, 223.79 0.71 M225.37 -1.59 C223.02 17.83, 224.1 32.19, 222.94 75.08 M224.52 -0.4 C223.28 17.29, 223.42 33.67, 224.39 76.46 M222.1 76.68 C179.58 75.69, 133.31 76.66, 0.58 77.9 M224.08 77.6 C136.66 77.85, 49.81 78.04, 0.3 76.51 M1.08 78.52 C-1.2 61.26, -0.32 46.13, 1.96 1.25 M-0.86 77.71 C0.81 55.76, 0.49 35.81, 0.71 0.75" stroke="#000000" stroke-width="4" fill="none"></path></g><g transform="translate(1005.3324727899179 1591.9073432429) rotate(0 72.5 24)"><text x="0" y="39" font-family="Cascadia, Segoe UI Emoji" font-size="36px" fill="#000000" text-anchor="start" style="white-space: pre;" direction="ltr">결제하기</text></g><g stroke-linecap="round"><g transform="translate(1198.6704351304056 1602.2466779710298) rotate(0 216.0738430199509 -16.804744005226212)"><path d="M-0.65 -1.05 C71.41 -6.89, 360.63 -29.31, 432.8 -34.62 M1.21 1.01 C73.16 -4.74, 360.61 -27.54, 432.4 -33.5" stroke="#364fc7" stroke-width="4" fill="none"></path></g><g transform="translate(1198.6704351304056 1602.2466779710298) rotate(0 216.0738430199509 -16.804744005226212)"><path d="M403.38 -19.24 C412.98 -24, 425.07 -29.83, 433.02 -33.14 M404.79 -21.38 C414.79 -26.91, 427.05 -30.41, 431.62 -33.3" stroke="#364fc7" stroke-width="4" fill="none"></path></g><g transform="translate(1198.6704351304056 1602.2466779710298) rotate(0 216.0738430199509 -16.804744005226212)"><path d="M401.72 -39.7 C411.96 -37.53, 424.61 -36.44, 433.02 -33.14 M403.13 -41.83 C413.99 -39.39, 426.89 -34.9, 431.62 -33.3" stroke="#364fc7" stroke-width="4" fill="none"></path></g></g><g transform="translate(221.23962552016235 1478.7252020312735) rotate(0 106 21.5)"><text x="0" y="35" font-family="Cascadia, Segoe UI Emoji" font-size="36px" fill="#000000" text-anchor="start" style="white-space: pre;" direction="ltr">flightFare</text></g><g stroke-linecap="round" transform="translate(1338.3034079318686 1575.394183201518) rotate(0 0.8950831589836525 0.8950831589836525)"><path d="M0.16 0.74 C0.23 0.88, 1.27 0.94, 1.42 0.82 C1.58 0.7, 1.04 -0.08, 1.09 0.03 C1.15 0.14, 1.72 1.04, 1.74 1.48 C1.76 1.92, 1.56 2.48, 1.21 2.66 C0.85 2.84, -0.22 2.87, -0.38 2.55 C-0.54 2.23, 0.12 1.1, 0.26 0.74 C0.39 0.37, 0.41 0.31, 0.44 0.38 C0.46 0.44, 0.41 1.19, 0.4 1.14 C0.4 1.1, 0.34 0.23, 0.41 0.1 C0.49 -0.03, 0.68 0.34, 0.87 0.39 M2.08 1.51 C2.13 1.36, 2.15 -0.58, 2.18 -0.73 C2.21 -0.87, 2.58 0.36, 2.25 0.62 C1.91 0.88, 0.18 0.46, 0.15 0.83 C0.12 1.19, 2.11 2.82, 2.08 2.8 C2.05 2.79, 0.34 1.26, -0.03 0.74 C-0.39 0.22, -0.01 -0.52, -0.1 -0.33 C-0.18 -0.13, -0.75 1.95, -0.55 1.92 C-0.35 1.9, 0.71 -0.08, 1.11 -0.47 C1.5 -0.86, 2 -0.72, 1.81 -0.42 C1.62 -0.11, -0.06 1.04, -0.01 1.35" stroke="#862e9c" stroke-width="4" fill="none"></path></g><g transform="translate(83.39681903666667 1369.5250566352581) rotate(0 259.97188882763083 44.01098905349659)"><text x="0" y="71.02197810699312" font-family="Cascadia, Segoe UI Emoji" font-size="73.6928188802733px" fill="#000000" text-anchor="start" style="white-space: pre;" direction="ltr">flight_table</text></g><g stroke-linecap="round" transform="translate(69.07548849292675 1385.6365534969655) rotate(0 275.6856129669916 129.78705805264212)"><path d="M-0.14 -0.03 C189.01 -0.19, 379.3 -0.63, 550.59 0.4 M0.03 -0.16 C188.18 -0.53, 377.19 -0.74, 551.39 0.2 M551.9 0.25 C552.34 68.61, 554.79 134.53, 552.75 259.37 M551.74 0.13 C551.52 59.78, 550.61 119.04, 551.14 259.61 M550.98 259.6 C357.22 260.24, 163.41 260.88, 0.5 260 M551.64 259.97 C392.18 257.71, 233.33 257.95, -0.34 259.69 M0.66 258.02 C-0.5 177.89, -1.95 96.93, 1.13 0.14 M0.59 260.24 C0.66 172.67, 1.24 86.78, -0.36 -0.54" stroke="#862e9c" stroke-width="4" fill="none"></path></g><g stroke-linecap="round"><g transform="translate(1184.3491045866654 1002.5409614519249) rotate(0 127.83366647727792 -103.81667699195003)"><path d="M-0.81 -0.94 C41.92 -35.88, 213.48 -174.37, 256.48 -208.81 M0.97 1.17 C43.57 -33.73, 213.1 -173.3, 255.78 -207.87" stroke="#364fc7" stroke-width="4" fill="none"></path></g><g transform="translate(1184.3491045866654 1002.5409614519249) rotate(0 127.83366647727792 -103.81667699195003)"><path d="M238.88 -181.28 C243.08 -187.92, 249.8 -196.1, 254.84 -206.08 M240.85 -182.16 C243.88 -188.34, 247.51 -193.42, 256.32 -207.48" stroke="#364fc7" stroke-width="4" fill="none"></path></g><g transform="translate(1184.3491045866654 1002.5409614519249) rotate(0 127.83366647727792 -103.81667699195003)"><path d="M225.89 -197.17 C234.18 -198.84, 244.89 -202.14, 254.84 -206.08 M227.86 -198.05 C233.75 -200.76, 240.23 -202.35, 256.32 -207.48" stroke="#364fc7" stroke-width="4" fill="none"></path></g></g><g transform="translate(1467.1953828255273 723.6766790286731) rotate(0 137.5 21.5)"><text x="0" y="35" font-family="Cascadia, Segoe UI Emoji" font-size="36px" fill="#364fc7" text-anchor="start" style="white-space: pre;" direction="ltr">passengerDTO1</text></g><g transform="translate(1467.538189309022 794.8636643833077) rotate(0 137.5 21.5)"><text x="0" y="35" font-family="Cascadia, Segoe UI Emoji" font-size="36px" fill="#364fc7" text-anchor="start" style="white-space: pre;" direction="ltr">passengerDTO2</text></g><g transform="translate(1463.9578566730888 866.4703171020062) rotate(0 137.5 21.5)"><text x="0" y="35" font-family="Cascadia, Segoe UI Emoji" font-size="36px" fill="#364fc7" text-anchor="start" style="white-space: pre;" direction="ltr">passengerDTO3</text></g><g transform="translate(1572.8151955856083 931.3359719129005) rotate(0 32 21.5)"><text x="0" y="35" font-family="Cascadia, Segoe UI Emoji" font-size="36px" fill="#364fc7" text-anchor="start" style="white-space: pre;" direction="ltr">...</text></g><g transform="translate(1257.7459236233321 623.4273652224947) rotate(0 164.5 24)"><text x="0" y="39" font-family="Cascadia, Segoe UI Emoji" font-size="36px" fill="#364fc7" text-anchor="start" style="white-space: pre;" direction="ltr">ajax로 개별 저장?</text></g><g stroke-linecap="round"><g transform="translate(486.1842405793492 1258.5347449212743) rotate(0 253.7480722465072 157.76570008687497)"><path d="M1.15 0.41 C85.76 53.19, 423.02 263.46, 507.21 315.96 M0.29 -0.43 C84.84 52.09, 422.4 261.42, 506.57 314.3" stroke="#c92a2a" stroke-width="4" fill="none"></path></g><g transform="translate(486.1842405793492 1258.5347449212743) rotate(0 253.7480722465072 157.76570008687497)"><path d="M477.89 309.07 C486.26 308.79, 492.94 311.88, 508.02 314.35 M477.21 307.82 C487.85 311.05, 500.58 312.48, 507.26 314.27" stroke="#c92a2a" stroke-width="4" fill="none"></path></g><g transform="translate(486.1842405793492 1258.5347449212743) rotate(0 253.7480722465072 157.76570008687497)"><path d="M488.75 291.66 C494.2 295.99, 498.07 303.6, 508.02 314.35 M488.07 290.41 C494.44 300.52, 502.88 308.84, 507.26 314.27" stroke="#c92a2a" stroke-width="4" fill="none"></path></g></g><g stroke-linecap="round"><g transform="translate(622.2368807448773 1602.2466779710298) rotate(0 176.072638935359 5.917473654730429)"><path d="M-0.41 -0.35 C58.05 1.48, 291.45 10, 350.2 12.1 M1.58 -1.58 C60.48 0.93, 294.17 10.91, 352.55 13.42" stroke="#862e9c" stroke-width="4" fill="none"></path></g><g transform="translate(622.2368807448773 1602.2466779710298) rotate(0 176.072638935359 5.917473654730429)"><path d="M323.36 21.33 C330.41 22.21, 337.98 19.55, 351.2 15.05 M324.16 22.51 C333.38 18.91, 344.51 16.73, 352.4 13.04" stroke="#862e9c" stroke-width="4" fill="none"></path></g><g transform="translate(622.2368807448773 1602.2466779710298) rotate(0 176.072638935359 5.917473654730429)"><path d="M324.24 0.83 C331.26 6.91, 338.6 9.45, 351.2 15.05 M325.04 2.01 C333.83 5.51, 344.65 10.43, 352.4 13.04" stroke="#862e9c" stroke-width="4" fill="none"></path></g></g><g stroke-linecap="round"><g transform="translate(1087.6801234164213 1315.8200670962337) rotate(0 2.4998939924656725 128.09855018897917)"><path d="M-1.14 0 C-0.29 42.5, 5.2 213.1, 6.14 255.81 M0.46 -1.05 C1.13 41.57, 4.51 214.12, 5.6 257.24" stroke="#364fc7" stroke-width="4" fill="none"></path></g><g transform="translate(1087.6801234164213 1315.8200670962337) rotate(0 2.4998939924656725 128.09855018897917)"><path d="M-5.28 230.58 C-1.2 238.8, 3.75 251.13, 6.09 258.05 M-5.66 230.14 C-2.75 234.93, -0.15 242.29, 6.53 256.97" stroke="#364fc7" stroke-width="4" fill="none"></path></g><g transform="translate(1087.6801234164213 1315.8200670962337) rotate(0 2.4998939924656725 128.09855018897917)"><path d="M15.24 230.13 C11.39 238.32, 8.42 250.83, 6.09 258.05 M14.86 229.69 C13.38 234.41, 11.6 241.87, 6.53 256.97" stroke="#364fc7" stroke-width="4" fill="none"></path></g></g><g transform="translate(1238.05409412569 1486.287530482819) rotate(0 212 24)"><text x="0" y="39" font-family="Cascadia, Segoe UI Emoji" font-size="36px" fill="#364fc7" text-anchor="start" style="white-space: pre;" direction="ltr">결제하면서 한번에 저장?</text></g><g transform="translate(1689.176006253494 1482.7071978468844) rotate(0 431.5 93.5)"><text x="0" y="38.75" font-family="Cascadia, Segoe UI Emoji" font-size="36px" fill="#000000" text-anchor="start" style="white-space: pre;" direction="ltr">PassengerArrayDTO를 만들어서</text><text x="0" y="85.5" font-family="Cascadia, Segoe UI Emoji" font-size="36px" fill="#000000" text-anchor="start" style="white-space: pre;" direction="ltr">ajax로 list 파라미터를 만들어서 java로 넘기고</text><text x="0" y="132.25" font-family="Cascadia, Segoe UI Emoji" font-size="36px" fill="#000000" text-anchor="start" style="white-space: pre;" direction="ltr">그 파라미터를 arraylist로 받음</text><text x="0" y="179" font-family="Cascadia, Segoe UI Emoji" font-size="36px" fill="#000000" text-anchor="start" style="white-space: pre;" direction="ltr"></text></g><g stroke-linecap="round"><g transform="translate(1880.7238022760152 1666.6926654178603) rotate(0 2.6855469160495886 71.56433543554544)"><path d="M-0.45 -0.81 C0.56 23.27, 5.02 119.74, 5.82 143.94 M1.52 1.38 C2.43 25.16, 4.25 118.65, 5.1 142.19" stroke="#000000" stroke-width="4" fill="none"></path></g><g transform="translate(1880.7238022760152 1666.6926654178603) rotate(0 2.6855469160495886 71.56433543554544)"><path d="M-7.26 115.04 C-1.73 120.45, 2.14 130.83, 3.42 140.29 M-5.77 114.95 C-3.48 122.19, 0.01 129.94, 6.06 142.12" stroke="#000000" stroke-width="4" fill="none"></path></g><g transform="translate(1880.7238022760152 1666.6926654178603) rotate(0 2.6855469160495886 71.56433543554544)"><path d="M13.25 114.48 C13.01 119.98, 11.1 130.51, 3.42 140.29 M14.75 114.4 C11.09 121.61, 8.63 129.52, 6.06 142.12" stroke="#000000" stroke-width="4" fill="none"></path></g></g><g transform="translate(1726.7694989308125 1881.914286753633) rotate(0 343 48)"><text x="0" y="39" font-family="Cascadia, Segoe UI Emoji" font-size="36px" fill="#000000" text-anchor="start" style="white-space: pre;" direction="ltr">java에서 받은 List&lt;PassengerDTO&gt;를</text><text x="0" y="87" font-family="Cascadia, Segoe UI Emoji" font-size="36px" fill="#000000" text-anchor="start" style="white-space: pre;" direction="ltr">for문으로 돌려풀어서 DB에 저장한다. </text></g><g transform="translate(1556.932471439949 2113.335010952933) rotate(0 591.5 24)"><text x="0" y="39" font-family="Cascadia, Segoe UI Emoji" font-size="36px" fill="#000000" text-anchor="start" style="white-space: pre;" direction="ltr">ajax success로 index.jsp 또는 예약상세 페이지로 이동하는 함수</text></g><g stroke-linecap="round"><g transform="translate(1966.8692385080062 2015.2677308752354) rotate(0 -0.30562861356418125 37.41241768000873)"><path d="M-1.11 0.09 C-1.07 12.31, 0.21 61.76, 0.2 74.18 M0.5 -0.91 C0.42 11.44, -0.74 63.51, -0.65 75.73" stroke="#000000" stroke-width="4" fill="none"></path></g><g transform="translate(1966.8692385080062 2015.2677308752354) rotate(0 -0.30562861356418125 37.41241768000873)"><path d="M-10.48 47.78 C-7.45 53.84, -3.88 63.12, -0.2 77.1 M-10.2 48.36 C-9.06 53.5, -6.22 60.17, -0.86 76.52" stroke="#000000" stroke-width="4" fill="none"></path></g><g transform="translate(1966.8692385080062 2015.2677308752354) rotate(0 -0.30562861356418125 37.41241768000873)"><path d="M10.04 47.97 C7.07 53.79, 4.64 63.01, -0.2 77.1 M10.32 48.56 C6.92 53.71, 5.22 60.34, -0.86 76.52" stroke="#000000" stroke-width="4" fill="none"></path></g></g></svg>