<svg version="1.1" xmlns="http://www.w3.org/2000/svg" viewBox="0 0 1085.220442554606 616" width="1085.220442554606" height="616">
  <!-- svg-source:excalidraw -->
  
  <defs>
    <style>
      @font-face {
        font-family: "Virgil";
        src: url("https://excalidraw.com/Virgil.woff2");
      }
      @font-face {
        font-family: "Cascadia";
        src: url("https://excalidraw.com/Cascadia.woff2");
      }
    </style>
  </defs>
  <rect x="0" y="0" width="1085.220442554606" height="616" fill="#ffffff"></rect><g transform="translate(533.220442554606 124) rotate(0 20.5 241)" stroke="none"><path fill="#000000" d="M 1.53,-0.27 Q 1.53,-0.27 3.80,12.37 6.07,25.03 8.17,38.76 10.28,52.50 14.04,83.94 17.81,115.39 21.42,159.53 25.02,203.67 27.70,251.47 30.38,299.28 32.67,338.56 34.95,377.84 36.21,403.46 37.47,429.07 38.57,443.68 39.68,458.28 40.15,465.07 40.62,471.87 41.43,475.89 42.24,479.92 42.24,480.17 42.25,480.43 42.16,480.67 42.08,480.91 41.93,481.12 41.78,481.32 41.57,481.47 41.36,481.61 41.11,481.68 40.87,481.75 40.61,481.74 40.36,481.72 40.12,481.63 39.88,481.54 39.69,481.37 39.49,481.21 39.36,480.99 39.23,480.77 39.17,480.52 39.11,480.28 39.14,480.02 39.17,479.77 39.27,479.54 39.38,479.30 39.55,479.12 39.73,478.93 39.95,478.81 40.18,478.69 40.43,478.65 40.68,478.61 40.93,478.65 41.18,478.69 41.41,478.80 41.64,478.92 41.81,479.11 41.99,479.29 42.10,479.52 42.20,479.75 42.23,480.01 42.26,480.26 42.21,480.51 42.16,480.76 42.03,480.98 41.89,481.20 41.70,481.36 41.51,481.53 41.27,481.62 41.03,481.72 40.78,481.74 40.53,481.75 40.28,481.68 40.03,481.62 39.82,481.47 39.61,481.33 39.45,481.13 39.30,480.93 39.22,480.69 39.13,480.44 39.13,480.45 39.13,480.45 38.55,476.25 37.97,472.05 37.50,465.27 37.02,458.48 35.91,443.84 34.79,429.21 33.53,403.60 32.26,378.00 29.96,338.72 27.66,299.43 24.96,251.66 22.27,203.90 18.64,159.81 15.01,115.72 11.22,84.33 7.42,52.94 5.27,39.25 3.12,25.56 0.79,12.92 -1.53,0.27 -1.54,0.09 -1.55,-0.09 -1.52,-0.28 -1.49,-0.46 -1.41,-0.63 -1.33,-0.81 -1.21,-0.95 -1.10,-1.10 -0.95,-1.22 -0.80,-1.33 -0.63,-1.41 -0.46,-1.49 -0.27,-1.52 -0.09,-1.55 0.09,-1.54 0.28,-1.53 0.46,-1.47 0.64,-1.42 0.80,-1.32 0.96,-1.22 1.09,-1.09 1.23,-0.96 1.32,-0.80 1.42,-0.63 1.48,-0.45 1.53,-0.27 1.53,-0.27 L 1.53,-0.27 Z"></path></g><g transform="translate(540.220442554606 125) rotate(0 188.5 210.5)" stroke="none"><path fill="#000000" d="M 0,-1.56 Q 0,-1.56 4.02,-1.52 8.04,-1.49 24.63,-3.19 41.22,-4.88 71.58,-8.18 101.95,-11.49 138.14,-15.47 174.34,-19.46 204.07,-24.02 233.80,-28.58 254.82,-30.52 275.85,-32.47 288.78,-33.86 301.72,-35.26 308.43,-35.84 315.14,-36.42 319.75,-34.28 324.35,-32.14 326.40,-29.04 328.45,-25.93 331.31,-11.56 334.18,2.80 337.66,25.24 341.15,47.67 346.08,79.91 351.01,112.14 355.69,146.27 360.38,180.39 364.67,212.71 368.96,245.04 371.64,271.74 374.33,298.43 375.48,320.15 376.62,341.87 377.11,359.15 377.59,376.43 377.80,388.38 378.00,400.32 378.09,407.41 378.18,414.50 378.22,419.53 378.25,424.56 378.27,427.27 378.29,429.98 378.41,431.42 378.53,432.86 377.95,434.54 377.38,436.21 374.12,436.63 370.86,437.06 359.93,436.90 348.99,436.73 332.03,436.65 315.07,436.56 297.51,436.51 279.95,436.47 262.14,436.44 244.33,436.41 229.31,436.97 214.29,437.53 197.93,440.63 181.58,443.72 167.98,446.48 154.38,449.23 141.99,451.84 129.59,454.44 117.93,455.56 106.26,456.68 96.70,457.15 87.14,457.62 80.49,457.82 73.84,458.02 70.23,457.73 66.62,457.45 64.14,454.78 61.67,452.12 61.54,451.89 61.42,451.67 61.37,451.42 61.33,451.17 61.36,450.92 61.40,450.66 61.51,450.44 61.62,450.21 61.81,450.03 61.99,449.85 62.22,449.74 62.45,449.62 62.70,449.59 62.95,449.56 63.20,449.61 63.45,449.65 63.67,449.78 63.89,449.91 64.06,450.10 64.23,450.29 64.33,450.52 64.43,450.76 64.45,451.01 64.47,451.27 64.41,451.51 64.35,451.76 64.21,451.98 64.07,452.19 63.87,452.35 63.67,452.51 63.43,452.60 63.19,452.68 62.94,452.69 62.68,452.69 62.44,452.62 62.19,452.54 61.99,452.39 61.78,452.24 61.63,452.03 61.49,451.83 61.41,451.58 61.34,451.34 61.35,451.08 61.35,450.83 61.44,450.59 61.53,450.35 61.69,450.15 61.85,449.95 62.07,449.82 62.29,449.68 62.53,449.62 62.78,449.56 63.03,449.58 63.29,449.60 63.52,449.71 63.76,449.81 63.95,449.98 64.14,450.15 64.13,450.15 64.13,450.15 65.77,452.65 67.41,455.14 70.59,455.26 73.77,455.38 80.39,455.17 87.01,454.97 96.51,454.50 106.01,454.03 117.52,452.93 129.04,451.82 141.44,449.21 153.84,446.59 167.46,443.82 181.07,441.05 197.63,437.91 214.18,434.77 229.25,434.19 244.33,433.60 262.14,433.60 279.96,433.59 297.52,433.59 315.08,433.59 332.05,433.61 349.02,433.63 359.75,433.71 370.47,433.80 372.96,433.34 375.44,432.87 375.55,431.44 375.66,430.00 375.64,427.29 375.63,424.58 375.59,419.56 375.55,414.54 375.46,407.45 375.38,400.37 375.17,388.44 374.96,376.51 374.48,359.26 374.00,342.01 372.86,320.35 371.72,298.69 369.03,272.04 366.35,245.39 362.06,213.07 357.77,180.75 353.09,146.64 348.40,112.54 343.47,80.31 338.54,48.07 335.06,25.69 331.59,3.31 328.88,-10.63 326.18,-24.58 324.61,-27.24 323.03,-29.90 319.11,-31.85 315.18,-33.81 308.59,-33.20 302.01,-32.59 289.05,-31.18 276.10,-29.78 255.16,-27.83 234.21,-25.88 204.43,-21.30 174.64,-16.71 138.45,-12.70 102.26,-8.69 71.89,-5.35 41.52,-2.01 24.78,-0.25 8.05,1.49 4.02,1.52 0,1.56 -0.18,1.53 -0.37,1.51 -0.54,1.45 -0.72,1.38 -0.88,1.27 -1.03,1.16 -1.16,1.02 -1.28,0.88 -1.37,0.72 -1.46,0.55 -1.50,0.37 -1.55,0.18 -1.55,-0.00 -1.55,-0.18 -1.50,-0.37 -1.46,-0.55 -1.37,-0.72 -1.28,-0.88 -1.16,-1.02 -1.03,-1.16 -0.88,-1.27 -0.72,-1.38 -0.54,-1.45 -0.37,-1.51 -0.18,-1.53 0.00,-1.56 0.00,-1.56 L 0,-1.56 Z"></path></g><g transform="translate(590.220442554606 228) rotate(0 142.5 -27)" stroke="none"><path fill="#000000" d="M -0.53,-1.46 Q -0.53,-1.46 2.64,-2.58 5.81,-3.70 10.63,-5.32 15.44,-6.94 31.39,-9.66 47.35,-12.38 73.66,-15.82 99.96,-19.26 132.11,-23.88 164.26,-28.50 191.13,-33.33 218.00,-38.17 234.59,-41.65 251.17,-45.14 260.76,-48.04 270.35,-50.95 274.45,-52.19 278.55,-53.43 278.76,-53.46 278.98,-53.49 279.19,-53.44 279.40,-53.40 279.58,-53.30 279.77,-53.19 279.91,-53.03 280.06,-52.87 280.14,-52.67 280.23,-52.47 280.24,-52.26 280.26,-52.05 280.21,-51.84 280.15,-51.63 280.04,-51.45 279.92,-51.27 279.75,-51.13 279.58,-51.00 279.38,-50.93 279.18,-50.85 278.97,-50.85 278.75,-50.84 278.55,-50.91 278.34,-50.97 278.17,-51.10 277.99,-51.22 277.87,-51.40 277.74,-51.57 277.68,-51.78 277.62,-51.98 277.63,-52.20 277.63,-52.41 277.71,-52.61 277.78,-52.82 277.92,-52.98 278.05,-53.15 278.23,-53.26 278.42,-53.38 278.62,-53.43 278.83,-53.48 279.05,-53.46 279.26,-53.45 279.46,-53.36 279.66,-53.27 279.81,-53.13 279.97,-52.99 280.08,-52.80 280.18,-52.61 280.22,-52.40 280.26,-52.19 280.23,-51.98 280.20,-51.76 280.11,-51.57 280.01,-51.38 279.86,-51.23 279.71,-51.08 279.51,-50.98 279.32,-50.89 279.32,-50.89 279.32,-50.89 275.22,-49.64 271.12,-48.40 261.43,-45.46 251.73,-42.52 235.10,-39.01 218.48,-35.51 191.57,-30.66 164.65,-25.80 132.49,-21.16 100.32,-16.52 74.07,-13.06 47.82,-9.60 32.10,-6.90 16.37,-4.20 11.60,-2.55 6.83,-0.89 3.68,0.28 0.53,1.46 0.35,1.51 0.16,1.55 -0.02,1.55 -0.20,1.54 -0.39,1.50 -0.57,1.45 -0.73,1.36 -0.90,1.27 -1.04,1.14 -1.18,1.01 -1.28,0.86 -1.39,0.70 -1.45,0.52 -1.52,0.35 -1.54,0.16 -1.56,-0.02 -1.53,-0.20 -1.51,-0.39 -1.44,-0.56 -1.37,-0.74 -1.26,-0.89 -1.15,-1.05 -1.01,-1.17 -0.86,-1.29 -0.70,-1.38 -0.53,-1.46 -0.53,-1.46 L -0.53,-1.46 Z"></path></g><g transform="translate(613.220442554606 340) rotate(0 157 -23)" stroke="none"><path fill="#000000" d="M -0.27,-1.62 Q -0.27,-1.62 6.63,-2.72 13.54,-3.83 32.86,-7.16 52.18,-10.49 86.01,-15.06 119.84,-19.64 156.91,-25.31 193.97,-30.98 222.39,-34.82 250.82,-38.66 268.93,-41.16 287.04,-43.65 294.73,-44.70 302.43,-45.76 302.65,-45.75 302.87,-45.75 303.07,-45.67 303.28,-45.60 303.45,-45.46 303.62,-45.33 303.74,-45.14 303.85,-44.96 303.91,-44.75 303.96,-44.54 303.94,-44.32 303.93,-44.10 303.84,-43.90 303.75,-43.70 303.61,-43.54 303.46,-43.37 303.27,-43.27 303.08,-43.16 302.87,-43.12 302.66,-43.08 302.44,-43.10 302.22,-43.13 302.03,-43.23 301.83,-43.33 301.68,-43.48 301.52,-43.63 301.43,-43.83 301.33,-44.03 301.30,-44.24 301.27,-44.46 301.31,-44.67 301.35,-44.89 301.46,-45.08 301.56,-45.27 301.73,-45.41 301.89,-45.56 302.09,-45.65 302.29,-45.73 302.51,-45.75 302.72,-45.77 302.94,-45.72 303.15,-45.66 303.33,-45.55 303.52,-45.43 303.65,-45.26 303.79,-45.09 303.87,-44.88 303.94,-44.68 303.95,-44.46 303.95,-44.24 303.89,-44.03 303.83,-43.83 303.70,-43.65 303.57,-43.47 303.39,-43.34 303.22,-43.22 303.01,-43.15 302.80,-43.09 302.80,-43.09 302.80,-43.09 295.11,-42.02 287.41,-40.95 269.30,-38.44 251.19,-35.93 222.79,-32.06 194.40,-28.19 157.31,-22.49 120.23,-16.78 86.46,-12.17 52.69,-7.55 33.37,-4.16 14.05,-0.76 7.16,0.42 0.27,1.62 0.07,1.63 -0.12,1.64 -0.32,1.60 -0.51,1.56 -0.69,1.47 -0.87,1.39 -1.02,1.27 -1.18,1.14 -1.30,0.98 -1.42,0.82 -1.50,0.64 -1.57,0.46 -1.61,0.26 -1.64,0.07 -1.62,-0.12 -1.61,-0.32 -1.55,-0.51 -1.49,-0.69 -1.38,-0.86 -1.27,-1.03 -1.13,-1.17 -0.99,-1.31 -0.82,-1.41 -0.65,-1.51 -0.46,-1.56 -0.27,-1.62 -0.27,-1.62 L -0.27,-1.62 Z"></path></g><g transform="translate(620.220442554606 440) rotate(0 227.5 -47.5)" stroke="none"><path fill="#000000" d="M 0,-1.56 Q 0,-1.56 2.29,-1.52 4.59,-1.49 10.02,-2.60 15.46,-3.71 25.93,-5.05 36.41,-6.39 67.28,-10.69 98.16,-14.99 141.75,-21.41 185.35,-27.84 231.72,-37.74 278.10,-47.65 318.22,-57.32 358.34,-66.99 383.43,-73.97 408.52,-80.95 421.76,-85.06 435.00,-89.17 440.61,-91.20 446.21,-93.23 448.61,-94.09 451.01,-94.96 451.22,-95.00 451.43,-95.03 451.64,-95.00 451.85,-94.97 452.04,-94.88 452.23,-94.78 452.38,-94.63 452.53,-94.48 452.63,-94.29 452.72,-94.10 452.75,-93.88 452.77,-93.67 452.73,-93.46 452.69,-93.25 452.59,-93.07 452.48,-92.88 452.32,-92.74 452.16,-92.60 451.96,-92.51 451.77,-92.43 451.55,-92.41 451.34,-92.40 451.13,-92.45 450.93,-92.50 450.75,-92.62 450.57,-92.74 450.43,-92.90 450.30,-93.07 450.23,-93.27 450.16,-93.47 450.15,-93.69 450.15,-93.90 450.21,-94.10 450.27,-94.31 450.40,-94.48 450.53,-94.65 450.70,-94.78 450.87,-94.90 451.08,-94.96 451.28,-95.02 451.50,-95.02 451.71,-95.01 451.91,-94.94 452.11,-94.86 452.28,-94.73 452.44,-94.59 452.56,-94.41 452.67,-94.23 452.72,-94.02 452.77,-93.81 452.75,-93.60 452.73,-93.39 452.65,-93.19 452.56,-93.00 452.42,-92.84 452.28,-92.68 452.09,-92.58 451.90,-92.47 451.90,-92.47 451.90,-92.47 449.51,-91.60 447.12,-90.74 441.45,-88.69 435.79,-86.64 422.51,-82.51 409.23,-78.38 384.10,-71.38 358.97,-64.38 318.82,-54.70 278.66,-45.01 232.20,-35.07 185.74,-25.14 142.14,-18.69 98.54,-12.25 67.66,-7.93 36.77,-3.60 26.41,-2.24 16.04,-0.88 10.32,0.30 4.60,1.49 2.30,1.52 0,1.56 -0.18,1.53 -0.37,1.51 -0.54,1.45 -0.72,1.38 -0.88,1.27 -1.03,1.16 -1.16,1.02 -1.28,0.88 -1.37,0.72 -1.46,0.55 -1.50,0.37 -1.55,0.18 -1.55,-0.00 -1.55,-0.18 -1.50,-0.37 -1.46,-0.55 -1.37,-0.72 -1.28,-0.88 -1.16,-1.02 -1.03,-1.16 -0.88,-1.27 -0.72,-1.38 -0.54,-1.45 -0.37,-1.51 -0.18,-1.53 0.00,-1.56 0.00,-1.56 L 0,-1.56 Z"></path></g><g stroke-linecap="round" transform="translate(13.220442554606052 153) rotate(0 147 63)"><path d="M-0.32 0.03 C94.71 2.77, 190.14 0.49, 294.44 1.08 M0 -0.34 C74.9 1.65, 148.26 1.78, 293.44 0.25 M294.26 -0.79 C290.87 29.1, 291.01 56.12, 295.78 126.29 M293.25 -0.81 C295.49 31.93, 295.62 65.4, 293.62 125.58 M292.85 125.74 C202.72 122.99, 112.79 123.16, 0.42 125.48 M294.05 126.66 C200.95 126.34, 107.45 127.12, -0.69 125.59 M-1.37 126.72 C0.02 91.52, 0.25 60.39, 1.28 0.64 M-0.82 125.85 C0.2 100.07, 1.68 73.44, -0.19 -0.65" stroke="#000000" stroke-width="1" fill="none"></path></g><g stroke-linecap="round"><g transform="translate(316.22044255460605 197) rotate(0 124.3358106836676 -2.3875195575738246)"><path d="M-0.97 0.44 C40.6 0.02, 207.63 -2.59, 249.65 -3.4 M0.72 -0.37 C42.08 -1.07, 206.8 -4.71, 248.51 -5.21" stroke="#c92a2a" stroke-width="1" fill="none"></path></g><g transform="translate(316.22044255460605 197) rotate(0 124.3358106836676 -2.3875195575738246)"><path d="M221.24 4.95 C230.49 4.23, 237.65 -1.93, 248.64 -7.01 M219.75 4.75 C226.05 2.59, 232.98 0.59, 248.68 -5.42" stroke="#c92a2a" stroke-width="1" fill="none"></path></g><g transform="translate(316.22044255460605 197) rotate(0 124.3358106836676 -2.3875195575738246)"><path d="M220.88 -15.57 C230.09 -9.75, 237.36 -9.38, 248.64 -7.01 M219.39 -15.77 C225.61 -13.5, 232.62 -11.06, 248.68 -5.42" stroke="#c92a2a" stroke-width="1" fill="none"></path></g></g><g stroke-linecap="round"><g transform="translate(377.22044255460605 459) rotate(0 99.34739717936606 -81.68581726700069)"><path d="M-0.31 0.29 C32.47 -26.83, 163.9 -136.49, 196.88 -163.66 M1.73 -0.6 C34.85 -27.49, 166.53 -135.69, 199 -162.47" stroke="#c92a2a" stroke-width="1" fill="none"></path></g><g transform="translate(377.22044255460605 459) rotate(0 99.34739717936606 -81.68581726700069)"><path d="M184.23 -138.51 C187.69 -145.53, 194.08 -151.41, 197.63 -161.75 M184.03 -136 C189.06 -145.74, 192.97 -153.36, 198.18 -162.62" stroke="#c92a2a" stroke-width="1" fill="none"></path></g><g transform="translate(377.22044255460605 459) rotate(0 99.34739717936606 -81.68581726700069)"><path d="M171.2 -154.35 C178.66 -156.32, 189.18 -157.18, 197.63 -161.75 M171 -151.84 C180.02 -156.63, 188.04 -159.24, 198.18 -162.62" stroke="#c92a2a" stroke-width="1" fill="none"></path></g></g><g transform="translate(725.220442554606 104) rotate(0 67 26)"><text x="0" y="39" font-family="Virgil, Segoe UI Emoji" font-size="36px" fill="#364fc7" text-anchor="start" style="white-space: pre;" direction="ltr">인덱스0</text></g><g transform="translate(748.220442554606 217) rotate(0 59.5 26)"><text x="0" y="39" font-family="Virgil, Segoe UI Emoji" font-size="36px" fill="#364fc7" text-anchor="start" style="white-space: pre;" direction="ltr">인덱스1</text></g><g transform="translate(624.220442554606 41) rotate(0 83 22.5)"><text x="0" y="32" font-family="Virgil, Segoe UI Emoji" font-size="36px" fill="#000000" text-anchor="start" style="white-space: pre;" direction="ltr">ArrayList</text></g><g transform="translate(233.22044255460605 10) rotate(0 179 26)"><text x="0" y="39" font-family="Virgil, Segoe UI Emoji" font-size="36px" fill="#c92a2a" text-anchor="start" style="white-space: pre;" direction="ltr">객체를 List에 담는다</text></g><g stroke-linecap="round"><g transform="translate(158.22044255460605 157) rotate(0 3.6228790617221875 58.91075826044195)"><path d="M1.04 0.11 C2.13 19.67, 6.36 97.51, 7.11 117.1 M0.13 -0.87 C1.11 18.92, 6.01 99.27, 6.75 118.69" stroke="#000000" stroke-width="1" fill="none"></path></g></g><g stroke-linecap="round"><g transform="translate(11.220442554606052 218) rotate(0 149.88238011558542 -0.42661976000670165)"><path d="M0.16 0.28 C50.07 0.47, 248.72 0.56, 298.87 0.53 M-1.22 -0.62 C49.11 -0.74, 250.65 -1.66, 300.99 -1.32" stroke="#000000" stroke-width="1" fill="none"></path></g></g><g transform="translate(45.22044255460605 85) rotate(0 127 26)"><text x="0" y="39" font-family="Virgil, Segoe UI Emoji" font-size="36px" fill="#000000" text-anchor="start" style="white-space: pre;" direction="ltr">student2 객체</text></g><g transform="translate(103.22044255460605 291) rotate(0 126.5 26)"><text x="0" y="39" font-family="Virgil, Segoe UI Emoji" font-size="36px" fill="#000000" text-anchor="start" style="white-space: pre;" direction="ltr">student3 객체</text></g><g transform="translate(25.220442554606052 157.5) rotate(0 7 10)"><text x="0" y="14" font-family="Virgil, Segoe UI Emoji" font-size="16px" fill="#364fc7" text-anchor="start" style="white-space: pre;" direction="ltr">id</text></g><g transform="translate(18.220442554606052 222.5) rotate(0 57.5 10)"><text x="0" y="14" font-family="Virgil, Segoe UI Emoji" font-size="16px" fill="#364fc7" text-anchor="start" style="white-space: pre;" direction="ltr">studentNumber</text></g><g transform="translate(178.22044255460605 156) rotate(0 51 10)"><text x="0" y="14" font-family="Virgil, Segoe UI Emoji" font-size="16px" fill="#364fc7" text-anchor="start" style="white-space: pre;" direction="ltr">studentName</text></g><g transform="translate(177.22044255460605 225) rotate(0 53 10)"><text x="0" y="14" font-family="Virgil, Segoe UI Emoji" font-size="16px" fill="#364fc7" text-anchor="start" style="white-space: pre;" direction="ltr">studentMajor</text></g><g stroke-linecap="round" transform="translate(54.22044255460594 381) rotate(0 147 63)"><path d="M1.03 0.07 C100.92 -0.85, 201.64 -0.77, 295.34 0.96 M-0.67 0.12 C96 2.2, 192.9 1.61, 294.4 0.68 M294.61 1.88 C292.68 23.9, 292.48 49.35, 292.84 125.54 M293.54 -0.98 C295.64 42.39, 294.8 85.65, 294.11 125.27 M293.88 125.66 C192 126.8, 86.66 125.95, -0.56 126.99 M293.62 126.32 C212.19 127.18, 129.75 126.59, -0.68 126.29 M0.82 125.22 C-0.8 96.92, 1.88 72.5, 0.57 -0.42 M-0.98 126.24 C-0.02 77.74, 0.22 26.81, -0.96 0.29" stroke="#000000" stroke-width="1" fill="none"></path></g><g stroke-linecap="round"><g transform="translate(199.22044255460594 385) rotate(0 2.673555194162759 58.48809162254446)"><path d="M0.83 0.06 C1.63 19.46, 4.86 97.17, 5.54 116.61 M-0.19 -0.96 C0.34 18.59, 3.11 98.14, 4.35 117.94" stroke="#000000" stroke-width="1" fill="none"></path></g></g><g stroke-linecap="round"><g transform="translate(52.22044255460594 446) rotate(0 149.11601003876422 -0.9505741205609581)"><path d="M0.06 -0.46 C49.96 -0.78, 249.67 -1.35, 299.61 -1.09 M-1.37 -1.75 C48.32 -2.03, 248.43 -0.3, 298.45 -0.12" stroke="#000000" stroke-width="1" fill="none"></path></g></g><g transform="translate(66.22044255460594 385.5) rotate(0 7 10)"><text x="0" y="14" font-family="Virgil, Segoe UI Emoji" font-size="16px" fill="#364fc7" text-anchor="start" style="white-space: pre;" direction="ltr">id</text></g><g transform="translate(59.22044255460594 450.5) rotate(0 57.5 10)"><text x="0" y="14" font-family="Virgil, Segoe UI Emoji" font-size="16px" fill="#364fc7" text-anchor="start" style="white-space: pre;" direction="ltr">studentNumber</text></g><g transform="translate(219.22044255460594 384) rotate(0 51 10)"><text x="0" y="14" font-family="Virgil, Segoe UI Emoji" font-size="16px" fill="#364fc7" text-anchor="start" style="white-space: pre;" direction="ltr">studentName</text></g><g transform="translate(218.22044255460594 453) rotate(0 53 10)"><text x="0" y="14" font-family="Virgil, Segoe UI Emoji" font-size="16px" fill="#364fc7" text-anchor="start" style="white-space: pre;" direction="ltr">studentMajor</text></g><g transform="translate(46.22044255460605 248) rotate(0 37.5 10)"><text x="0" y="14" font-family="Virgil, Segoe UI Emoji" font-size="16px" fill="#000000" text-anchor="start" style="white-space: pre;" direction="ltr">11223344</text></g><g transform="translate(210.22044255460605 183) rotate(0 22 11.5)"><text x="0" y="17" font-family="Virgil, Segoe UI Emoji" font-size="16px" fill="#000000" text-anchor="start" style="white-space: pre;" direction="ltr">학생2</text></g><g transform="translate(181.22044255460605 250) rotate(0 40.5 11.5)"><text x="0" y="17" font-family="Virgil, Segoe UI Emoji" font-size="16px" fill="#000000" text-anchor="start" style="white-space: pre;" direction="ltr">컴퓨터공학</text></g><g transform="translate(78.22044255460605 179) rotate(0 6 10)"><text x="0" y="14" font-family="Virgil, Segoe UI Emoji" font-size="16px" fill="#000000" text-anchor="start" style="white-space: pre;" direction="ltr">2</text></g><g transform="translate(106.22044255460605 407) rotate(0 6 10)"><text x="0" y="14" font-family="Virgil, Segoe UI Emoji" font-size="16px" fill="#000000" text-anchor="start" style="white-space: pre;" direction="ltr">3</text></g><g transform="translate(250.22044255460605 410) rotate(0 22 11.5)"><text x="0" y="17" font-family="Virgil, Segoe UI Emoji" font-size="16px" fill="#000000" text-anchor="start" style="white-space: pre;" direction="ltr">학생3</text></g><g transform="translate(242.22044255460605 481) rotate(0 32.5 11.5)"><text x="0" y="17" font-family="Virgil, Segoe UI Emoji" font-size="16px" fill="#000000" text-anchor="start" style="white-space: pre;" direction="ltr">전자공학</text></g><g transform="translate(88.22044255460605 476) rotate(0 39.5 10)"><text x="0" y="14" font-family="Virgil, Segoe UI Emoji" font-size="16px" fill="#000000" text-anchor="start" style="white-space: pre;" direction="ltr">99999999</text></g></svg>