<svg version="1.1" xmlns="http://www.w3.org/2000/svg" viewBox="0 0 1750.1111111111109 625.25" width="1750.1111111111109" height="625.25">
  <!-- svg-source:excalidraw -->
  
  <defs>
    <style>
      @font-face {
        font-family: "Virgil";
        src: url("https://excalidraw.com/Virgil.woff2");
      }
      @font-face {
        font-family: "Cascadia";
        src: url("https://excalidraw.com/Cascadia.woff2");
      }
    </style>
  </defs>
  <rect x="0" y="0" width="1750.1111111111109" height="625.25" fill="#ffffff"></rect><g stroke-linecap="round" transform="translate(308.99999999999983 355.4722222222226) rotate(0 129.5 103)"><path d="M0.25 -1.6 C70.85 -2.01, 142.98 -0.21, 260.52 1.49 M-0.63 -0.43 C91.55 1.26, 182.53 1.4, 258.97 0.22 M260.52 1.15 C257.61 73.85, 257.57 145.59, 260.26 204.7 M258.67 0.08 C260.68 45.8, 260.28 93.18, 258.96 205.35 M259.84 205.83 C183.24 203.64, 110.57 203.97, -0.19 207.15 M258.82 206.7 C191.9 206.78, 124.58 207.67, 0.24 206.03 M0.44 206.02 C0.48 156.15, 0.31 107.37, 0.14 -0.16 M0.35 206.03 C-0.9 149.78, -1.8 91.86, 0.58 -0.49" stroke="#000000" stroke-width="1" fill="none"></path></g><g stroke-linecap="round" transform="translate(743.9999999999998 360.4722222222226) rotate(0 133 102.5)"><path d="M-1.16 -1.19 C72.29 -0.88, 140.89 -1.35, 265.78 -0.98 M-0.58 -0.09 C64.91 -0.63, 128.84 0, 265.45 -0.25 M267.28 -0.75 C265.71 73.46, 265.42 146.3, 265.4 203.91 M266.03 -0.58 C266.46 42.94, 267.14 84.7, 265.77 204.29 M265.86 204.63 C197.02 205.55, 125.77 205.22, 1.39 206.34 M265.57 204.3 C189.93 206.81, 113.85 206.78, 0.48 204.66 M-1.46 205.38 C-1.27 155.65, -1 110.16, -0.77 -1.75 M0.45 204.92 C-0.03 156.36, 0.73 108.24, -0.74 -0.78" stroke="#000000" stroke-width="1" fill="none"></path></g><g stroke-linecap="round" transform="translate(1141.9999999999998 352.4722222222226) rotate(0 134 104)"><path d="M-0.35 1.37 C68.63 -2.24, 136.84 -0.49, 268.47 0.05 M0.19 0.01 C62.81 -2.05, 125.76 -2.2, 268.06 -0.07 M268.71 0.05 C271.25 59.03, 269.46 114.66, 269.15 207.03 M268.44 0.47 C269 43.59, 267.87 88.03, 267.9 207.27 M267.27 208.49 C181.26 204.5, 94.83 205.58, -0.91 208.79 M268.16 207.34 C189.21 205.81, 112.29 206.16, -0.07 208.38 M0.88 208.09 C1.09 134.32, -0.65 60.14, -0.49 -1.22 M-0.13 207.78 C0.72 166.42, 2.04 124.19, -0.13 -0.58" stroke="#000000" stroke-width="1" fill="none"></path></g><g transform="translate(388.99999999999983 437.9722222222226) rotate(0 36.5 22.5)"><text x="0" y="32" font-family="Virgil, Segoe UI Emoji" font-size="36px" fill="#000000" text-anchor="start" style="white-space: pre;" direction="ltr">main</text></g><g transform="translate(824.9999999999998 447.4722222222226) rotate(0 60 22.5)"><text x="0" y="32" font-family="Virgil, Segoe UI Emoji" font-size="36px" fill="#000000" text-anchor="start" style="white-space: pre;" direction="ltr">service</text></g><g transform="translate(1203.4999999999998 433.4722222222226) rotate(0 91.5 22.5)"><text x="0" y="32" font-family="Virgil, Segoe UI Emoji" font-size="36px" fill="#000000" text-anchor="start" style="white-space: pre;" direction="ltr">Repository</text></g><g stroke-linecap="round" transform="translate(1553.3333333333333 350.1388888888893) rotate(0 82.77777777777771 23.333333333333343)"><path d="M54.92 0.74 C66.08 -0.56, 82.11 0.53, 94.79 1.13 C107.46 1.72, 120.72 2.2, 130.97 4.28 C141.22 6.36, 150.53 10.23, 156.26 13.59 C161.99 16.95, 165.56 20.9, 165.35 24.44 C165.13 27.99, 161 31.9, 154.97 34.87 C148.95 37.84, 139.75 40.39, 129.19 42.29 C118.64 44.19, 104.69 45.8, 91.66 46.28 C78.62 46.76, 62.99 46.47, 51 45.17 C39 43.87, 27.72 41.17, 19.69 38.46 C11.65 35.75, 5.56 32.58, 2.79 28.89 C0.03 25.2, -0.27 19.9, 3.1 16.31 C6.47 12.71, 13.98 9.92, 23.02 7.31 C32.05 4.71, 51.1 1.71, 57.31 0.68 C63.53 -0.34, 59.96 0.87, 60.29 1.17 M44.2 2.58 C54.61 0.56, 69.91 0.88, 82.84 0.68 C95.77 0.49, 110.54 -0.13, 121.79 1.41 C133.04 2.94, 142.97 6.59, 150.35 9.87 C157.72 13.16, 164.18 17.65, 166.05 21.09 C167.92 24.53, 166.29 27.05, 161.56 30.51 C156.83 33.98, 147.37 39.47, 137.67 41.87 C127.97 44.27, 115.82 44.04, 103.36 44.91 C90.9 45.79, 75.25 47.58, 62.93 47.14 C50.61 46.71, 39.11 44.72, 29.43 42.3 C19.75 39.87, 9.83 36.2, 4.87 32.59 C-0.09 28.99, -1.81 24.37, -0.34 20.65 C1.12 16.93, 6.56 13.04, 13.66 10.26 C20.76 7.48, 36.91 5.02, 42.25 3.99 C47.58 2.96, 44.74 3.82, 45.67 4.08" stroke="#000000" stroke-width="1" fill="none"></path></g><g stroke-linecap="round"><g transform="translate(1557.7777777777776 372.36111111111154) rotate(0 -0.16322147065818626 70.27416763322478)"><path d="M-0.41 -0.18 C-0.77 23.29, -1.74 118.21, -1.9 141.87 M1.57 -1.32 C1.58 22.32, 1.03 116.62, 0.4 140.15" stroke="#000000" stroke-width="1" fill="none"></path></g></g><g stroke-linecap="round"><g transform="translate(1715.5555555555554 376.805555555556) rotate(0 1.506747170987751 65.16735045872733)"><path d="M-0.31 -0.38 C-0.03 21.3, 0.82 108.78, 1.16 131.04 M1.72 -1.62 C2.42 20.08, 3.49 109.79, 3.31 131.96" stroke="#000000" stroke-width="1" fill="none"></path></g></g><g transform="translate(1558.8888888888887 511.25000000000045) rotate(0 83.33333333333337 9.444444444444429)" stroke="none"><path fill="#000000" d="M 1.49,-0.49 Q 1.49,-0.49 2.01,1.29 2.53,3.08 5.07,4.25 7.61,5.41 11.09,7.68 14.58,9.96 17.99,12.53 21.39,15.11 25.88,17.08 30.37,19.05 34.31,21.23 38.24,23.41 41.45,24.95 44.66,26.49 47.56,27.44 50.45,28.39 53.20,28.78 55.95,29.17 58.71,29.35 61.47,29.52 64.88,29.60 68.28,29.67 71.65,29.71 75.02,29.74 79.96,29.75 84.90,29.77 88.49,29.15 92.08,28.52 95.46,27.32 98.84,26.12 100.94,25.29 103.04,24.46 104.91,23.75 106.77,23.03 108.80,22.13 110.82,21.23 112.61,20.23 114.39,19.23 116.76,17.84 119.13,16.46 120.48,15.73 121.83,15.01 122.84,14.13 123.85,13.26 125.64,11.76 127.43,10.26 128.57,9.11 129.72,7.97 131.04,7.01 132.37,6.05 133.44,5.11 134.52,4.17 135.76,3.31 137.00,2.45 138.63,1.34 140.26,0.23 142.07,-0.68 143.88,-1.60 145.00,-2.67 146.11,-3.75 147.74,-4.92 149.37,-6.09 150.49,-6.68 151.60,-7.28 153.41,-7.62 155.22,-7.96 156.25,-8.68 157.28,-9.41 158.34,-10.02 159.40,-10.63 160.48,-11.19 161.55,-11.75 163.14,-13.11 164.73,-14.46 165.14,-14.71 165.55,-14.96 166.01,-15.06 166.48,-15.17 166.96,-15.12 167.43,-15.07 167.87,-14.87 168.30,-14.68 168.65,-14.35 169.00,-14.02 169.23,-13.60 169.46,-13.18 169.54,-12.71 169.62,-12.24 169.54,-11.77 169.47,-11.29 169.25,-10.87 169.03,-10.44 168.68,-10.11 168.34,-9.78 167.90,-9.58 167.47,-9.37 167.00,-9.32 166.52,-9.26 166.05,-9.36 165.59,-9.46 165.17,-9.71 164.76,-9.95 164.45,-10.31 164.14,-10.68 163.96,-11.12 163.78,-11.56 163.75,-12.04 163.72,-12.52 163.85,-12.98 163.97,-13.44 164.24,-13.84 164.50,-14.24 164.88,-14.53 165.26,-14.82 165.71,-14.98 166.16,-15.13 166.64,-15.13 167.12,-15.14 167.57,-14.99 168.03,-14.84 168.41,-14.55 168.79,-14.26 169.07,-13.87 169.34,-13.48 169.47,-13.02 169.60,-12.56 169.58,-12.08 169.55,-11.60 169.38,-11.16 169.20,-10.71 168.90,-10.34 168.59,-9.98 168.59,-9.98 168.59,-9.98 166.42,-8.30 164.26,-6.62 162.43,-5.65 160.61,-4.67 159.67,-4.06 158.73,-3.46 156.48,-2.82 154.23,-2.18 152.52,-1.24 150.82,-0.30 149.47,0.57 148.12,1.45 147.26,2.27 146.40,3.09 145.31,3.62 144.21,4.14 142.83,4.63 141.44,5.11 140.54,5.77 139.64,6.43 138.62,7.06 137.59,7.70 136.35,8.79 135.10,9.87 133.24,11.24 131.38,12.60 129.58,13.66 127.78,14.72 126.84,15.38 125.91,16.03 124.51,16.94 123.12,17.85 121.81,18.31 120.49,18.78 118.11,20.19 115.72,21.59 113.83,22.66 111.94,23.72 109.83,24.67 107.72,25.63 105.86,26.27 104.01,26.91 101.86,27.76 99.72,28.61 96.12,29.86 92.53,31.12 88.71,31.76 84.90,32.40 79.95,32.39 74.99,32.38 71.61,32.35 68.23,32.32 64.77,32.24 61.31,32.17 58.44,31.99 55.57,31.81 52.60,31.37 49.62,30.93 46.56,29.93 43.50,28.92 40.22,27.36 36.93,25.80 33.09,23.69 29.26,21.58 24.49,19.47 19.72,17.37 16.37,14.87 13.02,12.38 9.63,10.22 6.25,8.06 3.13,6.32 0.02,4.57 -0.73,2.53 -1.49,0.49 -1.52,0.31 -1.56,0.12 -1.55,-0.06 -1.55,-0.25 -1.49,-0.43 -1.44,-0.61 -1.35,-0.78 -1.25,-0.94 -1.12,-1.08 -0.99,-1.21 -0.83,-1.31 -0.67,-1.42 -0.49,-1.47 -0.31,-1.53 -0.12,-1.55 0.06,-1.57 0.25,-1.53 0.43,-1.50 0.61,-1.43 0.78,-1.36 0.93,-1.24 1.08,-1.13 1.20,-0.98 1.32,-0.83 1.40,-0.66 1.49,-0.49 1.49,-0.49 L 1.49,-0.49 Z"></path></g><g transform="translate(1616.6666666666665 426.69444444444485) rotate(0 27.5 22.5)"><text x="0" y="32" font-family="Virgil, Segoe UI Emoji" font-size="36px" fill="#000000" text-anchor="start" style="white-space: pre;" direction="ltr">DB</text></g><g stroke-linecap="round" transform="translate(572.2222222222222 61.25000000000031) rotate(0 128.33333333333331 73.8888888888889)"><path d="M0.53 1.12 C72.96 -0.84, 145.28 -2.65, 256.29 0.56 M0.02 0.05 C69.07 -0.68, 138.57 -1.58, 256.69 -0.77 M256.59 1.12 C259.89 32.97, 258.62 63.49, 257.64 146.83 M256.19 -0.11 C257.01 45.01, 257.45 89.58, 256.63 148.66 M258.23 146.63 C194.09 146.93, 133.29 147.83, 0.1 148.58 M257.03 147.81 C193.79 148.1, 129.94 148.11, -0.37 147.04 M-1.66 146 C0.59 114.09, -0.66 80.98, -1.92 -0.64 M-0.81 147.65 C1.16 114.06, 1.19 81.92, 0.9 -0.15" stroke="#000000" stroke-width="1" fill="none"></path></g><g transform="translate(667.7777777777778 113.36111111111143) rotate(0 42 22.5)"><text x="0" y="32" font-family="Virgil, Segoe UI Emoji" font-size="36px" fill="#000000" text-anchor="start" style="white-space: pre;" direction="ltr">DTO</text></g><g stroke-linecap="round"><g transform="translate(610 471.2500000000003) rotate(0 53.077243041590236 -1.674160382721709)"><path d="M0.58 -0.57 C18.3 -1.11, 89.04 -2.74, 106.72 -3.48 M-0.57 1.74 C16.96 0.91, 88.06 -4.13, 105.8 -5.09" stroke="#000000" stroke-width="1" fill="none"></path></g><g transform="translate(610 471.2500000000003) rotate(0 53.077243041590236 -1.674160382721709)"><path d="M77.37 7.02 C89.12 2.78, 95.72 -1.45, 104.1 -5.1 M79.2 6.35 C85.13 3.8, 93.57 0, 105.48 -5.58" stroke="#000000" stroke-width="1" fill="none"></path></g><g transform="translate(610 471.2500000000003) rotate(0 53.077243041590236 -1.674160382721709)"><path d="M76.07 -13.46 C88.21 -10.87, 95.24 -8.28, 104.1 -5.1 M77.9 -14.13 C84.08 -11.38, 92.85 -9.87, 105.48 -5.58" stroke="#000000" stroke-width="1" fill="none"></path></g></g><g stroke-linecap="round"><g transform="translate(1027.7777777777776 474.58333333333366) rotate(0 44.40626496999994 0.07199304290580244)"><path d="M0.1 0.56 C15.11 0.3, 75.31 -0.31, 90.11 -0.55 M-1.3 -0.2 C13.56 0.22, 73.8 0.67, 89.22 0.7" stroke="#000000" stroke-width="1" fill="none"></path></g><g transform="translate(1027.7777777777776 474.58333333333366) rotate(0 44.40626496999994 0.07199304290580244)"><path d="M61.91 11 C68.57 5.88, 76.6 3.55, 90.4 -0.97 M60.25 10.73 C66 8.4, 72.18 5.76, 89.68 -0.11" stroke="#000000" stroke-width="1" fill="none"></path></g><g transform="translate(1027.7777777777776 474.58333333333366) rotate(0 44.40626496999994 0.07199304290580244)"><path d="M62.02 -9.53 C68.82 -8.39, 76.81 -4.47, 90.4 -0.97 M60.36 -9.79 C66.06 -7.78, 72.22 -6.09, 89.68 -0.11" stroke="#000000" stroke-width="1" fill="none"></path></g></g><g stroke-linecap="round"><g transform="translate(1436.6666666666665 455.69444444444474) rotate(0 50.3475330827855 -1.277747904012557)"><path d="M-0.03 0.96 C17.02 0.45, 85.29 -2.92, 102.19 -3.51 M-1.5 0.41 C15.49 0.14, 84.76 -1.23, 101.82 -2.07" stroke="#000000" stroke-width="1" fill="none"></path></g><g transform="translate(1436.6666666666665 455.69444444444474) rotate(0 50.3475330827855 -1.277747904012557)"><path d="M75.56 10.89 C81.92 6.32, 91.62 3.13, 102.76 -0.38 M73.11 8.72 C83.88 4.2, 93.96 1.1, 101.59 -2.13" stroke="#000000" stroke-width="1" fill="none"></path></g><g transform="translate(1436.6666666666665 455.69444444444474) rotate(0 50.3475330827855 -1.277747904012557)"><path d="M74.91 -9.62 C81.38 -8.14, 91.27 -5.28, 102.76 -0.38 M72.45 -11.79 C83.48 -8.63, 93.8 -4.06, 101.59 -2.13" stroke="#000000" stroke-width="1" fill="none"></path></g></g><g stroke-linecap="round"><g transform="translate(656.6666666666665 210.1388888888892) rotate(0 -3.755110122615747 104.23704899136858)"><path d="M0.78 -1.03 C-0.55 33.68, -5.76 173.47, -7.11 208.28 M-0.27 1.05 C-1.87 35.91, -6.94 174.9, -8.29 209.5" stroke="#000000" stroke-width="1" fill="none"></path></g></g><g transform="translate(828.8888888888887 197.91666666666697) rotate(0 116.11111111111109 114.44444444444449)" stroke="none"><path fill="#000000" d="M 0.60,-1.44 Q 0.60,-1.44 4.42,0.18 8.24,1.81 12.70,3.46 17.16,5.11 25.81,8.70 34.45,12.30 44.86,17.36 55.26,22.42 64.49,27.46 73.71,32.50 82.46,38.17 91.20,43.85 98.76,49.47 106.33,55.10 113.72,61.67 121.12,68.23 125.88,73.29 130.65,78.34 133.92,81.75 137.20,85.15 139.92,88.56 142.63,91.98 145.04,95.00 147.46,98.03 149.49,101.30 151.51,104.56 154.53,108.08 157.55,111.60 160.76,115.02 163.97,118.45 167.28,122.50 170.60,126.55 173.27,129.86 175.95,133.17 178.34,135.83 180.74,138.48 183.66,141.52 186.59,144.57 189.78,148.12 192.96,151.67 195.01,154.86 197.06,158.04 198.53,160.30 200.01,162.57 202.44,164.69 204.88,166.80 206.65,168.77 208.43,170.73 210.14,172.85 211.85,174.97 213.23,176.84 214.60,178.71 215.59,180.53 216.57,182.34 217.59,183.99 218.61,185.63 219.68,187.67 220.76,189.71 221.86,192.21 222.97,194.70 224.09,198.04 225.21,201.38 226.30,204.36 227.40,207.33 228.52,211.54 229.65,215.74 230.13,219.17 230.61,222.60 232.11,225.41 233.62,228.21 233.69,228.45 233.76,228.69 233.75,228.94 233.74,229.20 233.65,229.43 233.56,229.67 233.40,229.86 233.24,230.05 233.03,230.19 232.81,230.32 232.57,230.38 232.32,230.44 232.07,230.41 231.82,230.39 231.59,230.29 231.36,230.18 231.18,230.01 230.99,229.84 230.87,229.62 230.75,229.40 230.71,229.15 230.66,228.91 230.70,228.66 230.74,228.41 230.85,228.18 230.97,227.96 231.15,227.78 231.33,227.61 231.55,227.50 231.78,227.39 232.03,227.36 232.28,227.33 232.53,227.38 232.77,227.43 232.99,227.56 233.21,227.68 233.37,227.87 233.54,228.06 233.63,228.30 233.73,228.53 233.75,228.78 233.77,229.03 233.70,229.27 233.64,229.52 233.50,229.73 233.36,229.94 233.16,230.09 232.97,230.25 232.73,230.33 232.49,230.41 232.24,230.42 231.99,230.42 231.75,230.35 231.51,230.27 231.31,230.12 231.10,229.97 230.96,229.76 230.82,229.56 230.82,229.56 230.82,229.56 229.40,226.28 227.99,223.01 227.52,219.72 227.06,216.43 225.97,212.35 224.87,208.27 223.75,205.26 222.63,202.25 221.54,199.04 220.45,195.83 219.37,193.43 218.29,191.03 217.22,189.07 216.15,187.11 215.12,185.36 214.10,183.61 213.29,181.94 212.48,180.26 211.15,178.44 209.81,176.62 208.14,174.56 206.47,172.49 204.81,170.63 203.14,168.77 200.48,166.40 197.82,164.02 196.33,161.74 194.84,159.45 192.92,156.44 191.00,153.42 187.85,149.90 184.70,146.39 181.74,143.31 178.78,140.24 176.35,137.53 173.91,134.82 171.23,131.52 168.56,128.22 165.30,124.23 162.04,120.24 158.80,116.78 155.55,113.31 152.42,109.63 149.28,105.96 147.34,102.81 145.39,99.67 142.98,96.65 140.56,93.62 137.93,90.30 135.30,86.99 132.01,83.58 128.71,80.16 124.03,75.20 119.35,70.23 112.04,63.74 104.73,57.25 97.23,51.68 89.73,46.12 81.07,40.50 72.41,34.89 63.23,29.90 54.06,24.91 43.72,19.91 33.38,14.91 24.78,11.36 16.18,7.82 11.63,6.20 7.09,4.57 3.24,3.00 -0.60,1.44 -0.76,1.34 -0.92,1.25 -1.06,1.12 -1.20,0.99 -1.30,0.83 -1.40,0.68 -1.46,0.50 -1.52,0.32 -1.54,0.13 -1.56,-0.05 -1.53,-0.23 -1.50,-0.42 -1.43,-0.59 -1.35,-0.77 -1.24,-0.92 -1.13,-1.07 -0.99,-1.19 -0.84,-1.31 -0.67,-1.39 -0.50,-1.47 -0.32,-1.51 -0.13,-1.55 0.05,-1.54 0.23,-1.54 0.41,-1.49 0.60,-1.44 0.60,-1.44 L 0.60,-1.44 Z"></path></g><g transform="translate(839.9999999999998 146.80555555555588) rotate(0 336.1111111111111 123.88888888888889)" stroke="none"><path fill="#000000" d="M 0,-1.56 Q 0,-1.56 2.55,-1.52 5.11,-1.49 12.36,-0.50 19.61,0.48 29.04,1.86 38.48,3.25 64.21,7.04 89.94,10.82 127.06,15.95 164.18,21.08 201.98,24.85 239.77,28.63 278.23,33.44 316.68,38.24 341.65,41.88 366.62,45.52 385.54,48.35 404.45,51.18 419.89,54.62 435.32,58.07 448.57,61.13 461.82,64.19 473.86,67.41 485.90,70.63 497.09,73.92 508.29,77.21 517.86,80.53 527.43,83.86 535.34,86.87 543.25,89.88 550.16,93.09 557.07,96.30 562.93,99.94 568.79,103.57 573.51,106.70 578.22,109.84 585.95,114.67 593.68,119.50 600.20,124.14 606.72,128.77 611.74,132.67 616.75,136.56 621.10,139.80 625.45,143.04 628.98,146.73 632.52,150.42 635.03,154.62 637.54,158.83 640.14,162.44 642.73,166.05 645.49,171.19 648.25,176.33 651.00,181.35 653.75,186.38 656.85,193.02 659.96,199.67 662.23,204.72 664.50,209.78 666.12,213.87 667.74,217.95 668.75,220.99 669.76,224.03 670.51,226.61 671.27,229.19 671.60,231.98 671.94,234.76 672.08,237.22 672.22,239.68 672.40,241.03 672.57,242.37 673.25,244.92 673.94,247.47 673.94,247.75 673.94,248.04 673.86,248.31 673.77,248.57 673.60,248.80 673.43,249.03 673.20,249.19 672.97,249.35 672.70,249.43 672.42,249.51 672.14,249.49 671.86,249.48 671.60,249.38 671.33,249.28 671.12,249.10 670.90,248.92 670.75,248.68 670.60,248.44 670.54,248.16 670.48,247.89 670.50,247.60 670.53,247.32 670.65,247.07 670.76,246.81 670.95,246.60 671.15,246.39 671.39,246.26 671.64,246.12 671.92,246.08 672.20,246.03 672.48,246.07 672.76,246.11 673.01,246.24 673.26,246.37 673.46,246.57 673.65,246.78 673.77,247.03 673.89,247.29 673.93,247.57 673.96,247.85 673.90,248.13 673.85,248.40 673.70,248.65 673.56,248.89 673.35,249.07 673.13,249.26 672.87,249.37 672.61,249.47 672.33,249.49 672.05,249.51 671.77,249.44 671.50,249.36 671.27,249.21 671.03,249.05 670.86,248.83 670.68,248.61 670.59,248.34 670.50,248.07 670.50,248.07 670.50,248.07 669.98,245.30 669.47,242.52 669.53,241.18 669.60,239.83 669.46,237.45 669.33,235.07 669.04,232.49 668.74,229.92 668.01,227.39 667.27,224.86 666.28,221.89 665.29,218.92 663.70,214.89 662.11,210.85 659.84,205.82 657.58,200.78 654.51,194.21 651.44,187.64 648.69,182.60 645.94,177.57 643.27,172.57 640.60,167.58 637.94,163.87 635.28,160.17 632.94,156.19 630.61,152.22 627.24,148.68 623.88,145.14 619.51,141.89 615.14,138.63 610.17,134.77 605.20,130.91 598.75,126.32 592.29,121.73 584.53,116.88 576.77,112.03 572.09,108.91 567.40,105.80 561.68,102.24 555.96,98.69 549.13,95.51 542.31,92.34 534.44,89.34 526.57,86.34 517.06,83.04 507.54,79.74 496.38,76.46 485.22,73.18 473.22,69.97 461.23,66.76 447.98,63.71 434.74,60.65 419.40,57.23 404.06,53.80 385.15,50.98 366.24,48.16 341.29,44.53 316.34,40.90 277.93,36.11 239.51,31.32 201.66,27.55 163.81,23.78 126.67,18.67 89.54,13.56 63.81,9.80 38.08,6.04 28.65,4.69 19.23,3.34 12.16,2.42 5.10,1.49 2.55,1.52 0,1.56 -0.18,1.53 -0.37,1.51 -0.54,1.45 -0.72,1.38 -0.88,1.27 -1.03,1.16 -1.16,1.02 -1.28,0.88 -1.37,0.72 -1.46,0.55 -1.50,0.37 -1.55,0.18 -1.55,-0.00 -1.55,-0.18 -1.50,-0.37 -1.46,-0.55 -1.37,-0.72 -1.28,-0.88 -1.16,-1.02 -1.03,-1.16 -0.88,-1.27 -0.72,-1.38 -0.54,-1.45 -0.37,-1.51 -0.18,-1.53 0.00,-1.56 0.00,-1.56 L 0,-1.56 Z"></path></g><g stroke-linecap="round" transform="translate(10 369.0277777777779) rotate(0 91.66666666666663 98.88888888888891)"><path d="M-1.88 -0.19 C39.34 3.39, 82.06 2.6, 184.81 0.72 M0.79 -0.57 C62.32 -0.45, 122.89 -1.65, 183.24 -0.13 M183.62 -1.5 C183.99 42.76, 181.7 87.83, 184.95 196.45 M183.3 -0.41 C181.78 78.11, 182.89 156.29, 183.7 197.4 M184.98 196.01 C117.85 196.8, 50.56 195.67, 0.96 197.51 M183.62 197.17 C134.46 196.56, 85.32 196.93, -0.5 197.3 M0.87 196.62 C3.35 136.46, 3.5 76, -1.71 -1.18 M0.07 197.01 C-1.32 123.58, -0.44 49.79, 0.58 -0.09" stroke="#000000" stroke-width="1" fill="none"></path></g><g transform="translate(32.22222222222217 447.6666666666668) rotate(0 69.5 22.5)"><text x="0" y="32" font-family="Virgil, Segoe UI Emoji" font-size="36px" fill="#000000" text-anchor="start" style="white-space: pre;" direction="ltr">Browser</text></g><g stroke-linecap="round"><g transform="translate(217.77777777777771 457.9166666666668) rotate(0 37.19330765811935 3.9290407307994144)"><path d="M-0.46 0.7 C12.21 1.76, 62.2 5.81, 74.84 6.81 M1.5 0.02 C14.15 1.16, 61.83 6.6, 74.11 7.84" stroke="#000000" stroke-width="1" fill="none"></path></g><g transform="translate(217.77777777777771 457.9166666666668) rotate(0 37.19330765811935 3.9290407307994144)"><path d="M46.14 15.68 C49.28 15.3, 55.07 12.35, 74.61 6.35 M44.64 15.83 C52.08 13.42, 59.97 11.18, 74.12 7.51" stroke="#000000" stroke-width="1" fill="none"></path></g><g transform="translate(217.77777777777771 457.9166666666668) rotate(0 37.19330765811935 3.9290407307994144)"><path d="M48.34 -4.72 C51.11 -0.94, 56.45 0.27, 74.61 6.35 M46.84 -4.57 C53.79 -1.51, 61.09 1.72, 74.12 7.51" stroke="#000000" stroke-width="1" fill="none"></path></g></g><g transform="translate(236.11111111111097 413.75) rotate(0 163.12499999999997 -135)" stroke="none"><path fill="#000000" d="M -1.56,0 Q -1.56,0 -1.52,-4.31 -1.49,-8.62 -1.46,-15.48 -1.44,-22.35 -0.34,-30.39 0.76,-38.44 2.68,-46.20 4.60,-53.96 7.22,-63.00 9.84,-72.04 13.11,-82.36 16.39,-92.67 20.67,-102.86 24.96,-113.04 28.95,-120.98 32.94,-128.92 38.62,-137.73 44.29,-146.53 48.15,-151.72 52.02,-156.91 56.53,-162.71 61.04,-168.51 66.91,-176.00 72.78,-183.49 78.17,-189.92 83.55,-196.35 89.12,-201.65 94.68,-206.95 99.54,-211.69 104.39,-216.42 109.74,-220.64 115.10,-224.86 119.85,-228.78 124.61,-232.70 129.93,-236.21 135.25,-239.72 140.77,-242.66 146.29,-245.60 151.16,-247.93 156.02,-250.26 160.32,-251.63 164.62,-253.01 168.89,-254.65 173.16,-256.28 177.96,-257.37 182.75,-258.46 187.95,-259.98 193.14,-261.50 200.46,-262.88 207.78,-264.26 212.98,-265.56 218.18,-266.85 222.64,-267.41 227.10,-267.98 231.16,-268.22 235.23,-268.46 240.15,-268.92 245.07,-269.37 250.80,-269.57 256.53,-269.77 261.84,-269.85 267.15,-269.94 270.84,-269.97 274.53,-270.01 277.83,-270.38 281.13,-270.75 284.39,-270.91 287.66,-271.07 291.57,-271.14 295.48,-271.21 298.21,-271.24 300.95,-271.27 302.83,-271.33 304.71,-271.40 305.87,-271.52 307.03,-271.65 309.32,-271.60 311.61,-271.56 314.74,-271.52 317.87,-271.49 319.92,-271.48 321.97,-271.48 324.11,-271.59 326.24,-271.71 326.52,-271.66 326.79,-271.62 327.04,-271.49 327.28,-271.36 327.47,-271.16 327.66,-270.96 327.78,-270.71 327.90,-270.45 327.93,-270.18 327.96,-269.90 327.90,-269.63 327.84,-269.36 327.69,-269.12 327.55,-268.89 327.34,-268.71 327.13,-268.53 326.87,-268.42 326.61,-268.32 326.34,-268.31 326.06,-268.29 325.79,-268.37 325.53,-268.44 325.30,-268.59 325.07,-268.75 324.90,-268.97 324.73,-269.19 324.64,-269.45 324.55,-269.72 324.55,-270.00 324.55,-270.27 324.64,-270.54 324.73,-270.80 324.90,-271.02 325.07,-271.24 325.30,-271.40 325.53,-271.55 325.79,-271.62 326.06,-271.70 326.34,-271.68 326.61,-271.67 326.87,-271.57 327.13,-271.46 327.34,-271.28 327.55,-271.10 327.69,-270.87 327.84,-270.63 327.90,-270.36 327.96,-270.09 327.93,-269.81 327.90,-269.54 327.78,-269.28 327.66,-269.03 327.47,-268.83 327.28,-268.63 327.04,-268.50 326.79,-268.37 326.52,-268.33 326.24,-268.28 326.24,-268.28 326.25,-268.28 324.11,-268.40 321.97,-268.51 319.92,-268.50 317.87,-268.50 314.74,-268.46 311.61,-268.43 309.33,-268.38 307.04,-268.33 305.88,-268.44 304.73,-268.56 302.85,-268.60 300.97,-268.64 298.25,-268.61 295.52,-268.58 291.66,-268.51 287.79,-268.45 284.60,-268.29 281.42,-268.14 277.99,-267.76 274.56,-267.38 270.87,-267.34 267.19,-267.31 261.91,-267.23 256.62,-267.14 250.97,-266.95 245.31,-266.76 240.35,-266.30 235.38,-265.84 231.40,-265.61 227.43,-265.37 223.12,-264.84 218.81,-264.30 213.54,-262.99 208.26,-261.68 201.07,-260.33 193.88,-258.97 188.60,-257.44 183.33,-255.90 178.71,-254.86 174.10,-253.83 169.76,-252.17 165.42,-250.51 161.29,-249.20 157.15,-247.89 152.34,-245.58 147.53,-243.28 142.11,-240.40 136.69,-237.52 131.49,-234.10 126.28,-230.67 121.50,-226.73 116.72,-222.79 111.48,-218.67 106.23,-214.54 101.36,-209.79 96.50,-205.04 91.03,-199.85 85.57,-194.66 80.21,-188.26 74.86,-181.86 68.99,-174.37 63.13,-166.88 58.63,-161.11 54.14,-155.33 50.33,-150.21 46.52,-145.09 40.92,-136.41 35.32,-127.72 31.38,-119.86 27.43,-112.00 23.19,-101.93 18.96,-91.86 15.71,-81.57 12.46,-71.29 9.87,-62.29 7.29,-53.30 5.42,-45.68 3.55,-38.05 2.49,-30.20 1.44,-22.35 1.46,-15.48 1.49,-8.62 1.52,-4.31 1.56,0 1.53,0.18 1.51,0.37 1.45,0.54 1.38,0.72 1.27,0.88 1.16,1.03 1.02,1.16 0.88,1.28 0.72,1.37 0.55,1.46 0.37,1.50 0.18,1.55 -0.00,1.55 -0.18,1.55 -0.37,1.50 -0.55,1.46 -0.72,1.37 -0.88,1.28 -1.02,1.16 -1.16,1.03 -1.27,0.88 -1.38,0.72 -1.45,0.54 -1.51,0.37 -1.53,0.18 -1.56,-0.00 -1.56,-0.00 L -1.56,0 Z"></path></g><g transform="translate(1541.1111111111109 570.25) rotate(0 99.5 22.5)"><text x="0" y="32" font-family="Virgil, Segoe UI Emoji" font-size="36px" fill="#000000" text-anchor="start" style="white-space: pre;" direction="ltr">static List</text></g><g transform="translate(553.6111111111109 10) rotate(0 166 20)"><text x="0" y="30" font-family="Virgil, Segoe UI Emoji" font-size="28px" fill="#364fc7" text-anchor="start" style="white-space: pre;" direction="ltr">주고받을 때 DTO가 관여</text></g></svg>